<svg xmlns="http://www.w3.org/2000/svg" viewBox="0 0 490 935">
  <path id="body" d="M236.000 1.000 C223.000 4.000 213.000 13.000 208.000 24.000 C205.000 30.000 205.000 32.000 204.000 43.000 C204.000 54.000 204.000 55.000 202.000 55.000 C201.000 55.000 199.000 56.000 198.000 57.000 C195.000 60.000 195.000 66.000 200.000 78.000 C203.000 86.000 206.000 90.000 208.000 89.000 C209.000 88.000 210.000 97.000 210.000 113.000 C210.000 131.000 209.000 133.000 200.000 138.000 C194.000 142.000 170.000 153.000 164.000 156.000 C162.000 156.000 156.000 157.000 150.000 158.000 C125.000 161.000 111.000 171.000 104.000 192.000 C101.000 202.000 100.000 222.000 102.000 235.000 L103.000 244.000 L99.000 253.000 C95.000 264.000 92.000 276.000 92.000 286.000 C91.000 297.000 89.000 305.000 87.000 308.000 C86.000 310.000 82.000 317.000 78.000 324.000 C65.000 343.000 61.000 355.000 58.000 376.000 C52.000 414.000 48.000 430.000 40.000 446.000 C38.000 452.000 37.000 453.000 28.000 458.000 C19.000 464.000 17.000 465.000 14.000 470.000 C12.000 475.000 5.000 485.000 1.000 492.000 C-1.000 494.000 1.000 496.000 4.000 497.000 C8.000 497.000 11.000 496.000 16.000 492.000 L20.000 488.000 L19.000 491.000 C19.000 493.000 17.000 501.000 15.000 509.000 C13.000 517.000 11.000 528.000 11.000 532.000 C10.000 540.000 10.000 540.000 12.000 542.000 C15.000 545.000 16.000 544.000 18.000 542.000 L20.000 540.000 L20.000 544.000 C19.000 549.000 21.000 553.000 25.000 553.000 C27.000 553.000 28.000 551.000 30.000 548.000 C32.000 544.000 32.000 544.000 32.000 546.000 C32.000 549.000 34.000 552.000 37.000 552.000 C39.000 552.000 42.000 548.000 44.000 542.000 C46.000 537.000 46.000 537.000 47.000 540.000 C48.000 542.000 52.000 543.000 54.000 540.000 C55.000 539.000 58.000 530.000 60.000 520.000 C63.000 510.000 66.000 499.000 68.000 495.000 C70.000 489.000 70.000 485.000 71.000 473.000 L72.000 458.000 L80.000 442.000 C85.000 433.000 93.000 419.000 98.000 411.000 C103.000 404.000 109.000 394.000 111.000 390.000 C119.000 377.000 124.000 359.000 127.000 341.000 C129.000 322.000 130.000 318.000 137.000 304.000 C141.000 297.000 145.000 288.000 146.000 284.000 L148.000 276.000 L151.000 284.000 C152.000 289.000 156.000 298.000 158.000 304.000 C162.000 312.000 164.000 318.000 166.000 330.000 L168.000 344.000 L166.000 356.000 C165.000 362.000 164.000 371.000 164.000 376.000 C164.000 382.000 163.000 388.000 161.000 396.000 C156.000 417.000 152.000 437.000 147.000 480.000 C142.000 520.000 142.000 527.000 142.000 550.000 C143.000 576.000 144.000 586.000 151.000 608.000 C157.000 629.000 158.000 636.000 158.000 654.000 C158.000 668.000 158.000 672.000 155.000 686.000 C151.000 705.000 150.000 718.000 152.000 732.000 C153.000 744.000 154.000 748.000 162.000 782.000 C172.000 824.000 173.000 837.000 170.000 863.000 C169.000 873.000 169.000 875.000 165.000 883.000 C159.000 895.000 155.000 900.000 147.000 907.000 C143.000 911.000 141.000 914.000 140.000 917.000 C139.000 922.000 140.000 926.000 142.000 926.000 C143.000 926.000 144.000 927.000 145.000 928.000 C145.000 929.000 147.000 930.000 148.000 930.000 C148.000 930.000 150.000 931.000 152.000 932.000 C153.000 932.000 155.000 933.000 155.000 933.000 C156.000 932.000 158.000 933.000 160.000 934.000 C163.000 935.000 163.000 935.000 167.000 934.000 C169.000 932.000 171.000 932.000 172.000 933.000 C174.000 935.000 182.000 935.000 185.000 933.000 C186.000 932.000 189.000 929.000 191.000 927.000 C195.000 923.000 195.000 921.000 196.000 915.000 C197.000 909.000 197.000 909.000 201.000 905.000 C207.000 900.000 208.000 897.000 206.000 884.000 C205.000 875.000 205.000 872.000 206.000 868.000 C207.000 861.000 207.000 857.000 205.000 849.000 C201.000 832.000 205.000 792.000 215.000 760.000 C217.000 751.000 217.000 749.000 217.000 734.000 C217.000 720.000 217.000 716.000 215.000 704.000 C211.000 686.000 211.000 679.000 215.000 666.000 C220.000 653.000 220.000 648.000 222.000 626.000 C225.000 599.000 226.000 594.000 233.000 567.000 C241.000 533.000 243.000 521.000 244.000 501.000 C245.000 492.000 246.000 484.000 246.000 484.000 C246.000 484.000 247.000 491.000 247.000 499.000 C248.000 515.000 251.000 536.000 256.000 556.000 C258.000 563.000 260.000 574.000 262.000 581.000 C264.000 590.000 266.000 601.000 267.000 616.000 C270.000 644.000 271.000 653.000 275.000 666.000 C280.000 680.000 280.000 683.000 277.000 699.000 C271.000 729.000 271.000 742.000 278.000 767.000 C282.000 784.000 286.000 808.000 287.000 825.000 C287.000 837.000 287.000 841.000 285.000 850.000 C284.000 859.000 283.000 860.000 285.000 865.000 C286.000 868.000 286.000 873.000 286.000 876.000 C283.000 900.000 284.000 901.000 290.000 906.000 C294.000 908.000 294.000 909.000 294.000 913.000 C294.000 920.000 295.000 923.000 301.000 928.000 C306.000 934.000 312.000 936.000 317.000 934.000 C321.000 932.000 321.000 932.000 324.000 934.000 C327.000 935.000 328.000 935.000 330.000 934.000 C332.000 933.000 334.000 933.000 335.000 933.000 C336.000 933.000 337.000 932.000 339.000 932.000 C340.000 931.000 342.000 930.000 342.000 930.000 C344.000 930.000 351.000 923.000 351.000 922.000 C351.000 917.000 348.000 913.000 341.000 905.000 C335.000 899.000 332.000 895.000 327.000 886.000 C321.000 874.000 321.000 873.000 320.000 866.000 C320.000 861.000 320.000 855.000 319.000 852.000 C316.000 838.000 318.000 823.000 331.000 773.000 C338.000 741.000 339.000 733.000 339.000 714.000 C338.000 702.000 337.000 695.000 335.000 685.000 C333.000 674.000 333.000 670.000 333.000 654.000 C333.000 635.000 333.000 633.000 340.000 608.000 C349.000 574.000 351.000 550.000 346.000 508.000 C341.000 456.000 335.000 416.000 328.000 390.000 C328.000 388.000 327.000 382.000 327.000 376.000 C326.000 370.000 325.000 361.000 324.000 357.000 C324.000 352.000 323.000 346.000 323.000 343.000 C323.000 335.000 327.000 317.000 331.000 307.000 C333.000 301.000 336.000 293.000 338.000 289.000 C339.000 286.000 341.000 281.000 341.000 280.000 C342.000 278.000 342.000 279.000 345.000 287.000 C347.000 291.000 351.000 301.000 355.000 308.000 C360.000 319.000 361.000 323.000 362.000 329.000 C365.000 353.000 366.000 359.000 370.000 369.000 C374.000 383.000 379.000 392.000 389.000 407.000 C397.000 419.000 410.000 441.000 415.000 451.000 C418.000 458.000 418.000 459.000 419.000 471.000 C419.000 482.000 419.000 485.000 422.000 495.000 C424.000 501.000 428.000 513.000 430.000 521.000 C431.000 529.000 434.000 537.000 434.000 538.000 C436.000 544.000 443.000 543.000 443.000 537.000 C443.000 535.000 444.000 536.000 445.000 540.000 C448.000 549.000 449.000 551.000 452.000 552.000 C455.000 553.000 458.000 549.000 457.000 544.000 L457.000 540.000 L458.000 545.000 C460.000 550.000 463.000 553.000 466.000 553.000 C469.000 553.000 471.000 549.000 470.000 544.000 L470.000 540.000 L472.000 542.000 C475.000 545.000 475.000 545.000 478.000 542.000 C480.000 540.000 480.000 539.000 480.000 534.000 C479.000 531.000 477.000 521.000 475.000 513.000 C473.000 504.000 471.000 495.000 470.000 492.000 L470.000 487.000 L474.000 492.000 C478.000 496.000 482.000 498.000 487.000 497.000 C489.000 496.000 491.000 493.000 489.000 492.000 C484.000 484.000 478.000 474.000 475.000 470.000 C473.000 466.000 472.000 464.000 464.000 459.000 C459.000 456.000 454.000 453.000 453.000 452.000 C450.000 450.000 443.000 430.000 440.000 417.000 C438.000 411.000 436.000 398.000 435.000 388.000 C430.000 355.000 426.000 344.000 412.000 322.000 C407.000 315.000 402.000 307.000 402.000 304.000 C401.000 301.000 400.000 294.000 399.000 288.000 C398.000 273.000 396.000 266.000 391.000 255.000 L388.000 245.000 L389.000 230.000 C391.000 202.000 387.000 184.000 374.000 171.000 C366.000 163.000 356.000 159.000 341.000 158.000 C330.000 157.000 327.000 156.000 305.000 146.000 C281.000 134.000 281.000 133.000 281.000 111.000 C281.000 92.000 281.000 89.000 285.000 89.000 C288.000 88.000 295.000 70.000 295.000 62.000 C295.000 58.000 292.000 55.000 289.000 55.000 C287.000 56.000 287.000 55.000 287.000 45.000 C287.000 32.000 285.000 24.000 279.000 17.000 C270.000 4.000 251.000 -3.000 236.000 1.000 Z" fill="#3a3e3a"/>
  <g class="muscles">
    <path data-idx="0" d="M213.000 104.000 C213.000 105.000 213.000 109.000 214.000 115.000 C215.000 128.000 220.000 143.000 226.000 158.000 C231.000 169.000 232.000 170.000 235.000 172.000 C239.000 173.000 239.000 173.000 239.000 170.000 C238.000 167.000 239.000 167.000 240.000 170.000 C242.000 175.000 240.000 162.000 235.000 141.000 L229.000 120.000 L221.000 112.000 C217.000 108.000 213.000 104.000 213.000 104.000 Z" fill="#e74c3c"/>
    <path data-idx="1" d="M270.000 113.000 L262.000 121.000 L258.000 137.000 C256.000 145.000 254.000 153.000 255.000 154.000 C255.000 154.000 255.000 155.000 254.000 155.000 C253.000 155.000 253.000 156.000 254.000 157.000 C254.000 158.000 254.000 159.000 253.000 159.000 C252.000 159.000 252.000 160.000 252.000 165.000 C252.000 174.000 252.000 174.000 257.000 172.000 C259.000 171.000 261.000 169.000 263.000 163.000 C267.000 154.000 272.000 140.000 275.000 130.000 C276.000 125.000 278.000 105.000 278.000 104.000 C278.000 104.000 274.000 108.000 270.000 113.000 Z" fill="#2ecc71"/>
    <path data-idx="2" d="M236.000 126.000 C236.000 126.000 237.000 129.000 237.000 131.000 C238.000 134.000 240.000 144.000 241.000 152.000 C244.000 179.000 247.000 180.000 250.000 156.000 C251.000 152.000 252.000 143.000 253.000 137.000 C254.000 131.000 255.000 126.000 254.000 126.000 C254.000 125.000 247.000 129.000 246.000 130.000 L246.000 132.000 L245.000 130.000 C244.000 129.000 236.000 124.000 236.000 126.000 Z" fill="#3498db"/>
    <path data-idx="3" d="M281.000 141.000 C283.000 150.000 291.000 166.000 294.000 166.000 C295.000 166.000 299.000 165.000 302.000 164.000 C306.000 163.000 309.000 162.000 311.000 161.000 C312.000 161.000 314.000 161.000 316.000 161.000 C321.000 159.000 318.000 157.000 306.000 151.000 C299.000 147.000 291.000 143.000 287.000 140.000 L281.000 136.000 L281.000 141.000 Z" fill="#f39c12"/>
    <path data-idx="4" d="M205.000 140.000 C202.000 141.000 194.000 146.000 187.000 150.000 C169.000 159.000 169.000 159.000 177.000 161.000 C180.000 162.000 183.000 162.000 184.000 163.000 C187.000 164.000 189.000 165.000 195.000 166.000 C198.000 166.000 199.000 166.000 201.000 163.000 C203.000 161.000 205.000 156.000 206.000 152.000 C209.000 144.000 211.000 136.000 210.000 136.000 C210.000 136.000 207.000 138.000 205.000 140.000 Z" fill="#9b59b6"/>
    <path data-idx="5" d="M213.000 127.000 C212.000 128.000 212.000 133.000 212.000 138.000 C211.000 151.000 209.000 157.000 205.000 162.000 C203.000 164.000 202.000 166.000 203.000 166.000 C203.000 166.000 204.000 167.000 203.000 167.000 C203.000 168.000 203.000 168.000 204.000 168.000 C205.000 167.000 210.000 168.000 215.000 169.000 C226.000 170.000 227.000 170.000 227.000 168.000 C227.000 166.000 224.000 158.000 221.000 151.000 C219.000 148.000 216.000 137.000 214.000 129.000 C214.000 127.000 213.000 126.000 213.000 127.000 Z" fill="#1abc9c"/>
    <path data-idx="6" d="M277.000 128.000 C276.000 130.000 275.000 134.000 274.000 139.000 C273.000 144.000 270.000 152.000 268.000 157.000 C263.000 170.000 263.000 170.000 269.000 170.000 C271.000 169.000 277.000 169.000 281.000 168.000 C291.000 168.000 291.000 167.000 286.000 162.000 C280.000 156.000 279.000 152.000 278.000 138.000 C278.000 132.000 277.000 127.000 277.000 128.000 Z" fill="#e67e22"/>
    <path data-idx="7" d="M340.000 160.000 C340.000 160.000 341.000 161.000 342.000 162.000 C344.000 163.000 343.000 163.000 337.000 163.000 C327.000 163.000 322.000 165.000 321.000 169.000 C321.000 171.000 323.000 173.000 328.000 178.000 C332.000 182.000 339.000 190.000 342.000 195.000 C350.000 208.000 354.000 212.000 364.000 221.000 C372.000 227.000 379.000 236.000 382.000 241.000 C384.000 244.000 384.000 244.000 385.000 242.000 C385.000 241.000 386.000 240.000 386.000 240.000 C387.000 239.000 387.000 232.000 387.000 219.000 C387.000 200.000 387.000 199.000 385.000 191.000 C380.000 177.000 369.000 166.000 357.000 162.000 C349.000 160.000 340.000 158.000 340.000 160.000 Z" fill="#16a085"/>
    <path data-idx="8" d="M141.000 161.000 C132.000 162.000 124.000 166.000 118.000 172.000 C111.000 179.000 108.000 185.000 105.000 196.000 C103.000 203.000 103.000 205.000 103.000 220.000 C103.000 231.000 103.000 238.000 104.000 238.000 C104.000 238.000 105.000 240.000 106.000 241.000 C106.000 243.000 107.000 244.000 107.000 244.000 C107.000 244.000 109.000 241.000 111.000 238.000 C113.000 234.000 118.000 228.000 127.000 221.000 C136.000 212.000 141.000 206.000 148.000 196.000 C157.000 184.000 160.000 180.000 169.000 172.000 C172.000 170.000 172.000 170.000 171.000 168.000 C169.000 165.000 164.000 163.000 155.000 163.000 C149.000 163.000 148.000 163.000 149.000 162.000 C151.000 160.000 151.000 159.000 149.000 159.000 C149.000 159.000 145.000 160.000 141.000 161.000 Z" fill="#2980b9"/>
    <path data-idx="9" d="M287.000 172.000 C273.000 175.000 267.000 176.000 262.000 180.000 C252.000 186.000 250.000 194.000 250.000 222.000 C250.000 240.000 251.000 242.000 253.000 246.000 C256.000 251.000 262.000 256.000 269.000 259.000 C277.000 262.000 296.000 263.000 306.000 260.000 C320.000 256.000 332.000 245.000 340.000 228.000 C344.000 221.000 346.000 218.000 348.000 216.000 C350.000 216.000 351.000 215.000 351.000 215.000 C351.000 214.000 350.000 212.000 348.000 210.000 C346.000 208.000 342.000 202.000 339.000 197.000 C332.000 187.000 323.000 177.000 316.000 174.000 C309.000 170.000 300.000 170.000 287.000 172.000 Z" fill="#c0392b"/>
    <path data-idx="10" d="M180.000 172.000 C169.000 176.000 161.000 183.000 150.000 199.000 C147.000 204.000 143.000 210.000 142.000 212.000 C139.000 215.000 139.000 216.000 141.000 216.000 C144.000 216.000 145.000 218.000 148.000 224.000 C152.000 234.000 164.000 251.000 166.000 249.000 C167.000 249.000 168.000 250.000 168.000 251.000 C169.000 252.000 170.000 253.000 170.000 253.000 C171.000 253.000 172.000 254.000 173.000 255.000 C174.000 256.000 179.000 258.000 183.000 260.000 C194.000 263.000 209.000 263.000 219.000 260.000 C231.000 256.000 238.000 250.000 240.000 242.000 C242.000 237.000 242.000 212.000 241.000 203.000 C239.000 184.000 232.000 178.000 210.000 173.000 C193.000 170.000 187.000 170.000 180.000 172.000 Z" fill="#27ae60"/>
    <path data-idx="11" d="M351.000 224.000 C349.000 227.000 348.000 248.000 348.000 258.000 C350.000 283.000 358.000 307.000 372.000 322.000 C379.000 329.000 383.000 331.000 387.000 330.000 C388.000 330.000 390.000 330.000 390.000 330.000 C391.000 331.000 392.000 325.000 393.000 316.000 C397.000 278.000 381.000 235.000 360.000 224.000 C354.000 222.000 352.000 221.000 351.000 224.000 Z" fill="#8e44ad"/>
    <path data-idx="12" d="M130.000 225.000 C124.000 228.000 115.000 238.000 110.000 247.000 C101.000 265.000 97.000 282.000 97.000 303.000 C97.000 324.000 99.000 331.000 105.000 331.000 C114.000 331.000 129.000 311.000 136.000 289.000 C141.000 275.000 142.000 263.000 142.000 246.000 C141.000 227.000 140.000 223.000 136.000 223.000 C135.000 223.000 132.000 224.000 130.000 225.000 Z" fill="#d35400"/>
    <path data-idx="13" d="M227.000 262.000 C221.000 263.000 212.000 266.000 210.000 268.000 C205.000 271.000 203.000 278.000 202.000 288.000 C202.000 298.000 203.000 304.000 206.000 304.000 C207.000 305.000 211.000 304.000 214.000 303.000 C218.000 302.000 224.000 300.000 229.000 299.000 C240.000 297.000 241.000 297.000 242.000 294.000 C243.000 291.000 243.000 270.000 242.000 267.000 C240.000 262.000 238.000 261.000 233.000 261.000 C231.000 261.000 228.000 261.000 227.000 262.000 Z" fill="#f1c40f"/>
    <path data-idx="14" d="M252.000 263.000 C249.000 265.000 248.000 270.000 248.000 282.000 C248.000 292.000 249.000 297.000 252.000 297.000 C253.000 298.000 261.000 299.000 269.000 300.000 C270.000 301.000 272.000 301.000 273.000 302.000 C278.000 304.000 284.000 305.000 285.000 304.000 C288.000 303.000 289.000 299.000 289.000 292.000 C289.000 274.000 285.000 268.000 272.000 264.000 C262.000 261.000 255.000 260.000 252.000 263.000 Z" fill="#34495e"/>
    <path data-idx="15" d="M250.000 303.000 C248.000 304.000 248.000 307.000 248.000 316.000 C248.000 330.000 249.000 332.000 257.000 332.000 C259.000 332.000 266.000 333.000 272.000 333.000 C286.000 336.000 286.000 336.000 288.000 332.000 C289.000 327.000 289.000 318.000 288.000 313.000 C286.000 309.000 284.000 308.000 272.000 305.000 C257.000 301.000 252.000 300.000 250.000 303.000 Z" fill="#7f8c8d"/>
    <path data-idx="16" d="M220.000 305.000 C212.000 307.000 206.000 309.000 205.000 310.000 C200.000 316.000 201.000 333.000 206.000 335.000 C208.000 335.000 211.000 335.000 215.000 334.000 C219.000 334.000 225.000 333.000 230.000 332.000 C243.000 331.000 243.000 331.000 243.000 316.000 C243.000 310.000 243.000 304.000 242.000 303.000 C240.000 300.000 236.000 300.000 220.000 305.000 Z" fill="#e84393"/>
    <path data-idx="17" d="M330.000 249.000 C325.000 254.000 321.000 257.000 315.000 260.000 C311.000 262.000 307.000 264.000 307.000 264.000 C307.000 265.000 306.000 265.000 305.000 265.000 C303.000 264.000 297.000 266.000 296.000 268.000 C295.000 271.000 295.000 275.000 296.000 280.000 C298.000 285.000 298.000 286.000 296.000 293.000 C295.000 298.000 295.000 302.000 296.000 306.000 C297.000 314.000 297.000 325.000 296.000 336.000 C295.000 343.000 295.000 346.000 296.000 352.000 C298.000 362.000 298.000 367.000 297.000 378.000 C296.000 383.000 295.000 390.000 295.000 393.000 C295.000 404.000 298.000 405.000 309.000 398.000 C316.000 393.000 323.000 386.000 324.000 381.000 C326.000 375.000 325.000 368.000 323.000 354.000 C320.000 340.000 320.000 338.000 321.000 335.000 C323.000 331.000 325.000 322.000 324.000 320.000 C324.000 320.000 324.000 319.000 325.000 318.000 C325.000 317.000 326.000 313.000 327.000 309.000 C327.000 306.000 328.000 300.000 329.000 296.000 C330.000 292.000 331.000 287.000 332.000 284.000 L333.000 279.000 L333.000 284.000 C333.000 286.000 332.000 291.000 332.000 294.000 C331.000 297.000 330.000 301.000 330.000 302.000 L330.000 305.000 L332.000 302.000 C332.000 300.000 335.000 293.000 337.000 287.000 C341.000 276.000 341.000 276.000 341.000 264.000 C340.000 249.000 339.000 243.000 338.000 243.000 C337.000 242.000 333.000 245.000 330.000 249.000 Z" fill="#00b894"/>
    <path data-idx="18" d="M151.000 244.000 C150.000 246.000 150.000 279.000 151.000 279.000 C152.000 279.000 152.000 280.000 152.000 280.000 C152.000 281.000 153.000 285.000 155.000 289.000 L158.000 297.000 L158.000 289.000 C158.000 280.000 159.000 280.000 160.000 282.000 C163.000 285.000 163.000 287.000 161.000 284.000 L159.000 282.000 L159.000 289.000 C160.000 299.000 162.000 306.000 164.000 307.000 C165.000 307.000 166.000 309.000 166.000 318.000 C167.000 326.000 167.000 331.000 169.000 335.000 C171.000 340.000 171.000 342.000 170.000 344.000 C170.000 346.000 168.000 351.000 168.000 355.000 C163.000 377.000 164.000 382.000 175.000 392.000 C185.000 401.000 193.000 404.000 195.000 400.000 C196.000 397.000 196.000 388.000 195.000 378.000 C193.000 367.000 193.000 361.000 195.000 352.000 C196.000 347.000 196.000 343.000 196.000 334.000 C195.000 321.000 195.000 316.000 196.000 305.000 C196.000 299.000 196.000 295.000 195.000 291.000 C194.000 287.000 194.000 285.000 195.000 282.000 C197.000 276.000 196.000 269.000 194.000 267.000 C193.000 266.000 191.000 265.000 190.000 265.000 C189.000 265.000 187.000 265.000 187.000 265.000 C186.000 265.000 185.000 264.000 185.000 264.000 C185.000 264.000 183.000 263.000 181.000 262.000 C174.000 260.000 166.000 254.000 160.000 249.000 C155.000 244.000 153.000 242.000 151.000 244.000 Z" fill="#fdcb6e"/>
    <path data-idx="19" d="M250.000 337.000 C248.000 338.000 248.000 341.000 248.000 352.000 C248.000 366.000 249.000 370.000 253.000 371.000 C254.000 371.000 262.000 371.000 270.000 370.000 C284.000 370.000 284.000 369.000 286.000 367.000 C288.000 364.000 289.000 362.000 289.000 354.000 C289.000 344.000 289.000 343.000 287.000 340.000 C284.000 338.000 284.000 338.000 272.000 336.000 C255.000 335.000 251.000 335.000 250.000 337.000 Z" fill="#6c5ce7"/>
    <path data-idx="20" d="M220.000 336.000 C207.000 337.000 206.000 338.000 204.000 342.000 C201.000 347.000 202.000 363.000 205.000 367.000 C207.000 369.000 207.000 370.000 221.000 370.000 C238.000 371.000 240.000 371.000 242.000 368.000 C244.000 364.000 244.000 339.000 242.000 337.000 C241.000 335.000 235.000 335.000 220.000 336.000 Z" fill="#fab1a0"/>
    <path data-idx="21" d="M86.000 316.000 C76.000 326.000 66.000 346.000 62.000 361.000 C60.000 370.000 56.000 392.000 56.000 403.000 C55.000 415.000 50.000 435.000 46.000 442.000 C45.000 444.000 45.000 445.000 47.000 446.000 C49.000 448.000 49.000 448.000 51.000 445.000 C55.000 439.000 87.000 373.000 91.000 362.000 C95.000 350.000 95.000 326.000 91.000 314.000 C91.000 311.000 90.000 312.000 86.000 316.000 Z" fill="#55efc4"/>
    <path data-idx="22" d="M399.000 316.000 C396.000 328.000 395.000 345.000 397.000 355.000 C399.000 365.000 403.000 372.000 422.000 412.000 L440.000 448.000 L443.000 447.000 C444.000 446.000 445.000 445.000 444.000 444.000 C440.000 433.000 435.000 413.000 435.000 406.000 C435.000 402.000 431.000 374.000 430.000 367.000 C429.000 365.000 429.000 362.000 429.000 360.000 C428.000 359.000 428.000 358.000 427.000 356.000 C427.000 355.000 425.000 351.000 424.000 347.000 C422.000 343.000 418.000 335.000 415.000 330.000 C408.000 319.000 408.000 319.000 404.000 315.000 L400.000 312.000 L399.000 316.000 Z" fill="#ffeaa7"/>
    <path data-idx="23" d="M116.000 340.000 C110.000 343.000 105.000 348.000 101.000 353.000 C99.000 356.000 93.000 368.000 87.000 380.000 C82.000 392.000 72.000 412.000 66.000 424.000 C60.000 436.000 55.000 447.000 55.000 448.000 C55.000 450.000 59.000 452.000 60.000 450.000 C60.000 450.000 64.000 445.000 67.000 440.000 C75.000 429.000 80.000 422.000 95.000 405.000 C109.000 388.000 114.000 381.000 118.000 370.000 C124.000 352.000 126.000 339.000 122.000 338.000 C121.000 338.000 119.000 339.000 116.000 340.000 Z" fill="#a29bfe"/>
    <path data-idx="24" d="M366.000 341.000 C365.000 343.000 365.000 345.000 366.000 351.000 C367.000 355.000 368.000 359.000 367.000 359.000 C367.000 359.000 367.000 360.000 368.000 360.000 C368.000 360.000 370.000 364.000 371.000 369.000 C375.000 379.000 382.000 391.000 392.000 402.000 C406.000 418.000 414.000 428.000 422.000 440.000 C427.000 446.000 431.000 452.000 431.000 452.000 C431.000 452.000 433.000 451.000 434.000 450.000 L436.000 448.000 L422.000 421.000 C415.000 406.000 405.000 386.000 401.000 377.000 C391.000 356.000 387.000 348.000 379.000 343.000 C376.000 341.000 372.000 339.000 371.000 339.000 C371.000 339.000 370.000 339.000 369.000 338.000 C368.000 338.000 367.000 339.000 366.000 341.000 Z" fill="#74b9ff"/>
    <path data-idx="25" d="M205.000 375.000 C203.000 377.000 202.000 386.000 205.000 396.000 C211.000 419.000 228.000 461.000 234.000 468.000 C235.000 469.000 237.000 470.000 239.000 470.000 C243.000 470.000 243.000 469.000 244.000 427.000 C244.000 385.000 244.000 380.000 241.000 377.000 C240.000 375.000 238.000 375.000 223.000 375.000 C211.000 374.000 207.000 374.000 205.000 375.000 Z" fill="#ff7675"/>
    <path data-idx="26" d="M279.000 374.000 C278.000 374.000 272.000 374.000 265.000 375.000 C253.000 375.000 252.000 375.000 250.000 378.000 L248.000 380.000 L248.000 423.000 C248.000 451.000 248.000 467.000 249.000 468.000 C250.000 471.000 255.000 471.000 258.000 468.000 C260.000 465.000 265.000 456.000 271.000 441.000 C289.000 395.000 293.000 376.000 282.000 373.000 C281.000 373.000 279.000 373.000 279.000 374.000 Z" fill="#81ecec"/>
    <path data-idx="27" d="M164.000 395.000 C160.000 399.000 152.000 449.000 151.000 473.000 L150.000 487.000 L154.000 476.000 C156.000 470.000 161.000 458.000 164.000 449.000 C174.000 424.000 179.000 413.000 179.000 408.000 C180.000 404.000 180.000 404.000 176.000 401.000 C171.000 397.000 169.000 396.000 170.000 398.000 C171.000 399.000 171.000 401.000 170.000 401.000 C169.000 404.000 168.000 403.000 168.000 398.000 C167.000 393.000 166.000 392.000 164.000 395.000 Z" fill="#dfe6e9"/>
    <path data-idx="28" d="M323.000 395.000 C322.000 395.000 322.000 397.000 322.000 399.000 C322.000 401.000 322.000 401.000 321.000 399.000 C320.000 398.000 319.000 397.000 319.000 397.000 C317.000 397.000 311.000 404.000 311.000 406.000 C311.000 409.000 318.000 430.000 326.000 448.000 C329.000 456.000 333.000 468.000 336.000 474.000 C338.000 480.000 340.000 485.000 340.000 485.000 C342.000 487.000 340.000 462.000 338.000 445.000 C334.000 425.000 329.000 399.000 327.000 396.000 C326.000 393.000 324.000 392.000 323.000 395.000 Z" fill="#fd79a8"/>
    <path data-idx="29" d="M302.000 412.000 C296.000 419.000 285.000 436.000 285.000 438.000 C285.000 439.000 284.000 441.000 282.000 443.000 C280.000 445.000 279.000 447.000 280.000 447.000 C280.000 448.000 279.000 448.000 279.000 449.000 C278.000 449.000 277.000 450.000 278.000 450.000 C278.000 451.000 278.000 451.000 277.000 451.000 C276.000 451.000 273.000 457.000 272.000 459.000 C272.000 460.000 264.000 472.000 260.000 477.000 C258.000 479.000 255.000 481.000 253.000 482.000 L250.000 483.000 L250.000 500.000 C250.000 513.000 251.000 521.000 252.000 529.000 C254.000 544.000 263.000 579.000 265.000 584.000 C265.000 586.000 266.000 589.000 266.000 591.000 C266.000 593.000 266.000 595.000 267.000 595.000 C267.000 596.000 268.000 589.000 268.000 581.000 C269.000 564.000 272.000 541.000 277.000 521.000 C279.000 513.000 281.000 506.000 281.000 505.000 C281.000 504.000 282.000 503.000 282.000 502.000 C282.000 502.000 285.000 493.000 289.000 483.000 C292.000 473.000 297.000 459.000 299.000 452.000 C302.000 445.000 305.000 434.000 306.000 429.000 C308.000 419.000 309.000 407.000 307.000 407.000 C307.000 407.000 304.000 409.000 302.000 412.000 Z" fill="#00cec9"/>
    <path data-idx="30" d="M184.000 408.000 C183.000 409.000 183.000 418.000 184.000 427.000 C185.000 432.000 188.000 443.000 191.000 452.000 C214.000 517.000 221.000 545.000 223.000 584.000 C223.000 591.000 224.000 596.000 224.000 594.000 C225.000 593.000 225.000 591.000 225.000 589.000 C225.000 587.000 225.000 585.000 226.000 585.000 C227.000 584.000 230.000 572.000 236.000 545.000 C240.000 529.000 240.000 528.000 241.000 506.000 L241.000 484.000 L236.000 481.000 C232.000 478.000 221.000 464.000 222.000 463.000 C222.000 462.000 222.000 462.000 221.000 462.000 C221.000 462.000 220.000 461.000 219.000 459.000 C219.000 457.000 218.000 456.000 217.000 456.000 C216.000 456.000 216.000 456.000 216.000 455.000 C217.000 455.000 216.000 454.000 215.000 454.000 C215.000 453.000 214.000 453.000 214.000 452.000 C215.000 451.000 215.000 451.000 214.000 451.000 C213.000 451.000 213.000 450.000 213.000 450.000 C213.000 447.000 187.000 407.000 185.000 407.000 C185.000 407.000 184.000 407.000 184.000 408.000 Z" fill="#b2bec3"/>
    <path data-idx="31" d="M174.000 436.000 C161.000 468.000 153.000 494.000 150.000 518.000 C148.000 534.000 149.000 569.000 151.000 582.000 C155.000 598.000 162.000 620.000 164.000 620.000 C165.000 620.000 165.000 620.000 165.000 621.000 C164.000 621.000 169.000 634.000 170.000 635.000 C170.000 635.000 172.000 633.000 174.000 631.000 C181.000 623.000 187.000 622.000 194.000 629.000 C201.000 636.000 206.000 638.000 211.000 633.000 C217.000 629.000 218.000 623.000 217.000 597.000 C217.000 553.000 213.000 532.000 193.000 469.000 C186.000 449.000 180.000 431.000 180.000 429.000 C180.000 424.000 178.000 426.000 174.000 436.000 Z" fill="#636e72"/>
    <path data-idx="32" d="M311.000 429.000 C310.000 431.000 305.000 450.000 298.000 469.000 C282.000 519.000 278.000 534.000 274.000 563.000 C273.000 579.000 273.000 614.000 274.000 621.000 C276.000 631.000 280.000 636.000 286.000 636.000 C289.000 636.000 294.000 633.000 296.000 630.000 C298.000 627.000 303.000 624.000 306.000 624.000 C309.000 624.000 314.000 627.000 318.000 632.000 L321.000 637.000 L324.000 629.000 C326.000 624.000 328.000 618.000 329.000 615.000 C333.000 608.000 337.000 595.000 339.000 581.000 C342.000 563.000 342.000 530.000 339.000 512.000 C335.000 489.000 328.000 463.000 317.000 436.000 L312.000 425.000 L311.000 429.000 Z" fill="#d63031"/>
    <path data-idx="33" d="M303.000 629.000 C301.000 630.000 298.000 632.000 296.000 635.000 C290.000 640.000 287.000 641.000 283.000 640.000 C281.000 639.000 279.000 638.000 279.000 637.000 C275.000 632.000 276.000 645.000 279.000 658.000 C280.000 663.000 284.000 672.000 287.000 680.000 C294.000 696.000 299.000 713.000 302.000 729.000 C305.000 740.000 306.000 743.000 306.000 740.000 C306.000 735.000 310.000 705.000 312.000 698.000 C313.000 693.000 316.000 684.000 318.000 678.000 C322.000 667.000 322.000 666.000 322.000 656.000 C322.000 646.000 322.000 645.000 320.000 640.000 C314.000 631.000 307.000 626.000 303.000 629.000 Z" fill="#0984e3"/>
    <path data-idx="34" d="M180.000 629.000 C177.000 631.000 172.000 638.000 169.000 644.000 C168.000 646.000 168.000 650.000 168.000 655.000 C168.000 663.000 168.000 665.000 173.000 678.000 C178.000 694.000 181.000 707.000 184.000 728.000 C184.000 735.000 185.000 741.000 185.000 741.000 C186.000 741.000 187.000 734.000 190.000 725.000 C192.000 716.000 193.000 708.000 194.000 708.000 C194.000 708.000 194.000 707.000 194.000 706.000 C195.000 705.000 196.000 702.000 197.000 699.000 C198.000 696.000 201.000 688.000 204.000 680.000 C207.000 673.000 210.000 664.000 211.000 660.000 C213.000 653.000 215.000 636.000 213.000 637.000 C205.000 641.000 205.000 641.000 200.000 639.000 C198.000 638.000 195.000 636.000 195.000 634.000 C193.000 631.000 187.000 628.000 185.000 628.000 C183.000 628.000 181.000 629.000 180.000 629.000 Z" fill="#e17055"/>
    <path data-idx="35" d="M160.000 673.000 C158.000 677.000 153.000 702.000 153.000 712.000 C152.000 720.000 153.000 736.000 155.000 746.000 C157.000 758.000 167.000 799.000 168.000 800.000 C170.000 803.000 174.000 826.000 175.000 838.000 C176.000 845.000 176.000 851.000 177.000 851.000 C177.000 851.000 178.000 850.000 180.000 849.000 C185.000 847.000 185.000 846.000 185.000 831.000 C184.000 824.000 183.000 799.000 182.000 775.000 C180.000 733.000 179.000 717.000 175.000 701.000 C172.000 687.000 165.000 669.000 162.000 669.000 C162.000 669.000 161.000 671.000 160.000 673.000 Z" fill="#00b894"/>
    <path data-idx="36" d="M326.000 672.000 C320.000 682.000 315.000 700.000 313.000 719.000 C310.000 738.000 304.000 843.000 306.000 846.000 C306.000 848.000 311.000 851.000 314.000 851.000 C314.000 851.000 315.000 846.000 315.000 839.000 C316.000 828.000 320.000 806.000 321.000 805.000 C322.000 805.000 322.000 804.000 321.000 803.000 C321.000 803.000 321.000 802.000 322.000 801.000 C322.000 800.000 323.000 799.000 323.000 798.000 C323.000 798.000 325.000 788.000 328.000 775.000 C336.000 746.000 337.000 739.000 338.000 724.000 C338.000 707.000 335.000 682.000 330.000 672.000 L328.000 668.000 L326.000 672.000 Z" fill="#e74c3c"/>
    <path data-idx="37" d="M282.000 686.000 C282.000 686.000 281.000 689.000 281.000 690.000 C280.000 692.000 278.000 699.000 277.000 705.000 C275.000 715.000 275.000 721.000 275.000 734.000 C275.000 750.000 275.000 751.000 278.000 764.000 C280.000 771.000 282.000 778.000 283.000 779.000 C283.000 783.000 284.000 785.000 285.000 789.000 C288.000 801.000 289.000 817.000 289.000 832.000 C289.000 841.000 290.000 849.000 290.000 849.000 C290.000 849.000 292.000 848.000 293.000 847.000 C297.000 844.000 299.000 833.000 301.000 796.000 C303.000 756.000 300.000 724.000 291.000 700.000 C286.000 687.000 282.000 681.000 282.000 686.000 Z" fill="#2ecc71"/>
    <path data-idx="38" d="M205.000 690.000 C197.000 705.000 192.000 726.000 190.000 748.000 C188.000 773.000 190.000 832.000 194.000 844.000 C195.000 846.000 198.000 849.000 200.000 849.000 C201.000 849.000 201.000 842.000 201.000 834.000 C201.000 819.000 203.000 800.000 206.000 790.000 C206.000 787.000 207.000 784.000 207.000 782.000 C208.000 781.000 208.000 779.000 208.000 778.000 C209.000 777.000 210.000 771.000 212.000 765.000 C216.000 751.000 217.000 736.000 217.000 727.000 C216.000 717.000 211.000 693.000 210.000 689.000 C209.000 688.000 208.000 686.000 208.000 685.000 C208.000 684.000 206.000 686.000 205.000 690.000 Z" fill="#3498db"/>
    <path data-idx="39" d="M196.000 877.000 C193.000 885.000 192.000 904.000 194.000 906.000 C195.000 907.000 200.000 903.000 201.000 900.000 C203.000 897.000 202.000 890.000 200.000 883.000 C198.000 876.000 196.000 874.000 196.000 877.000 Z" fill="#f39c12"/>
    <path data-idx="40" d="M181.000 868.000 C180.000 870.000 179.000 870.000 179.000 869.000 C178.000 868.000 177.000 869.000 175.000 871.000 C171.000 875.000 169.000 879.000 163.000 888.000 C160.000 895.000 157.000 899.000 151.000 904.000 C144.000 911.000 142.000 915.000 144.000 917.000 C145.000 917.000 147.000 916.000 149.000 913.000 C154.000 908.000 155.000 908.000 151.000 913.000 C147.000 918.000 146.000 919.000 150.000 920.000 C151.000 920.000 153.000 919.000 156.000 915.000 C158.000 912.000 160.000 910.000 160.000 910.000 C160.000 910.000 160.000 911.000 156.000 917.000 C153.000 920.000 153.000 921.000 154.000 922.000 C157.000 924.000 159.000 923.000 163.000 917.000 C165.000 913.000 167.000 910.000 167.000 910.000 C167.000 911.000 166.000 914.000 163.000 917.000 C160.000 923.000 160.000 924.000 164.000 925.000 C166.000 926.000 167.000 925.000 171.000 919.000 C176.000 912.000 178.000 909.000 181.000 895.000 C187.000 869.000 188.000 864.000 181.000 868.000 Z M180.000 877.000 C179.000 880.000 176.000 886.000 174.000 891.000 C172.000 896.000 171.000 900.000 170.000 900.000 C170.000 899.000 179.000 875.000 181.000 872.000 C183.000 870.000 183.000 871.000 180.000 877.000 Z M175.000 876.000 C174.000 878.000 173.000 880.000 172.000 880.000 C172.000 880.000 174.000 876.000 175.000 874.000 C177.000 872.000 177.000 873.000 175.000 876.000 Z M167.000 892.000 C164.000 898.000 162.000 901.000 163.000 900.000 C163.000 897.000 171.000 881.000 172.000 881.000 C172.000 881.000 170.000 886.000 167.000 892.000 Z M169.000 904.000 C169.000 906.000 169.000 907.000 168.000 907.000 C168.000 906.000 168.000 905.000 169.000 904.000 C169.000 902.000 169.000 901.000 170.000 901.000 C170.000 902.000 170.000 903.000 169.000 904.000 Z" fill="#9b59b6"/>
    <path data-idx="41" d="M304.000 868.000 C303.000 868.000 303.000 870.000 303.000 871.000 C303.000 874.000 303.000 874.000 304.000 872.000 C304.000 871.000 305.000 871.000 305.000 871.000 C305.000 872.000 307.000 881.000 309.000 891.000 C313.000 907.000 318.000 920.000 320.000 920.000 C320.000 920.000 321.000 921.000 322.000 923.000 C323.000 926.000 324.000 926.000 327.000 926.000 C329.000 925.000 330.000 925.000 331.000 925.000 C331.000 924.000 330.000 922.000 329.000 920.000 L326.000 915.000 L329.000 919.000 C332.000 922.000 333.000 923.000 335.000 923.000 C335.000 922.000 337.000 922.000 338.000 923.000 C339.000 925.000 339.000 923.000 338.000 921.000 C337.000 920.000 335.000 918.000 333.000 915.000 C331.000 912.000 331.000 912.000 335.000 916.000 C339.000 920.000 340.000 921.000 342.000 920.000 C344.000 920.000 345.000 918.000 343.000 916.000 C342.000 915.000 342.000 915.000 343.000 916.000 C345.000 917.000 347.000 917.000 347.000 916.000 C348.000 914.000 340.000 904.000 339.000 905.000 C338.000 905.000 333.000 899.000 333.000 897.000 C333.000 897.000 332.000 896.000 331.000 895.000 C330.000 894.000 329.000 892.000 330.000 892.000 C330.000 891.000 330.000 891.000 329.000 891.000 C328.000 891.000 328.000 891.000 328.000 890.000 C329.000 890.000 329.000 889.000 328.000 889.000 C328.000 889.000 326.000 886.000 325.000 883.000 C323.000 881.000 321.000 878.000 321.000 878.000 C321.000 878.000 319.000 876.000 318.000 874.000 C314.000 869.000 306.000 865.000 304.000 868.000 Z M311.000 875.000 C314.000 881.000 319.000 896.000 319.000 897.000 C319.000 897.000 317.000 893.000 316.000 889.000 C314.000 884.000 311.000 878.000 310.000 875.000 C308.000 872.000 307.000 869.000 307.000 869.000 C308.000 869.000 309.000 872.000 311.000 875.000 Z M323.000 887.000 C324.000 890.000 325.000 892.000 325.000 893.000 C325.000 893.000 323.000 890.000 322.000 887.000 C320.000 884.000 319.000 882.000 319.000 882.000 C320.000 882.000 321.000 884.000 323.000 887.000 Z M321.000 903.000 C321.000 904.000 321.000 904.000 320.000 902.000 C320.000 901.000 319.000 900.000 319.000 899.000 C319.000 898.000 319.000 898.000 320.000 899.000 C320.000 901.000 321.000 902.000 321.000 903.000 Z M325.000 913.000 C325.000 914.000 324.000 913.000 324.000 912.000 C323.000 911.000 322.000 909.000 322.000 908.000 C322.000 908.000 323.000 909.000 324.000 910.000 C324.000 911.000 325.000 913.000 325.000 913.000 Z" fill="#1abc9c"/>
    <path data-idx="42" d="M189.000 869.000 C189.000 870.000 187.000 874.000 186.000 878.000 C185.000 883.000 184.000 889.000 183.000 892.000 C182.000 896.000 181.000 898.000 182.000 898.000 C183.000 900.000 183.000 901.000 182.000 900.000 C180.000 900.000 180.000 900.000 180.000 902.000 C180.000 903.000 180.000 904.000 181.000 903.000 C182.000 903.000 182.000 904.000 181.000 905.000 C180.000 906.000 178.000 910.000 178.000 913.000 C177.000 917.000 175.000 920.000 174.000 921.000 C172.000 923.000 173.000 924.000 178.000 925.000 C182.000 926.000 183.000 925.000 186.000 920.000 C186.000 919.000 187.000 917.000 188.000 917.000 C192.000 918.000 192.000 915.000 193.000 898.000 C193.000 891.000 193.000 881.000 193.000 877.000 C194.000 871.000 194.000 870.000 192.000 869.000 C190.000 867.000 190.000 867.000 189.000 869.000 Z" fill="#e67e22"/>
    <path data-idx="43" d="M297.000 871.000 C295.000 874.000 296.000 904.000 298.000 910.000 C299.000 916.000 301.000 918.000 302.000 917.000 C303.000 917.000 304.000 918.000 305.000 920.000 C307.000 925.000 309.000 927.000 314.000 925.000 C316.000 924.000 318.000 923.000 318.000 923.000 C318.000 921.000 316.000 917.000 316.000 919.000 C316.000 921.000 314.000 919.000 313.000 915.000 C312.000 912.000 311.000 908.000 310.000 905.000 C308.000 903.000 307.000 898.000 306.000 894.000 C302.000 872.000 300.000 866.000 297.000 871.000 Z" fill="#16a085"/>
  </g>
  <g class="labels" font-family="monospace" font-size="8" font-weight="bold" fill="#000" stroke="#fff" stroke-width="0.3" paint-order="stroke" text-anchor="middle">
    <text x="226.4" y="139.4">0</text>
    <text x="263.9" y="139.5">1</text>
    <text x="245.3" y="144.4">2</text>
    <text x="296.6" y="153.3">3</text>
    <text x="193.5" y="153.7">4</text>
    <text x="214.9" y="155.3">5</text>
    <text x="275.1" y="156.5">6</text>
    <text x="360.8" y="192.5">7</text>
    <text x="129.0" y="192.6">8</text>
    <text x="294.2" y="215.8">9</text>
    <text x="195.9" y="215.9">10</text>
    <text x="370.3" y="276.2">11</text>
    <text x="118.8" y="276.4">12</text>
    <text x="222.4" y="282.2">13</text>
    <text x="267.8" y="282.2">14</text>
    <text x="267.2" y="318.1">15</text>
    <text x="222.9" y="318.1">16</text>
    <text x="313.1" y="318.4">17</text>
    <text x="176.9" y="318.6">18</text>
    <text x="267.3" y="352.7">19</text>
    <text x="223.1" y="352.7">20</text>
    <text x="72.3" y="371.3">21</text>
    <text x="417.0" y="371.6">22</text>
    <text x="94.2" y="386.6">23</text>
    <text x="394.6" y="386.6">24</text>
    <text x="227.2" y="412.7">25</text>
    <text x="263.5" y="412.7">26</text>
    <text x="162.9" y="429.8">27</text>
    <text x="326.8" y="429.9">28</text>
    <text x="273.7" y="492.2">29</text>
    <text x="216.2" y="492.5">30</text>
    <text x="181.9" y="547.0">31</text>
    <text x="307.7" y="547.1">32</text>
    <text x="301.2" y="668.4">33</text>
    <text x="188.4" y="668.4">34</text>
    <text x="169.1" y="751.9">35</text>
    <text x="320.3" y="752.1">36</text>
    <text x="288.8" y="758.5">37</text>
    <text x="200.7" y="759.1">38</text>
    <text x="196.7" y="891.3">39</text>
    <text x="167.2" y="899.1">40</text>
    <text x="322.9" y="899.3">41</text>
    <text x="185.5" y="900.3">42</text>
    <text x="303.1" y="900.7">43</text>
  </g>
</svg>