<svg xmlns="http://www.w3.org/2000/svg" viewBox="0 0 200 520">
  <path id="body" d="M96.327 0.556 C91.020 2.225 86.939 7.230 84.898 13.348 C83.673 16.684 83.673 17.797 83.265 23.914 C83.265 30.032 83.265 30.588 82.449 30.588 C82.041 30.588 81.224 31.144 80.816 31.701 C79.592 33.369 79.592 36.706 81.633 43.380 C82.857 47.829 84.082 50.053 84.898 49.497 C85.306 48.941 85.714 53.947 85.714 62.845 C85.714 72.856 85.306 73.968 81.633 76.749 C79.184 78.973 69.388 85.091 66.939 86.759 C66.122 86.759 63.673 87.316 61.224 87.872 C51.020 89.540 45.306 95.102 42.449 106.781 C41.224 112.342 40.816 123.465 41.633 130.695 L42.041 135.701 L40.408 140.706 C38.776 146.824 37.551 153.497 37.551 159.059 C37.143 165.176 36.327 169.626 35.510 171.294 C35.102 172.406 33.469 176.299 31.837 180.193 C26.531 190.759 24.898 197.433 23.673 209.112 C21.224 230.246 19.592 239.144 16.327 248.043 C15.510 251.380 15.102 251.936 11.429 254.717 C7.755 258.053 6.939 258.610 5.714 261.390 C4.898 264.171 2.041 269.733 0.408 273.626 C-0.408 274.738 0.408 275.850 1.633 276.406 C3.265 276.406 4.490 275.850 6.531 273.626 L8.163 271.401 L7.755 273.070 C7.755 274.182 6.939 278.631 6.122 283.080 C5.306 287.529 4.490 293.647 4.490 295.872 C4.082 300.321 4.082 300.321 4.898 301.433 C6.122 303.102 6.531 302.545 7.347 301.433 L8.163 300.321 L8.163 302.545 C7.755 305.326 8.571 307.551 10.204 307.551 C11.020 307.551 11.429 306.439 12.245 304.770 C13.061 302.545 13.061 302.545 13.061 303.658 C13.061 305.326 13.878 306.995 15.102 306.995 C15.918 306.995 17.143 304.770 17.959 301.433 C18.776 298.652 18.776 298.652 19.184 300.321 C19.592 301.433 21.224 301.989 22.041 300.321 C22.449 299.765 23.673 294.759 24.490 289.198 C25.714 283.636 26.939 277.519 27.755 275.294 C28.571 271.957 28.571 269.733 28.980 263.059 L29.388 254.717 L32.653 245.818 C34.694 240.813 37.959 233.027 40.000 228.578 C42.041 224.684 44.490 219.123 45.306 216.898 C48.571 209.668 50.612 199.658 51.837 189.647 C52.653 179.080 53.061 176.856 55.918 169.070 C57.551 165.176 59.184 160.171 59.592 157.947 L60.408 153.497 L61.633 157.947 C62.041 160.727 63.673 165.733 64.490 169.070 C66.122 173.519 66.939 176.856 67.755 183.529 L68.571 191.316 L67.755 197.989 C67.347 201.326 66.939 206.332 66.939 209.112 C66.939 212.449 66.531 215.786 65.714 220.235 C63.673 231.914 62.041 243.037 60.000 266.952 C57.959 289.198 57.959 293.091 57.959 305.882 C58.367 320.342 58.776 325.904 61.633 338.139 C64.082 349.818 64.490 353.711 64.490 363.722 C64.490 371.508 64.490 373.733 63.265 381.519 C61.633 392.086 61.224 399.316 62.041 407.102 C62.449 413.775 62.857 416.000 66.122 434.909 C70.204 458.267 70.612 465.497 69.388 479.957 C68.980 485.519 68.980 486.631 67.347 491.080 C64.898 497.754 63.265 500.535 60.000 504.428 C58.367 506.652 57.551 508.321 57.143 509.989 C56.735 512.770 57.143 514.995 57.959 514.995 C58.367 514.995 58.776 515.551 59.184 516.107 C59.184 516.663 60.000 517.219 60.408 517.219 C60.408 517.219 61.224 517.775 62.041 518.332 C62.449 518.332 63.265 518.888 63.265 518.888 C63.673 518.332 64.490 518.888 65.306 519.444 C66.531 520.000 66.531 520.000 68.163 519.444 C68.980 518.332 69.796 518.332 70.204 518.888 C71.020 520.000 74.286 520.000 75.510 518.888 C75.918 518.332 77.143 516.663 77.959 515.551 C79.592 513.326 79.592 512.214 80.000 508.877 C80.408 505.540 80.408 505.540 82.041 503.316 C84.490 500.535 84.898 498.866 84.082 491.636 C83.673 486.631 83.673 484.963 84.082 482.738 C84.490 478.845 84.490 476.620 83.673 472.171 C82.041 462.717 83.673 440.471 87.755 422.674 C88.571 417.668 88.571 416.556 88.571 408.214 C88.571 400.428 88.571 398.203 87.755 391.529 C86.122 381.519 86.122 377.626 87.755 370.396 C89.796 363.166 89.796 360.385 90.612 348.150 C91.837 333.134 92.245 330.353 95.102 315.337 C98.367 296.428 99.184 289.754 99.592 278.631 C100.000 273.626 100.408 269.176 100.408 269.176 C100.408 269.176 100.816 273.070 100.816 277.519 C101.224 286.417 102.449 298.096 104.490 309.219 C105.306 313.112 106.122 319.230 106.939 323.123 C107.755 328.128 108.571 334.246 108.980 342.588 C110.204 358.160 110.612 363.166 112.245 370.396 C114.286 378.182 114.286 379.850 113.061 388.749 C110.612 405.433 110.612 412.663 113.469 426.567 C115.102 436.021 116.735 449.369 117.143 458.824 C117.143 465.497 117.143 467.722 116.327 472.727 C115.918 477.733 115.510 478.289 116.327 481.070 C116.735 482.738 116.735 485.519 116.735 487.187 C115.510 500.535 115.918 501.091 118.367 503.872 C120.000 504.984 120.000 505.540 120.000 507.765 C120.000 511.658 120.408 513.326 122.857 516.107 C124.898 519.444 127.347 520.556 129.388 519.444 C131.020 518.332 131.020 518.332 132.245 519.444 C133.469 520.000 133.878 520.000 134.694 519.444 C135.510 518.888 136.327 518.888 136.735 518.888 C137.143 518.888 137.551 518.332 138.367 518.332 C138.776 517.775 139.592 517.219 139.592 517.219 C140.408 517.219 143.265 513.326 143.265 512.770 C143.265 509.989 142.041 507.765 139.184 503.316 C136.735 499.979 135.510 497.754 133.469 492.749 C131.020 486.075 131.020 485.519 130.612 481.626 C130.612 478.845 130.612 475.508 130.204 473.840 C128.980 466.053 129.796 457.711 135.102 429.904 C137.959 412.107 138.367 407.658 138.367 397.091 C137.959 390.417 137.551 386.524 136.735 380.963 C135.918 374.845 135.918 372.620 135.918 363.722 C135.918 353.155 135.918 352.043 138.776 338.139 C142.449 319.230 143.265 305.882 141.224 282.524 C139.184 253.604 136.735 231.358 133.878 216.898 C133.878 215.786 133.469 212.449 133.469 209.112 C133.061 205.775 132.653 200.770 132.245 198.545 C132.245 195.765 131.837 192.428 131.837 190.759 C131.837 186.310 133.469 176.299 135.102 170.738 C135.918 167.401 137.143 162.952 137.959 160.727 C138.367 159.059 139.184 156.278 139.184 155.722 C139.592 154.610 139.592 155.166 140.816 159.615 C141.633 161.840 143.265 167.401 144.898 171.294 C146.939 177.412 147.347 179.636 147.755 182.973 C148.980 196.321 149.388 199.658 151.020 205.219 C152.653 213.005 154.694 218.011 158.776 226.353 C162.041 233.027 167.347 245.262 169.388 250.824 C170.612 254.717 170.612 255.273 171.020 261.947 C171.020 268.064 171.020 269.733 172.245 275.294 C173.061 278.631 174.694 285.305 175.510 289.754 C175.918 294.203 177.143 298.652 177.143 299.209 C177.959 302.545 180.816 301.989 180.816 298.652 C180.816 297.540 181.224 298.096 181.633 300.321 C182.857 305.326 183.265 306.439 184.490 306.995 C185.714 307.551 186.939 305.326 186.531 302.545 L186.531 300.321 L186.939 303.102 C187.755 305.882 188.980 307.551 190.204 307.551 C191.429 307.551 192.245 305.326 191.837 302.545 L191.837 300.321 L192.653 301.433 C193.878 303.102 193.878 303.102 195.102 301.433 C195.918 300.321 195.918 299.765 195.918 296.984 C195.510 295.316 194.694 289.754 193.878 285.305 C193.061 280.299 192.245 275.294 191.837 273.626 L191.837 270.845 L193.469 273.626 C195.102 275.850 196.735 276.963 198.776 276.406 C199.592 275.850 200.408 274.182 199.592 273.626 C197.551 269.176 195.102 263.615 193.878 261.390 C193.061 259.166 192.653 258.053 189.388 255.273 C187.347 253.604 185.306 251.936 184.898 251.380 C183.673 250.267 180.816 239.144 179.592 231.914 C178.776 228.578 177.959 221.348 177.551 215.786 C175.510 197.433 173.878 191.316 168.163 179.080 C166.122 175.187 164.082 170.738 164.082 169.070 C163.673 167.401 163.265 163.508 162.857 160.171 C162.449 151.829 161.633 147.936 159.592 141.818 L158.367 136.257 L158.776 127.914 C159.592 112.342 157.959 102.332 152.653 95.102 C149.388 90.652 145.306 88.428 139.184 87.872 C134.694 87.316 133.469 86.759 124.490 81.198 C114.694 74.524 114.694 73.968 114.694 61.733 C114.694 51.166 114.694 49.497 116.327 49.497 C117.551 48.941 120.408 38.930 120.408 34.481 C120.408 32.257 119.184 30.588 117.959 30.588 C117.143 31.144 117.143 30.588 117.143 25.027 C117.143 17.797 116.327 13.348 113.878 9.455 C110.204 2.225 102.449 -1.668 96.327 0.556 Z" fill="#3a3e3a"/>
  <g class="muscles">
    <path data-idx="0" d="M86.939 57.840 C86.939 58.396 86.939 60.620 87.347 63.957 C87.755 71.187 89.796 79.529 92.245 87.872 C94.286 93.989 94.694 94.545 95.918 95.658 C97.551 96.214 97.551 96.214 97.551 94.545 C97.143 92.877 97.551 92.877 97.959 94.545 C98.776 97.326 97.959 90.096 95.918 78.417 L93.469 66.738 L90.204 62.289 C88.571 60.064 86.939 57.840 86.939 57.840 Z" fill="#e74c3c"/>
    <path data-idx="1" d="M110.204 62.845 L106.939 67.294 L105.306 76.193 C104.490 80.642 103.673 85.091 104.082 85.647 C104.082 85.647 104.082 86.203 103.673 86.203 C103.265 86.203 103.265 86.759 103.673 87.316 C103.673 87.872 103.673 88.428 103.265 88.428 C102.857 88.428 102.857 88.984 102.857 91.765 C102.857 96.770 102.857 96.770 104.898 95.658 C105.714 95.102 106.531 93.989 107.347 90.652 C108.980 85.647 111.020 77.861 112.245 72.299 C112.653 69.519 113.469 58.396 113.469 57.840 C113.469 57.840 111.837 60.064 110.204 62.845 Z" fill="#2ecc71"/>
    <path data-idx="2" d="M96.327 70.075 C96.327 70.075 96.735 71.743 96.735 72.856 C97.143 74.524 97.959 80.086 98.367 84.535 C99.592 99.551 100.816 100.107 102.041 86.759 C102.449 84.535 102.857 79.529 103.265 76.193 C103.673 72.856 104.082 70.075 103.673 70.075 C103.673 69.519 100.816 71.743 100.408 72.299 L100.408 73.412 L100.000 72.299 C99.592 71.743 96.327 68.963 96.327 70.075 Z" fill="#3498db"/>
    <path data-idx="3" d="M114.694 78.417 C115.510 83.422 118.776 92.321 120.000 92.321 C120.408 92.321 122.041 91.765 123.265 91.209 C124.898 90.652 126.122 90.096 126.939 89.540 C127.347 89.540 128.163 89.540 128.980 89.540 C131.020 88.428 129.796 87.316 124.898 83.979 C122.041 81.754 118.776 79.529 117.143 77.861 L114.694 75.636 L114.694 78.417 Z" fill="#f39c12"/>
    <path data-idx="4" d="M83.673 77.861 C82.449 78.417 79.184 81.198 76.327 83.422 C68.980 88.428 68.980 88.428 72.245 89.540 C73.469 90.096 74.694 90.096 75.102 90.652 C76.327 91.209 77.143 91.765 79.592 92.321 C80.816 92.321 81.224 92.321 82.041 90.652 C82.857 89.540 83.673 86.759 84.082 84.535 C85.306 80.086 86.122 75.636 85.714 75.636 C85.714 75.636 84.490 76.749 83.673 77.861 Z" fill="#9b59b6"/>
    <path data-idx="5" d="M86.939 70.631 C86.531 71.187 86.531 73.968 86.531 76.749 C86.122 83.979 85.306 87.316 83.673 90.096 C82.857 91.209 82.449 92.321 82.857 92.321 C82.857 92.321 83.265 92.877 82.857 92.877 C82.857 93.433 82.857 93.433 83.265 93.433 C83.673 92.877 85.714 93.433 87.755 93.989 C92.245 94.545 92.653 94.545 92.653 93.433 C92.653 92.321 91.429 87.872 90.204 83.979 C89.388 82.310 88.163 76.193 87.347 71.743 C87.347 70.631 86.939 70.075 86.939 70.631 Z" fill="#1abc9c"/>
    <path data-idx="6" d="M113.061 71.187 C112.653 72.299 112.245 74.524 111.837 77.305 C111.429 80.086 110.204 84.535 109.388 87.316 C107.347 94.545 107.347 94.545 109.796 94.545 C110.612 93.989 113.061 93.989 114.694 93.433 C118.776 93.433 118.776 92.877 116.735 90.096 C114.286 86.759 113.878 84.535 113.469 76.749 C113.469 73.412 113.061 70.631 113.061 71.187 Z" fill="#e67e22"/>
    <path data-idx="7" d="M138.776 88.984 C138.776 88.984 139.184 89.540 139.592 90.096 C140.408 90.652 140.000 90.652 137.551 90.652 C133.469 90.652 131.429 91.765 131.020 93.989 C131.020 95.102 131.837 96.214 133.878 98.995 C135.510 101.219 138.367 105.668 139.592 108.449 C142.857 115.679 144.490 117.904 148.571 122.909 C151.837 126.246 154.694 131.251 155.918 134.032 C156.735 135.701 156.735 135.701 157.143 134.588 C157.143 134.032 157.551 133.476 157.551 133.476 C157.959 132.920 157.959 129.027 157.959 121.797 C157.959 111.230 157.959 110.674 157.143 106.225 C155.102 98.439 150.612 92.321 145.714 90.096 C142.449 88.984 138.776 87.872 138.776 88.984 Z" fill="#16a085"/>
    <path data-idx="8" d="M57.551 89.540 C53.878 90.096 50.612 92.321 48.163 95.658 C45.306 99.551 44.082 102.888 42.857 109.005 C42.041 112.898 42.041 114.011 42.041 122.353 C42.041 128.471 42.041 132.364 42.449 132.364 C42.449 132.364 42.857 133.476 43.265 134.032 C43.265 135.144 43.673 135.701 43.673 135.701 C43.673 135.701 44.490 134.032 45.306 132.364 C46.122 130.139 48.163 126.802 51.837 122.909 C55.510 117.904 57.551 114.567 60.408 109.005 C64.082 102.332 65.306 100.107 68.980 95.658 C70.204 94.545 70.204 94.545 69.796 93.433 C68.980 91.765 66.939 90.652 63.265 90.652 C60.816 90.652 60.408 90.652 60.816 90.096 C61.633 88.984 61.633 88.428 60.816 88.428 C60.816 88.428 59.184 88.984 57.551 89.540 Z" fill="#2980b9"/>
    <path data-idx="9" d="M117.143 95.658 C111.429 97.326 108.980 97.882 106.939 100.107 C102.857 103.444 102.041 107.893 102.041 123.465 C102.041 133.476 102.449 134.588 103.265 136.813 C104.490 139.594 106.939 142.374 109.796 144.043 C113.061 145.711 120.816 146.267 124.898 144.599 C130.612 142.374 135.510 136.257 138.776 126.802 C140.408 122.909 141.224 121.241 142.041 120.128 C142.857 120.128 143.265 119.572 143.265 119.572 C143.265 119.016 142.857 117.904 142.041 116.791 C141.224 115.679 139.592 112.342 138.367 109.561 C135.510 104.000 131.837 98.439 128.980 96.770 C126.122 94.545 122.449 94.545 117.143 95.658 Z" fill="#c0392b"/>
    <path data-idx="10" d="M73.469 95.658 C68.980 97.882 65.714 101.775 61.224 110.674 C60.000 113.455 58.367 116.791 57.959 117.904 C56.735 119.572 56.735 120.128 57.551 120.128 C58.776 120.128 59.184 121.241 60.408 124.578 C62.041 130.139 66.939 139.594 67.755 138.481 C68.163 138.481 68.571 139.037 68.571 139.594 C68.980 140.150 69.388 140.706 69.388 140.706 C69.796 140.706 70.204 141.262 70.612 141.818 C71.020 142.374 73.061 143.487 74.694 144.599 C79.184 146.267 85.306 146.267 89.388 144.599 C94.286 142.374 97.143 139.037 97.959 134.588 C98.776 131.807 98.776 117.904 98.367 112.898 C97.551 102.332 94.694 98.995 85.714 96.214 C78.776 94.545 76.327 94.545 73.469 95.658 Z" fill="#27ae60"/>
    <path data-idx="11" d="M143.265 124.578 C142.449 126.246 142.041 137.925 142.041 143.487 C142.857 157.390 146.122 170.738 151.837 179.080 C154.694 182.973 156.327 184.086 157.959 183.529 C158.367 183.529 159.184 183.529 159.184 183.529 C159.592 184.086 160.000 180.749 160.408 175.743 C162.041 154.610 155.510 130.695 146.939 124.578 C144.490 123.465 143.673 122.909 143.265 124.578 Z" fill="#8e44ad"/>
    <path data-idx="12" d="M53.061 125.134 C50.612 126.802 46.939 132.364 44.898 137.369 C41.224 147.380 39.592 156.834 39.592 168.513 C39.592 180.193 40.408 184.086 42.857 184.086 C46.531 184.086 52.653 172.963 55.510 160.727 C57.551 152.941 57.959 146.267 57.959 136.813 C57.551 126.246 57.143 124.021 55.510 124.021 C55.102 124.021 53.878 124.578 53.061 125.134 Z" fill="#d35400"/>
    <path data-idx="13" d="M92.653 145.711 C90.204 146.267 86.531 147.936 85.714 149.048 C83.673 150.717 82.857 154.610 82.449 160.171 C82.449 165.733 82.857 169.070 84.082 169.070 C84.490 169.626 86.122 169.070 87.347 168.513 C88.980 167.957 91.429 166.845 93.469 166.289 C97.959 165.176 98.367 165.176 98.776 163.508 C99.184 161.840 99.184 150.160 98.776 148.492 C97.959 145.711 97.143 145.155 95.102 145.155 C94.286 145.155 93.061 145.155 92.653 145.711 Z" fill="#f1c40f"/>
    <path data-idx="14" d="M102.857 146.267 C101.633 147.380 101.224 150.160 101.224 156.834 C101.224 162.396 101.633 165.176 102.857 165.176 C103.265 165.733 106.531 166.289 109.796 166.845 C110.204 167.401 111.020 167.401 111.429 167.957 C113.469 169.070 115.918 169.626 116.327 169.070 C117.551 168.513 117.959 166.289 117.959 162.396 C117.959 152.385 116.327 149.048 111.020 146.824 C106.939 145.155 104.082 144.599 102.857 146.267 Z" fill="#34495e"/>
    <path data-idx="15" d="M102.041 168.513 C101.224 169.070 101.224 170.738 101.224 175.743 C101.224 183.529 101.633 184.642 104.898 184.642 C105.714 184.642 108.571 185.198 111.020 185.198 C116.735 186.866 116.735 186.866 117.551 184.642 C117.959 181.861 117.959 176.856 117.551 174.075 C116.735 171.850 115.918 171.294 111.020 169.626 C104.898 167.401 102.857 166.845 102.041 168.513 Z" fill="#7f8c8d"/>
    <path data-idx="16" d="M89.796 169.626 C86.531 170.738 84.082 171.850 83.673 172.406 C81.633 175.743 82.041 185.198 84.082 186.310 C84.898 186.310 86.122 186.310 87.755 185.754 C89.388 185.754 91.837 185.198 93.878 184.642 C99.184 184.086 99.184 184.086 99.184 175.743 C99.184 172.406 99.184 169.070 98.776 168.513 C97.959 166.845 96.327 166.845 89.796 169.626 Z" fill="#e84393"/>
    <path data-idx="17" d="M134.694 138.481 C132.653 141.262 131.020 142.930 128.571 144.599 C126.939 145.711 125.306 146.824 125.306 146.824 C125.306 147.380 124.898 147.380 124.490 147.380 C123.673 146.824 121.224 147.936 120.816 149.048 C120.408 150.717 120.408 152.941 120.816 155.722 C121.633 158.503 121.633 159.059 120.816 162.952 C120.408 165.733 120.408 167.957 120.816 170.182 C121.224 174.631 121.224 180.749 120.816 186.866 C120.408 190.759 120.408 192.428 120.816 195.765 C121.633 201.326 121.633 204.107 121.224 210.225 C120.816 213.005 120.408 216.898 120.408 218.567 C120.408 224.684 121.633 225.241 126.122 221.348 C128.980 218.567 131.837 214.674 132.245 211.893 C133.061 208.556 132.653 204.663 131.837 196.877 C130.612 189.091 130.612 187.979 131.020 186.310 C131.837 184.086 132.653 179.080 132.245 177.968 C132.245 177.968 132.245 177.412 132.653 176.856 C132.653 176.299 133.061 174.075 133.469 171.850 C133.469 170.182 133.878 166.845 134.286 164.620 C134.694 162.396 135.102 159.615 135.510 157.947 L135.918 155.166 L135.918 157.947 C135.918 159.059 135.510 161.840 135.510 163.508 C135.102 165.176 134.694 167.401 134.694 167.957 L134.694 169.626 L135.510 167.957 C135.510 166.845 136.735 162.952 137.551 159.615 C139.184 153.497 139.184 153.497 139.184 146.824 C138.776 138.481 138.367 135.144 137.959 135.144 C137.551 134.588 135.918 136.257 134.694 138.481 Z" fill="#00b894"/>
    <path data-idx="18" d="M61.633 135.701 C61.224 136.813 61.224 155.166 61.633 155.166 C62.041 155.166 62.041 155.722 62.041 155.722 C62.041 156.278 62.449 158.503 63.265 160.727 L64.490 165.176 L64.490 160.727 C64.490 155.722 64.898 155.722 65.306 156.834 C66.531 158.503 66.531 159.615 65.714 157.947 L64.898 156.834 L64.898 160.727 C65.306 166.289 66.122 170.182 66.939 170.738 C67.347 170.738 67.755 171.850 67.755 176.856 C68.163 181.305 68.163 184.086 68.980 186.310 C69.796 189.091 69.796 190.203 69.388 191.316 C69.388 192.428 68.571 195.209 68.571 197.433 C66.531 209.668 66.939 212.449 71.429 218.011 C75.510 223.016 78.776 224.684 79.592 222.460 C80.000 220.791 80.000 215.786 79.592 210.225 C78.776 204.107 78.776 200.770 79.592 195.765 C80.000 192.984 80.000 190.759 80.000 185.754 C79.592 178.524 79.592 175.743 80.000 169.626 C80.000 166.289 80.000 164.064 79.592 161.840 C79.184 159.615 79.184 158.503 79.592 156.834 C80.408 153.497 80.000 149.604 79.184 148.492 C78.776 147.936 77.959 147.380 77.551 147.380 C77.143 147.380 76.327 147.380 76.327 147.380 C75.918 147.380 75.510 146.824 75.510 146.824 C75.510 146.824 74.694 146.267 73.878 145.711 C71.020 144.599 67.755 141.262 65.306 138.481 C63.265 135.701 62.449 134.588 61.633 135.701 Z" fill="#fdcb6e"/>
    <path data-idx="19" d="M102.041 187.422 C101.224 187.979 101.224 189.647 101.224 195.765 C101.224 203.551 101.633 205.775 103.265 206.332 C103.673 206.332 106.939 206.332 110.204 205.775 C115.918 205.775 115.918 205.219 116.735 204.107 C117.551 202.439 117.959 201.326 117.959 196.877 C117.959 191.316 117.959 190.759 117.143 189.091 C115.918 187.979 115.918 187.979 111.020 186.866 C104.082 186.310 102.449 186.310 102.041 187.422 Z" fill="#6c5ce7"/>
    <path data-idx="20" d="M89.796 186.866 C84.490 187.422 84.082 187.979 83.265 190.203 C82.041 192.984 82.449 201.882 83.673 204.107 C84.490 205.219 84.490 205.775 90.204 205.775 C97.143 206.332 97.959 206.332 98.776 204.663 C99.592 202.439 99.592 188.535 98.776 187.422 C98.367 186.310 95.918 186.310 89.796 186.866 Z" fill="#fab1a0"/>
    <path data-idx="21" d="M35.102 175.743 C31.020 181.305 26.939 192.428 25.306 200.770 C24.490 205.775 22.857 218.011 22.857 224.128 C22.449 230.802 20.408 241.925 18.776 245.818 C18.367 246.930 18.367 247.487 19.184 248.043 C20.000 249.155 20.000 249.155 20.816 247.487 C22.449 244.150 35.510 207.444 37.143 201.326 C38.776 194.652 38.776 181.305 37.143 174.631 C37.143 172.963 36.735 173.519 35.102 175.743 Z" fill="#55efc4"/>
    <path data-idx="22" d="M162.857 175.743 C161.633 182.417 161.224 191.872 162.041 197.433 C162.857 202.995 164.490 206.888 172.245 229.134 L179.592 249.155 L180.816 248.599 C181.224 248.043 181.633 247.487 181.224 246.930 C179.592 240.813 177.551 229.690 177.551 225.797 C177.551 223.572 175.918 208.000 175.510 204.107 C175.102 202.995 175.102 201.326 175.102 200.214 C174.694 199.658 174.694 199.102 174.286 197.989 C174.286 197.433 173.469 195.209 173.061 192.984 C172.245 190.759 170.612 186.310 169.388 183.529 C166.531 177.412 166.531 177.412 164.898 175.187 L163.265 173.519 L162.857 175.743 Z" fill="#ffeaa7"/>
    <path data-idx="23" d="M47.347 189.091 C44.898 190.759 42.857 193.540 41.224 196.321 C40.408 197.989 37.959 204.663 35.510 211.337 C33.469 218.011 29.388 229.134 26.939 235.807 C24.490 242.481 22.449 248.599 22.449 249.155 C22.449 250.267 24.082 251.380 24.490 250.267 C24.490 250.267 26.122 247.487 27.347 244.706 C30.612 238.588 32.653 234.695 38.776 225.241 C44.490 215.786 46.531 211.893 48.163 205.775 C50.612 195.765 51.429 188.535 49.796 187.979 C49.388 187.979 48.571 188.535 47.347 189.091 Z" fill="#a29bfe"/>
    <path data-idx="24" d="M149.388 189.647 C148.980 190.759 148.980 191.872 149.388 195.209 C149.796 197.433 150.204 199.658 149.796 199.658 C149.796 199.658 149.796 200.214 150.204 200.214 C150.204 200.214 151.020 202.439 151.429 205.219 C153.061 210.781 155.918 217.455 160.000 223.572 C165.714 232.471 168.980 238.032 172.245 244.706 C174.286 248.043 175.918 251.380 175.918 251.380 C175.918 251.380 176.735 250.824 177.143 250.267 L177.959 249.155 L172.245 234.139 C169.388 225.797 165.306 214.674 163.673 209.668 C159.592 197.989 157.959 193.540 154.694 190.759 C153.469 189.647 151.837 188.535 151.429 188.535 C151.429 188.535 151.020 188.535 150.612 187.979 C150.204 187.979 149.796 188.535 149.388 189.647 Z" fill="#74b9ff"/>
    <path data-idx="25" d="M83.673 208.556 C82.857 209.668 82.449 214.674 83.673 220.235 C86.122 233.027 93.061 256.385 95.510 260.278 C95.918 260.834 96.735 261.390 97.551 261.390 C99.184 261.390 99.184 260.834 99.592 237.476 C99.592 214.118 99.592 211.337 98.367 209.668 C97.959 208.556 97.143 208.556 91.020 208.556 C86.122 208.000 84.490 208.000 83.673 208.556 Z" fill="#ff7675"/>
    <path data-idx="26" d="M113.878 208.000 C113.469 208.000 111.020 208.000 108.163 208.556 C103.265 208.556 102.857 208.556 102.041 210.225 L101.224 211.337 L101.224 235.251 C101.224 250.824 101.224 259.722 101.633 260.278 C102.041 261.947 104.082 261.947 105.306 260.278 C106.122 258.610 108.163 253.604 110.612 245.262 C117.959 219.679 119.592 209.112 115.102 207.444 C114.694 207.444 113.878 207.444 113.878 208.000 Z" fill="#81ecec"/>
    <path data-idx="27" d="M66.939 219.679 C65.306 221.904 62.041 249.711 61.633 263.059 L61.224 270.845 L62.857 264.727 C63.673 261.390 65.714 254.717 66.939 249.711 C71.020 235.807 73.061 229.690 73.061 226.909 C73.469 224.684 73.469 224.684 71.837 223.016 C69.796 220.791 68.980 220.235 69.388 221.348 C69.796 221.904 69.796 223.016 69.388 223.016 C68.980 224.684 68.571 224.128 68.571 221.348 C68.163 218.567 67.755 218.011 66.939 219.679 Z" fill="#dfe6e9"/>
    <path data-idx="28" d="M131.837 219.679 C131.429 219.679 131.429 220.791 131.429 221.904 C131.429 223.016 131.429 223.016 131.020 221.904 C130.612 221.348 130.204 220.791 130.204 220.791 C129.388 220.791 126.939 224.684 126.939 225.797 C126.939 227.465 129.796 239.144 133.061 249.155 C134.286 253.604 135.918 260.278 137.143 263.615 C137.959 266.952 138.776 269.733 138.776 269.733 C139.592 270.845 138.776 256.941 137.959 247.487 C136.327 236.364 134.286 221.904 133.469 220.235 C133.061 218.567 132.245 218.011 131.837 219.679 Z" fill="#fd79a8"/>
    <path data-idx="29" d="M123.265 229.134 C120.816 233.027 116.327 242.481 116.327 243.594 C116.327 244.150 115.918 245.262 115.102 246.374 C114.286 247.487 113.878 248.599 114.286 248.599 C114.286 249.155 113.878 249.155 113.878 249.711 C113.469 249.711 113.061 250.267 113.469 250.267 C113.469 250.824 113.469 250.824 113.061 250.824 C112.653 250.824 111.429 254.160 111.020 255.273 C111.020 255.829 107.755 262.503 106.122 265.283 C105.306 266.396 104.082 267.508 103.265 268.064 L102.041 268.620 L102.041 278.075 C102.041 285.305 102.449 289.754 102.857 294.203 C103.673 302.545 107.347 322.011 108.163 324.791 C108.163 325.904 108.571 327.572 108.571 328.684 C108.571 329.797 108.571 330.909 108.980 330.909 C108.980 331.465 109.388 327.572 109.388 323.123 C109.796 313.668 111.020 300.877 113.061 289.754 C113.878 285.305 114.694 281.412 114.694 280.856 C114.694 280.299 115.102 279.743 115.102 279.187 C115.102 279.187 116.327 274.182 117.959 268.620 C119.184 263.059 121.224 255.273 122.041 251.380 C123.265 247.487 124.490 241.369 124.898 238.588 C125.714 233.027 126.122 226.353 125.306 226.353 C125.306 226.353 124.082 227.465 123.265 229.134 Z" fill="#00cec9"/>
    <path data-idx="30" d="M75.102 226.909 C74.694 227.465 74.694 232.471 75.102 237.476 C75.510 240.257 76.735 246.374 77.959 251.380 C87.347 287.529 90.204 303.102 91.020 324.791 C91.020 328.684 91.429 331.465 91.429 330.353 C91.837 329.797 91.837 328.684 91.837 327.572 C91.837 326.460 91.837 325.348 92.245 325.348 C92.653 324.791 93.878 318.118 96.327 303.102 C97.959 294.203 97.959 293.647 98.367 281.412 L98.367 269.176 L96.327 267.508 C94.694 265.840 90.204 258.053 90.612 257.497 C90.612 256.941 90.612 256.941 90.204 256.941 C90.204 256.941 89.796 256.385 89.388 255.273 C89.388 254.160 88.980 253.604 88.571 253.604 C88.163 253.604 88.163 253.604 88.163 253.048 C88.571 253.048 88.163 252.492 87.755 252.492 C87.755 251.936 87.347 251.936 87.347 251.380 C87.755 250.824 87.755 250.824 87.347 250.824 C86.939 250.824 86.939 250.267 86.939 250.267 C86.939 248.599 76.327 226.353 75.510 226.353 C75.510 226.353 75.102 226.353 75.102 226.909 Z" fill="#b2bec3"/>
    <path data-idx="31" d="M71.020 242.481 C65.714 260.278 62.449 274.738 61.224 288.086 C60.408 296.984 60.816 316.449 61.633 323.679 C63.265 332.578 66.122 344.813 66.939 344.813 C67.347 344.813 67.347 344.813 67.347 345.369 C66.939 345.369 68.980 352.599 69.388 353.155 C69.388 353.155 70.204 352.043 71.020 350.930 C73.878 346.481 76.327 345.925 79.184 349.818 C82.041 353.711 84.082 354.824 86.122 352.043 C88.571 349.818 88.980 346.481 88.571 332.021 C88.571 307.551 86.939 295.872 78.776 260.834 C75.918 249.711 73.469 239.701 73.469 238.588 C73.469 235.807 72.653 236.920 71.020 242.481 Z" fill="#636e72"/>
    <path data-idx="32" d="M126.939 238.588 C126.531 239.701 124.490 250.267 121.633 260.834 C115.102 288.642 113.469 296.984 111.837 313.112 C111.429 322.011 111.429 341.476 111.837 345.369 C112.653 350.930 114.286 353.711 116.735 353.711 C117.959 353.711 120.000 352.043 120.816 350.374 C121.633 348.706 123.673 347.037 124.898 347.037 C126.122 347.037 128.163 348.706 129.796 351.487 L131.020 354.267 L132.245 349.818 C133.061 347.037 133.878 343.701 134.286 342.032 C135.918 338.139 137.551 330.909 138.367 323.123 C139.592 313.112 139.592 294.759 138.367 284.749 C136.735 271.957 133.878 257.497 129.388 242.481 L127.347 236.364 L126.939 238.588 Z" fill="#d63031"/>
    <path data-idx="33" d="M123.673 349.818 C122.857 350.374 121.633 351.487 120.816 353.155 C118.367 355.936 117.143 356.492 115.510 355.936 C114.694 355.380 113.878 354.824 113.878 354.267 C112.245 351.487 112.653 358.717 113.878 365.947 C114.286 368.727 115.918 373.733 117.143 378.182 C120.000 387.080 122.041 396.535 123.265 405.433 C124.490 411.551 124.898 413.219 124.898 411.551 C124.898 408.770 126.531 392.086 127.347 388.193 C127.755 385.412 128.980 380.406 129.796 377.070 C131.429 370.952 131.429 370.396 131.429 364.834 C131.429 359.273 131.429 358.717 130.612 355.936 C128.163 350.930 125.306 348.150 123.673 349.818 Z" fill="#0984e3"/>
    <path data-idx="34" d="M73.469 349.818 C72.245 350.930 70.204 354.824 68.980 358.160 C68.571 359.273 68.571 361.497 68.571 364.278 C68.571 368.727 68.571 369.840 70.612 377.070 C72.653 385.968 73.878 393.198 75.102 404.877 C75.102 408.770 75.510 412.107 75.510 412.107 C75.918 412.107 76.327 408.214 77.551 403.209 C78.367 398.203 78.776 393.754 79.184 393.754 C79.184 393.754 79.184 393.198 79.184 392.642 C79.592 392.086 80.000 390.417 80.408 388.749 C80.816 387.080 82.041 382.631 83.265 378.182 C84.490 374.289 85.714 369.283 86.122 367.059 C86.939 363.166 87.755 353.711 86.939 354.267 C83.673 356.492 83.673 356.492 81.633 355.380 C80.816 354.824 79.592 353.711 79.592 352.599 C78.776 350.930 76.327 349.262 75.510 349.262 C74.694 349.262 73.878 349.818 73.469 349.818 Z" fill="#e17055"/>
    <path data-idx="35" d="M65.306 374.289 C64.490 376.513 62.449 390.417 62.449 395.979 C62.041 400.428 62.449 409.326 63.265 414.888 C64.082 421.561 68.163 444.364 68.571 444.920 C69.388 446.588 71.020 459.380 71.429 466.053 C71.837 469.947 71.837 473.283 72.245 473.283 C72.245 473.283 72.653 472.727 73.469 472.171 C75.510 471.059 75.510 470.503 75.510 462.160 C75.102 458.267 74.694 444.364 74.286 431.016 C73.469 407.658 73.061 398.759 71.429 389.861 C70.204 382.075 67.347 372.064 66.122 372.064 C66.122 372.064 65.714 373.176 65.306 374.289 Z" fill="#00b894"/>
    <path data-idx="36" d="M133.061 373.733 C130.612 379.294 128.571 389.305 127.755 399.872 C126.531 410.439 124.082 468.834 124.898 470.503 C124.898 471.615 126.939 473.283 128.163 473.283 C128.163 473.283 128.571 470.503 128.571 466.610 C128.980 460.492 130.612 448.257 131.020 447.701 C131.429 447.701 131.429 447.144 131.020 446.588 C131.020 446.588 131.020 446.032 131.429 445.476 C131.429 444.920 131.837 444.364 131.837 443.807 C131.837 443.807 132.653 438.246 133.878 431.016 C137.143 414.888 137.551 410.995 137.959 402.652 C137.959 393.198 136.735 379.294 134.694 373.733 L133.878 371.508 L133.061 373.733 Z" fill="#e74c3c"/>
    <path data-idx="37" d="M115.102 381.519 C115.102 381.519 114.694 383.187 114.694 383.743 C114.286 384.856 113.469 388.749 113.061 392.086 C112.245 397.647 112.245 400.984 112.245 408.214 C112.245 417.112 112.245 417.668 113.469 424.898 C114.286 428.791 115.102 432.684 115.510 433.241 C115.510 435.465 115.918 436.578 116.327 438.802 C117.551 445.476 117.959 454.374 117.959 462.717 C117.959 467.722 118.367 472.171 118.367 472.171 C118.367 472.171 119.184 471.615 119.592 471.059 C121.224 469.390 122.041 463.273 122.857 442.695 C123.673 420.449 122.449 402.652 118.776 389.305 C116.735 382.075 115.102 378.738 115.102 381.519 Z" fill="#2ecc71"/>
    <path data-idx="38" d="M83.673 383.743 C80.408 392.086 78.367 403.765 77.551 416.000 C76.735 429.904 77.551 462.717 79.184 469.390 C79.592 470.503 80.816 472.171 81.633 472.171 C82.041 472.171 82.041 468.278 82.041 463.829 C82.041 455.487 82.857 444.920 84.082 439.358 C84.082 437.690 84.490 436.021 84.490 434.909 C84.898 434.353 84.898 433.241 84.898 432.684 C85.306 432.128 85.714 428.791 86.531 425.455 C88.163 417.668 88.571 409.326 88.571 404.321 C88.163 398.759 86.122 385.412 85.714 383.187 C85.306 382.631 84.898 381.519 84.898 380.963 C84.898 380.406 84.082 381.519 83.673 383.743 Z" fill="#3498db"/>
    <path data-idx="39" d="M80.000 487.743 C78.776 492.193 78.367 502.759 79.184 503.872 C79.592 504.428 81.633 502.203 82.041 500.535 C82.857 498.866 82.449 494.973 81.633 491.080 C80.816 487.187 80.000 486.075 80.000 487.743 Z" fill="#f39c12"/>
    <path data-idx="40" d="M73.878 482.738 C73.469 483.850 73.061 483.850 73.061 483.294 C72.653 482.738 72.245 483.294 71.429 484.406 C69.796 486.631 68.980 488.856 66.531 493.861 C65.306 497.754 64.082 499.979 61.633 502.759 C58.776 506.652 57.959 508.877 58.776 509.989 C59.184 509.989 60.000 509.433 60.816 507.765 C62.857 504.984 63.265 504.984 61.633 507.765 C60.000 510.545 59.592 511.102 61.224 511.658 C61.633 511.658 62.449 511.102 63.673 508.877 C64.490 507.209 65.306 506.096 65.306 506.096 C65.306 506.096 65.306 506.652 63.673 509.989 C62.449 511.658 62.449 512.214 62.857 512.770 C64.082 513.882 64.898 513.326 66.531 509.989 C67.347 507.765 68.163 506.096 68.163 506.096 C68.163 506.652 67.755 508.321 66.531 509.989 C65.306 513.326 65.306 513.882 66.939 514.439 C67.755 514.995 68.163 514.439 69.796 511.102 C71.837 507.209 72.653 505.540 73.878 497.754 C76.327 483.294 76.735 480.513 73.878 482.738 Z M73.469 487.743 C73.061 489.412 71.837 492.749 71.020 495.529 C70.204 498.310 69.796 500.535 69.388 500.535 C69.388 499.979 73.061 486.631 73.878 484.963 C74.694 483.850 74.694 484.406 73.469 487.743 Z M71.429 487.187 C71.020 488.299 70.612 489.412 70.204 489.412 C70.204 489.412 71.020 487.187 71.429 486.075 C72.245 484.963 72.245 485.519 71.429 487.187 Z M68.163 496.086 C66.939 499.422 66.122 501.091 66.531 500.535 C66.531 498.866 69.796 489.968 70.204 489.968 C70.204 489.968 69.388 492.749 68.163 496.086 Z M68.980 502.759 C68.980 503.872 68.980 504.428 68.571 504.428 C68.571 503.872 68.571 503.316 68.980 502.759 C68.980 501.647 68.980 501.091 69.388 501.091 C69.388 501.647 69.388 502.203 68.980 502.759 Z" fill="#9b59b6"/>
    <path data-idx="41" d="M124.082 482.738 C123.673 482.738 123.673 483.850 123.673 484.406 C123.673 486.075 123.673 486.075 124.082 484.963 C124.082 484.406 124.490 484.406 124.490 484.406 C124.490 484.963 125.306 489.968 126.122 495.529 C127.755 504.428 129.796 511.658 130.612 511.658 C130.612 511.658 131.020 512.214 131.429 513.326 C131.837 514.995 132.245 514.995 133.469 514.995 C134.286 514.439 134.694 514.439 135.102 514.439 C135.102 513.882 134.694 512.770 134.286 511.658 L133.061 508.877 L134.286 511.102 C135.510 512.770 135.918 513.326 136.735 513.326 C136.735 512.770 137.551 512.770 137.959 513.326 C138.367 514.439 138.367 513.326 137.959 512.214 C137.551 511.658 136.735 510.545 135.918 508.877 C135.102 507.209 135.102 507.209 136.735 509.433 C138.367 511.658 138.776 512.214 139.592 511.658 C140.408 511.658 140.816 510.545 140.000 509.433 C139.592 508.877 139.592 508.877 140.000 509.433 C140.816 509.989 141.633 509.989 141.633 509.433 C142.041 508.321 138.776 502.759 138.367 503.316 C137.959 503.316 135.918 499.979 135.918 498.866 C135.918 498.866 135.510 498.310 135.102 497.754 C134.694 497.198 134.286 496.086 134.694 496.086 C134.694 495.529 134.694 495.529 134.286 495.529 C133.878 495.529 133.878 495.529 133.878 494.973 C134.286 494.973 134.286 494.417 133.878 494.417 C133.878 494.417 133.061 492.749 132.653 491.080 C131.837 489.968 131.020 488.299 131.020 488.299 C131.020 488.299 130.204 487.187 129.796 486.075 C128.163 483.294 124.898 481.070 124.082 482.738 Z M126.939 486.631 C128.163 489.968 130.204 498.310 130.204 498.866 C130.204 498.866 129.388 496.642 128.980 494.417 C128.163 491.636 126.939 488.299 126.531 486.631 C125.714 484.963 125.306 483.294 125.306 483.294 C125.714 483.294 126.122 484.963 126.939 486.631 Z M131.837 493.305 C132.245 494.973 132.653 496.086 132.653 496.642 C132.653 496.642 131.837 494.973 131.429 493.305 C130.612 491.636 130.204 490.524 130.204 490.524 C130.612 490.524 131.020 491.636 131.837 493.305 Z M131.020 502.203 C131.020 502.759 131.020 502.759 130.612 501.647 C130.612 501.091 130.204 500.535 130.204 499.979 C130.204 499.422 130.204 499.422 130.612 499.979 C130.612 501.091 131.020 501.647 131.020 502.203 Z M132.653 507.765 C132.653 508.321 132.245 507.765 132.245 507.209 C131.837 506.652 131.429 505.540 131.429 504.984 C131.429 504.984 131.837 505.540 132.245 506.096 C132.245 506.652 132.653 507.765 132.653 507.765 Z" fill="#1abc9c"/>
    <path data-idx="42" d="M77.143 483.294 C77.143 483.850 76.327 486.075 75.918 488.299 C75.510 491.080 75.102 494.417 74.694 496.086 C74.286 498.310 73.878 499.422 74.286 499.422 C74.694 500.535 74.694 501.091 74.286 500.535 C73.469 500.535 73.469 500.535 73.469 501.647 C73.469 502.203 73.469 502.759 73.878 502.203 C74.286 502.203 74.286 502.759 73.878 503.316 C73.469 503.872 72.653 506.096 72.653 507.765 C72.245 509.989 71.429 511.658 71.020 512.214 C70.204 513.326 70.612 513.882 72.653 514.439 C74.286 514.995 74.694 514.439 75.918 511.658 C75.918 511.102 76.327 509.989 76.735 509.989 C78.367 510.545 78.367 508.877 78.776 499.422 C78.776 495.529 78.776 489.968 78.776 487.743 C79.184 484.406 79.184 483.850 78.367 483.294 C77.551 482.182 77.551 482.182 77.143 483.294 Z" fill="#e67e22"/>
    <path data-idx="43" d="M121.224 484.406 C120.408 486.075 120.816 502.759 121.633 506.096 C122.041 509.433 122.857 510.545 123.265 509.989 C123.673 509.989 124.082 510.545 124.490 511.658 C125.306 514.439 126.122 515.551 128.163 514.439 C128.980 513.882 129.796 513.326 129.796 513.326 C129.796 512.214 128.980 509.989 128.980 511.102 C128.980 512.214 128.163 511.102 127.755 508.877 C127.347 507.209 126.939 504.984 126.531 503.316 C125.714 502.203 125.306 499.422 124.898 497.198 C123.265 484.963 122.449 481.626 121.224 484.406 Z" fill="#16a085"/>
  </g>
  <g class="labels" font-family="monospace" font-size="8" font-weight="bold" fill="#000" stroke="#fff" stroke-width="0.3" paint-order="stroke" text-anchor="middle">
    <text x="92.4" y="77.5">0</text>
    <text x="107.7" y="77.6">1</text>
    <text x="100.1" y="80.3">2</text>
    <text x="121.1" y="85.3">3</text>
    <text x="79.0" y="85.5">4</text>
    <text x="87.7" y="86.4">5</text>
    <text x="112.3" y="87.0">6</text>
    <text x="147.3" y="107.1">7</text>
    <text x="52.6" y="107.1">8</text>
    <text x="120.1" y="120.0">9</text>
    <text x="80.0" y="120.1">10</text>
    <text x="151.1" y="153.6">11</text>
    <text x="48.5" y="153.7">12</text>
    <text x="90.8" y="156.9">13</text>
    <text x="109.3" y="157.0">14</text>
    <text x="109.1" y="176.9">15</text>
    <text x="91.0" y="176.9">16</text>
    <text x="127.8" y="177.1">17</text>
    <text x="72.2" y="177.2">18</text>
    <text x="109.1" y="196.2">19</text>
    <text x="91.1" y="196.2">20</text>
    <text x="29.5" y="206.5">21</text>
    <text x="170.2" y="206.7">22</text>
    <text x="38.5" y="215.0">23</text>
    <text x="161.1" y="215.0">24</text>
    <text x="92.7" y="229.5">25</text>
    <text x="107.6" y="229.5">26</text>
    <text x="66.5" y="239.0">27</text>
    <text x="133.4" y="239.1">28</text>
    <text x="111.7" y="273.8">29</text>
    <text x="88.3" y="273.9">30</text>
    <text x="74.3" y="304.2">31</text>
    <text x="125.6" y="304.3">32</text>
    <text x="122.9" y="371.7">33</text>
    <text x="76.9" y="371.8">34</text>
    <text x="69.0" y="418.2">35</text>
    <text x="130.8" y="418.3">36</text>
    <text x="117.9" y="421.8">37</text>
    <text x="81.9" y="422.2">38</text>
    <text x="80.3" y="495.7">39</text>
    <text x="68.2" y="500.0">40</text>
    <text x="131.8" y="500.2">41</text>
    <text x="75.7" y="500.7">42</text>
    <text x="123.7" y="500.9">43</text>
  </g>
</svg>