<svg xmlns="http://www.w3.org/2000/svg" viewBox="0 0 200 520">
  <path id="body" d="M97.252 0.561 C92.178 1.683 86.681 7.292 84.567 12.902 C82.875 16.828 82.452 20.755 82.452 26.365 C82.452 30.291 82.452 30.852 81.607 30.852 C80.761 30.291 79.493 32.535 79.493 35.340 C79.493 39.827 82.030 48.242 83.721 48.803 C84.989 49.924 85.835 58.339 85.412 63.948 C84.989 69.558 84.567 70.680 82.452 73.484 C78.647 77.972 64.271 86.386 56.660 88.069 C53.700 89.191 50.740 90.313 49.471 91.435 C46.512 93.679 42.706 98.727 41.438 103.215 C38.478 111.068 38.478 113.873 38.055 126.775 C38.055 137.994 38.055 139.115 37.209 143.603 C36.364 147.530 35.941 150.895 35.518 155.944 C34.672 168.846 34.672 169.968 30.867 180.065 C25.370 193.528 24.101 200.259 21.987 219.331 C20.719 232.794 18.605 241.769 16.068 250.183 C15.222 252.427 14.376 253.549 11.839 255.793 C7.611 259.720 6.765 260.841 5.074 264.768 C4.651 267.012 2.960 269.817 1.691 271.499 C0.000 275.426 -0.423 276.548 0.423 277.670 C1.691 279.353 5.497 277.670 7.188 274.304 L8.034 272.621 L7.611 274.865 C7.611 276.548 7.188 280.475 6.342 284.401 C4.651 294.498 3.805 301.230 4.228 302.913 C4.651 304.595 6.342 304.595 7.188 302.913 C8.034 301.791 8.034 301.791 7.611 304.595 C7.611 306.839 7.611 307.400 8.457 308.522 C9.302 310.205 10.994 309.644 11.839 307.400 C12.685 305.717 12.685 305.717 12.685 306.839 C13.108 308.522 14.376 309.083 15.645 308.522 C16.490 307.961 17.759 305.156 18.182 302.352 C18.182 300.669 18.182 300.669 18.605 301.791 C19.450 303.474 21.142 304.035 21.987 302.352 C22.410 301.791 23.679 297.303 24.524 293.376 C25.370 289.450 26.638 283.279 27.484 279.353 C28.753 273.743 28.753 273.182 29.175 264.207 C29.175 255.793 29.175 255.232 30.444 250.744 C32.558 244.013 36.364 234.477 40.169 227.745 C44.397 219.331 46.934 213.161 48.626 206.429 C49.894 201.381 50.317 198.576 51.163 186.796 C52.008 180.626 52.431 178.943 54.123 172.772 C56.237 166.602 58.351 158.188 58.774 155.383 C59.197 154.261 63.848 173.894 64.693 179.504 C66.385 190.162 66.808 198.015 65.539 210.356 C65.116 218.209 64.693 221.014 62.579 237.282 C60.888 249.622 58.351 280.475 57.505 296.742 C56.660 311.888 57.928 326.472 60.888 344.423 C64.693 365.178 64.693 373.592 62.579 389.299 C61.311 398.835 61.311 400.518 61.311 409.493 C61.311 419.029 61.311 420.151 62.579 427.443 C68.499 462.222 68.922 466.710 68.922 482.977 L68.922 495.318 L65.539 499.806 C63.848 502.050 62.156 504.293 61.734 504.293 C59.197 504.293 58.351 509.342 60.042 511.586 C61.311 513.269 64.693 514.951 66.385 514.951 C66.808 514.951 68.499 516.073 70.190 517.195 C72.727 519.439 73.150 519.439 76.110 520.000 C79.915 520.000 82.030 518.878 83.298 515.512 C84.144 512.708 84.567 509.903 83.298 503.732 C82.875 500.367 82.875 497.562 82.875 493.074 C83.298 488.587 83.298 486.904 82.452 484.099 C80.761 476.246 82.452 455.491 85.835 436.419 C89.218 415.663 89.641 411.737 86.681 394.908 C85.412 385.372 85.412 382.567 87.526 374.153 C88.795 367.422 89.218 361.812 90.486 344.423 C91.332 337.691 91.755 332.643 93.446 325.351 C97.252 305.156 98.520 295.059 98.520 285.523 C98.520 278.792 98.943 275.987 99.789 277.109 C100.211 277.670 100.634 281.036 100.634 286.084 C101.057 296.742 102.326 305.717 104.863 320.302 C107.400 334.326 108.245 338.813 109.091 351.715 C109.514 364.617 109.937 367.422 111.628 374.714 C113.319 382.006 113.319 385.372 111.628 396.030 C109.937 407.249 109.514 417.346 111.205 425.200 C114.588 446.516 115.856 455.491 116.279 468.393 C116.279 476.246 116.279 478.490 115.856 482.416 C115.011 485.782 115.011 488.587 115.433 492.513 C115.433 497.001 115.433 499.806 115.011 503.172 C113.742 511.586 114.165 516.073 116.702 518.317 C117.970 519.439 118.816 519.439 121.776 519.439 C125.159 519.439 125.581 519.439 128.118 517.756 C129.387 516.634 131.924 514.951 133.192 514.391 C137.844 513.269 139.112 511.586 139.112 507.659 C139.112 505.976 138.689 505.415 136.998 504.293 C135.729 503.732 133.615 501.489 132.347 499.245 L129.810 495.879 L129.387 491.392 C128.964 480.734 129.387 469.515 129.810 463.905 C130.655 457.735 133.615 441.467 135.729 430.809 C138.266 416.224 138.689 407.249 136.152 388.738 C134.884 379.202 134.884 377.519 134.884 368.544 C135.307 361.251 135.307 357.886 136.152 353.398 C140.803 327.594 141.226 324.790 141.649 307.961 C141.649 293.376 141.649 292.816 139.535 263.085 C137.844 247.379 137.844 244.013 136.152 232.233 C134.461 221.014 133.192 204.186 133.192 198.015 C133.192 192.967 134.038 182.869 134.884 177.821 C135.307 176.138 136.998 170.529 138.266 164.919 C140.381 155.944 140.803 155.383 141.226 156.505 C141.649 157.627 141.649 158.749 141.649 158.749 C141.649 159.310 142.495 162.675 143.763 166.602 C145.032 170.529 146.723 175.577 147.146 177.821 C147.992 180.626 148.414 183.430 148.837 190.162 C150.106 205.307 152.220 212.600 158.985 226.063 C163.214 235.038 167.019 243.452 169.133 250.183 C170.402 254.671 170.402 255.793 170.402 258.598 C169.979 268.134 170.402 272.060 171.670 278.792 C172.516 282.157 173.784 288.328 174.630 291.694 C176.321 300.669 177.167 302.913 178.436 303.474 C179.704 303.474 180.550 302.913 180.550 301.230 C180.550 300.108 180.973 300.669 180.973 301.791 C181.818 305.156 182.664 307.400 183.510 308.522 C184.355 309.083 184.778 309.083 185.624 308.522 C186.047 307.961 186.469 307.400 186.469 305.717 L186.469 303.474 L186.892 305.717 C187.315 307.961 188.584 309.644 189.429 309.644 C191.121 309.644 191.543 308.522 191.543 305.717 C191.543 303.474 191.543 303.474 192.389 304.035 C193.235 304.595 193.658 304.035 194.503 303.474 C195.349 302.913 195.349 302.352 195.349 298.986 C194.926 296.742 194.080 290.572 193.235 284.962 C192.389 279.353 191.543 274.304 191.543 273.743 C191.543 273.182 191.966 273.743 192.812 274.865 C194.926 278.231 197.886 279.353 199.154 277.109 C200.000 275.987 200.000 275.987 199.577 274.865 C195.772 268.134 194.926 265.890 194.080 263.646 C192.812 260.841 191.966 259.720 187.315 255.793 L184.355 252.988 L182.664 246.818 C180.127 238.964 179.281 232.233 178.013 220.453 C175.476 199.137 174.207 193.528 169.979 181.748 C165.751 171.090 165.328 169.407 164.905 158.749 C164.482 149.213 164.059 147.530 162.791 140.798 C161.945 137.433 161.522 136.311 161.945 132.945 C162.368 127.896 162.368 118.360 161.522 112.751 C160.677 106.019 158.985 100.410 156.025 96.483 C153.066 91.996 150.106 89.752 144.186 88.630 C136.152 86.386 122.622 78.533 118.816 74.045 C116.279 71.241 115.433 69.558 115.011 64.509 C114.588 58.900 115.433 49.924 116.702 48.803 C117.548 48.803 118.393 47.120 118.816 45.437 C121.776 37.023 121.776 30.852 118.816 30.852 C117.970 30.852 117.970 30.852 117.970 28.047 C118.393 24.121 117.548 17.389 116.702 14.024 C113.319 4.488 105.285 -1.122 97.252 0.561 Z" fill="#3a3e3a"/>
  <g class="muscles">
    <path data-idx="0" d="M102.326 45.437 L101.480 46.559 L101.057 105.458 C101.057 137.994 101.057 165.480 101.480 166.041 C101.903 167.163 101.903 167.163 103.171 164.358 C105.285 159.871 113.742 139.676 116.702 131.823 C119.662 123.970 120.930 120.043 122.622 111.068 C125.581 97.605 127.273 94.800 134.884 91.996 C138.689 90.313 139.535 89.191 138.266 88.069 C138.266 87.508 134.884 85.825 131.078 83.581 C120.930 77.972 116.702 74.045 115.011 69.558 C114.588 67.875 113.742 65.631 112.896 64.509 C112.474 63.387 111.628 59.461 110.782 56.095 C109.937 52.168 109.091 48.803 108.668 48.242 C107.400 44.315 104.440 43.193 102.326 45.437 Z" fill="#e74c3c"/>
    <path data-idx="1" d="M93.446 45.437 C91.755 46.559 90.909 48.803 89.218 57.217 C87.104 65.070 85.412 70.680 83.298 73.484 C82.452 74.606 81.607 75.167 81.607 75.167 C81.607 74.606 81.184 75.167 80.761 75.728 C79.915 76.850 72.727 81.899 66.385 85.264 C62.156 87.508 60.888 88.630 61.734 89.752 C61.734 89.752 63.425 90.874 65.116 91.996 C70.613 94.239 72.727 95.922 73.996 99.288 C76.110 103.215 76.110 104.337 77.801 112.190 C79.915 123.970 81.607 127.896 90.909 149.773 C97.252 166.041 98.097 167.163 98.520 166.602 C98.943 165.480 98.943 49.364 98.520 47.120 C97.674 44.315 95.560 43.754 93.446 45.437 Z" fill="#2ecc71"/>
    <path data-idx="2" d="M52.008 90.874 C48.626 91.435 43.975 97.044 41.860 103.215 C41.438 104.898 40.592 106.580 40.592 106.580 C40.592 106.580 40.169 107.141 40.169 107.141 C40.169 107.702 39.746 109.946 39.746 112.190 C38.901 116.117 38.478 125.653 38.901 133.506 C38.901 135.189 39.323 134.628 41.015 131.823 C43.129 127.896 49.471 118.921 54.545 113.312 C57.082 110.507 59.197 107.702 60.042 107.141 C60.465 106.580 60.888 106.019 61.311 106.019 C61.311 106.019 63.002 104.337 65.116 102.654 C70.190 97.044 69.767 95.922 61.311 92.557 C56.237 90.313 55.391 90.313 52.008 90.874 Z" fill="#3498db"/>
    <path data-idx="3" d="M139.112 92.557 C133.615 95.361 131.924 96.483 131.924 97.605 C131.924 98.727 137.844 105.458 138.689 105.458 C138.689 105.458 139.112 106.019 139.535 106.019 C139.535 106.580 142.495 109.946 145.455 113.312 C151.797 120.043 157.717 128.457 159.831 132.384 C160.254 134.067 161.099 134.628 161.099 134.067 C161.522 133.506 161.945 114.434 161.522 112.751 C159.831 106.019 158.985 103.776 158.140 100.971 C155.180 95.361 154.757 94.800 154.757 94.800 C154.334 94.800 153.488 94.239 152.643 93.118 C151.374 91.996 150.106 91.435 148.414 90.874 C147.146 90.874 145.455 90.874 145.032 90.874 C144.186 90.313 141.649 91.435 139.112 92.557 Z" fill="#f39c12"/>
    <path data-idx="4" d="M127.273 102.093 C126.850 103.215 126.004 106.019 125.581 108.824 C124.736 111.629 123.467 116.677 122.622 120.043 C120.085 129.579 120.085 128.457 123.044 130.140 C128.118 132.384 135.307 132.384 139.112 129.579 C139.958 129.018 141.226 127.335 142.072 126.214 C142.918 124.531 143.340 123.970 143.340 118.921 L143.340 113.312 L141.226 111.068 C137.844 107.141 132.770 102.093 131.078 101.532 C129.387 99.849 128.118 100.410 127.273 102.093 Z" fill="#9b59b6"/>
    <path data-idx="5" d="M66.808 103.215 C62.156 107.702 57.082 112.751 57.082 113.873 C57.082 114.434 57.082 116.117 57.082 117.799 C56.237 122.848 56.660 124.531 58.774 127.335 C60.888 130.701 64.271 131.823 68.499 131.823 C71.882 131.823 77.378 130.701 78.647 129.018 C79.493 127.896 79.493 127.896 78.224 122.287 C77.378 118.921 76.110 113.312 75.264 109.946 C73.573 103.215 72.304 100.410 71.036 100.410 C70.190 100.410 68.499 101.532 66.808 103.215 Z" fill="#1abc9c"/>
    <path data-idx="6" d="M146.300 118.921 C145.877 118.921 145.032 121.726 144.186 130.140 C142.918 141.359 142.918 145.286 143.340 151.456 C144.609 160.431 146.300 166.602 150.106 173.894 C153.066 180.065 158.140 186.235 159.831 185.113 C160.254 185.113 160.677 184.552 161.099 183.991 C162.368 181.187 163.214 154.822 162.368 148.091 C161.099 136.311 156.448 126.775 150.529 121.165 C147.569 118.360 147.569 118.360 146.300 118.921 Z" fill="#e67e22"/>
    <path data-idx="7" d="M49.471 121.165 C44.820 126.214 40.592 134.067 38.478 142.481 C37.632 146.408 37.632 148.652 37.209 155.383 C37.209 163.797 37.632 178.943 38.478 182.309 C38.901 183.430 39.323 184.552 39.746 185.113 C40.169 186.235 40.169 186.235 41.860 185.674 C46.934 182.309 52.854 169.968 55.391 158.749 C56.660 150.334 57.082 144.164 55.814 132.384 C54.968 121.165 54.123 118.360 52.854 118.360 C52.431 118.360 51.163 119.482 49.471 121.165 Z" fill="#16a085"/>
    <path data-idx="8" d="M138.689 132.384 C135.729 134.067 131.501 134.628 127.273 134.067 C125.581 133.506 123.044 132.945 122.199 132.384 C119.662 131.262 119.239 131.823 118.393 134.067 C117.970 135.189 115.011 142.481 111.628 150.334 C108.245 158.188 105.285 165.480 104.863 167.163 C103.594 172.772 104.863 181.187 109.514 199.137 C112.051 209.795 115.011 218.209 116.702 219.892 C117.548 220.453 117.548 220.453 118.393 219.331 C119.239 218.209 120.507 214.283 121.776 209.234 C125.159 198.015 127.273 191.845 132.347 177.821 C134.884 171.090 137.421 162.675 138.266 158.749 C139.112 154.822 140.381 151.456 140.381 150.895 C140.803 150.334 140.803 148.091 140.803 146.408 C140.803 144.164 140.803 140.798 141.226 137.994 C141.649 133.506 141.649 130.701 140.803 130.701 C140.803 130.701 139.958 131.262 138.689 132.384 Z" fill="#2980b9"/>
    <path data-idx="9" d="M58.351 132.384 C58.351 132.384 58.351 134.628 58.351 136.311 C58.774 137.994 58.774 141.920 59.197 144.164 C59.197 153.139 61.734 162.675 68.499 181.187 C71.036 188.479 74.419 198.576 76.110 203.064 C79.070 213.722 81.607 219.892 82.452 219.892 C82.452 220.453 83.298 220.453 83.721 219.892 C87.526 217.087 95.560 185.113 95.560 172.211 C95.560 167.163 95.983 168.285 89.218 152.017 C87.104 146.408 84.144 139.676 83.298 136.872 C80.761 131.262 81.607 131.262 76.533 133.506 C74.419 134.067 72.304 134.067 68.922 134.067 C64.693 134.067 63.848 134.067 61.311 132.945 C59.197 131.823 58.774 131.262 58.351 132.384 Z" fill="#c0392b"/>
    <path data-idx="10" d="M131.078 186.796 C128.118 194.088 122.622 212.600 122.622 215.965 C122.622 217.648 122.622 217.648 124.313 217.648 C126.427 217.648 128.541 218.770 131.078 221.575 C132.347 222.697 133.192 223.819 133.192 223.819 C134.038 223.819 134.038 218.209 133.192 211.478 C132.770 206.429 132.770 200.820 132.770 193.528 C133.192 187.918 132.770 183.430 132.770 183.430 C132.770 183.430 131.924 185.113 131.078 186.796 Z" fill="#27ae60"/>
    <path data-idx="11" d="M66.808 185.113 C66.808 185.674 66.808 190.723 66.808 195.771 C66.808 200.820 66.385 208.112 66.385 212.039 C65.539 218.209 65.539 223.819 66.385 223.819 C66.385 223.819 67.230 222.697 68.076 222.136 C71.036 219.331 73.150 217.648 75.264 217.648 C76.956 217.648 77.378 217.648 77.378 216.526 C77.378 213.722 71.036 192.967 68.499 186.796 C67.230 183.991 66.808 183.430 66.808 185.113 Z" fill="#8e44ad"/>
    <path data-idx="12" d="M33.827 174.455 C33.404 175.577 32.981 176.138 32.981 176.138 C32.981 176.138 31.712 179.504 30.021 183.430 C28.330 187.918 27.061 191.284 27.061 191.284 C26.638 191.284 26.638 191.845 26.638 191.845 C27.061 191.845 26.638 193.528 26.216 194.649 C25.793 197.454 23.679 208.112 23.256 210.917 C22.833 219.331 21.564 229.989 20.719 233.916 C20.296 236.160 19.873 238.964 19.873 239.525 C19.873 240.086 19.450 242.330 19.027 244.574 C17.759 249.061 17.759 249.061 18.605 249.622 C19.027 250.183 19.450 250.183 19.450 250.183 C19.873 250.183 23.256 240.086 27.061 227.745 C28.753 222.136 31.290 213.161 32.981 208.673 C36.786 197.454 37.209 194.649 35.941 182.309 C35.518 172.772 35.095 171.650 33.827 174.455 Z" fill="#d35400"/>
    <path data-idx="13" d="M164.482 177.260 C162.791 194.649 162.791 196.332 167.865 211.478 C169.979 217.648 172.516 225.502 173.362 228.867 C178.436 246.818 179.704 249.622 180.127 250.183 C180.127 250.183 180.550 250.183 180.973 249.622 C181.395 249.061 181.395 248.501 180.550 244.574 C180.127 242.330 179.704 240.086 179.704 239.525 C180.127 239.525 179.704 238.403 179.281 236.721 C178.436 231.111 176.744 218.770 176.321 209.795 C175.899 208.673 175.476 204.746 174.630 201.381 C174.207 198.015 173.784 194.649 173.784 194.088 C173.784 194.088 173.362 193.528 173.362 193.528 C173.362 193.528 172.939 192.967 172.939 191.845 C172.516 189.601 167.442 176.699 166.596 175.577 C166.173 175.016 165.751 173.894 165.328 173.333 C164.905 172.772 164.905 173.333 164.482 177.260 Z" fill="#f1c40f"/>
    <path data-idx="14" d="M150.529 181.187 C150.529 183.991 151.797 190.162 153.066 194.649 C154.757 201.381 157.717 209.234 163.214 222.697 C166.173 229.428 169.979 238.403 171.670 241.769 C175.899 251.866 176.321 252.427 177.167 251.866 C177.590 251.305 178.013 251.305 178.013 250.744 C178.013 250.183 171.247 223.819 169.979 219.892 C167.442 210.917 162.368 198.015 161.099 195.771 C158.562 192.406 155.180 186.796 153.488 182.869 C152.220 181.187 151.374 179.504 150.951 179.504 C150.529 179.504 150.529 180.065 150.529 181.187 Z" fill="#34495e"/>
    <path data-idx="15" d="M46.934 183.430 C45.666 185.674 43.129 189.601 41.438 192.406 C39.323 195.210 37.632 198.015 37.632 198.576 C37.209 199.137 37.209 199.698 36.786 199.698 C36.364 199.698 36.364 199.698 36.364 200.259 C36.786 200.259 36.786 200.820 36.364 200.820 C35.518 201.381 30.444 217.648 26.638 231.111 C21.142 251.305 21.142 251.305 21.987 251.866 C22.833 252.988 23.256 252.427 24.947 249.061 C28.330 242.330 41.438 211.478 43.552 205.307 C46.934 196.332 49.894 185.113 49.471 180.626 C49.471 179.504 49.049 179.504 46.934 183.430 Z" fill="#7f8c8d"/>
    <path data-idx="16" d="M100.634 176.699 C100.211 178.382 100.211 180.065 100.211 180.065 C99.789 180.626 99.789 179.504 99.366 177.260 C98.943 175.577 98.943 173.894 98.520 173.894 C98.520 173.894 97.674 177.260 96.829 181.748 C95.137 191.845 92.600 203.064 89.641 212.039 C88.372 215.965 87.526 219.331 87.526 219.892 C87.526 221.014 89.218 226.063 91.332 231.672 C93.446 237.282 95.560 244.574 96.829 247.379 C97.674 250.744 98.520 254.110 98.943 254.671 C99.789 255.793 99.789 255.793 100.634 255.232 C101.057 254.671 101.903 251.305 102.748 247.940 C103.594 245.135 106.131 237.282 108.668 231.672 C112.051 222.697 112.474 220.453 112.474 218.770 C112.051 217.648 110.782 212.039 109.091 205.868 C107.400 199.698 105.285 190.162 104.017 184.552 C102.748 178.943 101.480 173.894 101.480 173.894 C101.480 173.333 101.057 174.455 100.634 176.699 Z" fill="#e84393"/>
    <path data-idx="17" d="M150.106 194.088 C150.951 204.746 153.911 214.283 159.831 226.063 C163.636 233.916 165.751 238.403 168.710 245.696 C170.825 251.305 172.093 253.549 172.939 253.549 C174.207 253.549 173.784 251.866 170.825 243.452 C167.442 234.477 165.328 228.867 158.562 212.600 C156.448 208.112 153.911 201.381 152.643 198.015 C151.374 194.088 150.106 191.284 150.106 191.284 C149.683 191.284 149.683 192.406 150.106 194.088 Z" fill="#00b894"/>
    <path data-idx="18" d="M47.357 198.015 C46.089 201.942 42.283 211.478 38.901 219.331 C31.290 237.282 25.370 252.427 25.793 252.988 C25.793 253.549 26.216 253.549 26.638 253.549 C27.484 253.549 27.907 252.988 29.175 249.622 C30.444 245.696 33.404 239.525 33.827 238.964 C33.827 238.964 34.672 237.282 35.095 235.599 C35.941 234.477 38.478 229.428 40.592 225.502 C45.243 215.965 47.357 210.356 48.626 202.503 C49.894 196.893 50.740 191.284 50.317 191.284 C49.894 191.284 48.626 194.649 47.357 198.015 Z" fill="#fdcb6e"/>
    <path data-idx="19" d="M71.459 221.575 C68.922 223.819 65.962 227.745 64.271 231.672 C63.425 235.038 61.734 249.061 62.156 251.866 C62.156 253.549 62.156 253.549 64.271 249.061 C68.076 240.086 75.264 231.672 80.761 229.428 C82.452 228.867 83.721 228.306 83.721 227.745 C84.144 227.184 81.184 223.819 78.647 222.136 C75.687 220.453 73.996 219.892 71.459 221.575 Z" fill="#6c5ce7"/>
    <path data-idx="20" d="M120.507 222.136 C117.548 224.380 115.011 227.184 115.433 227.745 C115.433 228.306 116.702 228.306 117.970 228.867 C118.816 228.867 120.085 229.428 120.507 229.989 C120.930 229.989 122.199 231.672 123.890 232.794 C125.159 233.916 127.273 236.160 128.118 237.282 C131.078 240.647 134.884 247.379 136.152 250.744 C136.998 253.549 136.998 254.110 137.421 252.988 C137.844 251.866 136.998 242.891 136.152 236.721 C134.884 228.867 129.387 220.453 124.736 220.453 C123.890 220.453 122.199 221.014 120.507 222.136 Z" fill="#fab1a0"/>
    <path data-idx="21" d="M114.165 230.550 C112.051 230.550 111.205 231.672 109.091 235.599 C103.594 245.696 99.366 267.012 101.057 275.426 C102.326 279.914 104.440 284.401 107.822 287.206 C109.091 288.328 110.782 289.450 110.782 288.889 C111.205 288.889 111.205 288.889 111.205 289.450 C111.205 289.450 112.474 290.572 114.588 291.133 C117.125 292.255 118.816 292.255 123.467 292.255 C128.541 292.255 128.964 292.255 130.655 291.133 C134.884 287.767 136.575 280.475 136.575 268.695 C136.575 260.841 136.152 256.915 133.615 249.622 C131.501 245.135 127.273 237.843 126.427 237.843 C126.427 237.843 125.581 237.282 124.736 236.160 C122.199 232.794 116.702 229.989 114.165 230.550 Z" fill="#55efc4"/>
    <path data-idx="22" d="M80.338 231.672 C70.613 237.282 63.848 249.622 62.579 264.768 C61.311 278.792 64.693 290.011 70.613 292.255 C73.573 293.376 81.607 292.816 85.412 291.133 C91.332 288.328 95.560 283.840 97.674 278.231 C100.634 268.695 95.560 242.891 88.372 232.794 C87.104 230.550 86.681 230.550 84.567 230.550 C83.721 230.550 81.607 231.111 80.338 231.672 Z" fill="#ffeaa7"/>
    <path data-idx="23" d="M60.042 277.670 C59.619 280.475 58.774 283.840 58.774 284.962 C58.351 287.206 58.351 294.498 58.351 304.595 C57.928 321.424 58.351 325.351 60.042 334.326 C60.465 336.570 60.888 338.252 60.888 338.813 C60.888 338.813 60.888 339.935 61.311 340.496 C61.734 341.618 61.734 341.618 61.734 339.935 C61.311 338.813 61.311 333.765 60.888 328.155 C60.888 317.497 61.311 310.766 63.425 303.474 C64.693 299.547 66.385 296.181 68.499 294.498 C69.345 293.937 69.345 293.937 67.653 292.816 C64.271 290.572 62.579 286.645 61.311 277.109 L60.465 272.621 L60.042 277.670 Z" fill="#a29bfe"/>
    <path data-idx="24" d="M138.266 275.987 C137.844 280.475 136.152 286.645 134.884 288.889 C134.461 290.572 133.192 291.694 131.924 292.255 C129.810 293.937 129.810 293.937 130.655 294.498 C133.192 295.620 136.152 302.352 137.421 310.205 C138.266 315.254 138.266 327.594 137.844 333.204 C136.998 342.740 136.998 344.984 137.421 343.301 C137.844 341.618 139.958 329.277 140.381 323.668 C141.649 310.766 141.226 286.645 139.958 279.353 C139.535 278.231 139.112 275.987 138.689 274.865 L138.266 272.621 L138.266 275.987 Z" fill="#74b9ff"/>
    <path data-idx="25" d="M102.748 287.206 C101.903 296.181 102.326 303.474 105.285 319.741 C106.131 324.229 108.245 330.399 108.668 330.399 C108.668 330.399 108.668 328.155 108.668 325.351 C108.668 319.180 109.091 309.083 110.359 300.108 C111.205 294.498 111.205 293.376 110.782 292.255 C110.782 291.694 110.359 291.694 110.359 292.255 C110.359 292.255 110.359 292.255 109.937 291.694 C109.937 291.694 109.091 290.572 107.822 290.011 C106.977 288.889 105.285 287.206 104.440 286.084 L102.748 284.401 L102.748 287.206 Z" fill="#ff7675"/>
    <path data-idx="26" d="M93.869 287.206 C91.755 290.011 90.486 291.133 90.486 290.572 C90.486 290.572 90.486 290.572 90.063 291.133 C90.063 291.133 89.218 291.694 88.795 291.694 C88.372 292.255 87.949 292.255 87.526 292.255 C87.526 292.816 87.949 295.059 88.372 298.425 C89.641 306.839 90.063 313.010 90.063 322.546 C90.063 327.033 90.486 330.960 90.486 330.399 C91.332 329.277 93.023 321.985 94.715 314.132 C95.983 307.400 96.406 304.035 96.829 297.864 C96.829 290.011 96.829 284.962 95.983 284.962 C95.983 284.962 95.137 286.084 93.869 287.206 Z" fill="#81ecec"/>
    <path data-idx="27" d="M113.742 293.937 C110.782 304.035 109.937 318.058 110.782 330.399 C111.205 334.887 111.628 344.423 111.628 352.276 C112.051 366.861 112.051 367.422 113.319 373.031 C114.165 376.397 115.011 379.202 115.011 379.202 C115.011 379.202 115.433 378.080 115.856 376.397 C116.279 375.275 117.548 369.666 119.239 364.056 C122.199 353.959 123.467 347.789 123.467 343.301 C123.467 338.813 124.313 341.618 124.313 347.228 C124.736 351.154 124.736 353.959 126.004 358.447 C127.696 364.617 131.078 374.153 131.501 374.153 C131.501 374.153 131.924 371.909 131.924 369.105 C131.924 366.300 132.347 362.373 132.770 360.129 C134.884 345.545 135.729 339.935 136.152 334.887 C136.998 322.546 136.575 311.888 134.461 304.595 C133.192 300.669 130.233 296.742 128.118 295.620 C126.004 295.059 120.507 295.059 120.507 295.620 C120.507 295.620 120.930 297.303 121.353 299.547 C122.622 305.156 123.890 314.693 123.890 322.546 L124.313 329.277 L123.890 324.229 C122.622 310.205 120.930 297.864 120.085 296.181 C119.662 295.620 118.393 295.059 117.548 294.498 C116.279 294.498 115.011 293.937 114.588 293.376 C114.165 293.376 113.742 293.376 113.742 293.937 Z" fill="#dfe6e9"/>
    <path data-idx="28" d="M82.452 294.498 C80.338 295.059 79.915 295.620 79.493 297.303 C77.801 301.230 76.110 314.132 75.687 320.863 C75.264 323.107 75.264 322.546 75.264 320.302 C75.264 315.254 76.956 302.352 79.070 296.181 C79.070 295.059 78.647 295.059 75.687 295.059 C70.190 295.059 67.653 296.742 65.539 302.913 C61.734 313.571 61.311 332.643 65.116 354.520 C65.962 358.447 66.385 364.617 66.808 367.983 L67.230 374.153 L69.767 367.422 C73.573 356.764 74.841 351.154 74.841 343.862 L74.841 341.057 L75.264 343.862 C75.687 344.984 75.687 347.789 76.110 350.032 C76.110 352.276 77.801 357.886 79.493 364.056 C81.184 369.105 82.452 375.275 82.875 376.397 C83.721 380.885 84.144 380.324 85.835 369.666 C87.104 364.617 87.104 361.812 87.526 350.032 C87.949 342.740 87.949 333.204 88.372 328.716 C88.795 321.424 88.795 315.254 87.949 307.961 C87.526 302.913 85.835 293.376 85.412 293.376 C85.412 293.376 84.144 293.937 82.452 294.498 Z" fill="#fd79a8"/>
    <path data-idx="29" d="M123.044 358.447 C122.622 358.447 121.776 360.690 121.353 363.495 C120.085 366.861 119.662 367.983 120.085 367.983 C120.507 367.422 120.930 367.983 120.507 368.544 C120.507 368.544 120.507 370.227 120.930 371.909 C121.353 373.031 121.776 375.275 122.199 375.836 C122.199 377.519 122.622 376.958 123.044 373.031 C123.467 370.227 123.890 367.422 124.736 365.739 L125.581 363.495 L124.736 361.251 C123.890 358.447 123.467 357.325 123.044 358.447 Z" fill="#00cec9"/>
    <path data-idx="30" d="M73.996 360.690 C73.150 363.495 73.150 364.056 73.996 365.178 C74.841 366.861 76.110 373.592 76.110 375.836 C76.110 376.958 76.110 378.080 76.533 378.080 C76.533 378.080 76.533 388.177 76.533 400.518 C76.533 412.859 76.533 424.078 76.533 425.761 C76.533 431.370 79.070 436.419 81.607 435.858 C83.721 434.736 86.258 427.443 87.104 418.468 C87.526 412.298 87.104 403.323 85.412 395.469 C84.567 389.299 81.184 375.275 79.915 372.470 C79.493 369.666 79.070 370.227 77.801 374.153 C76.956 376.958 76.956 376.958 77.378 375.275 C77.378 373.592 77.801 371.909 78.224 370.787 L79.070 368.544 L77.378 363.495 C76.533 360.690 75.687 357.886 75.264 357.886 C75.264 357.886 74.419 359.008 73.996 360.690 Z" fill="#b2bec3"/>
    <path data-idx="31" d="M71.459 367.983 C71.036 369.105 69.767 373.031 68.499 376.958 C62.579 396.030 61.311 407.249 63.002 419.590 C64.271 432.492 69.345 436.980 73.150 430.248 C75.687 425.761 75.687 424.639 75.687 399.957 C75.687 376.397 75.264 370.787 73.996 367.983 C73.150 365.178 72.304 365.178 71.459 367.983 Z" fill="#636e72"/>
    <path data-idx="32" d="M124.736 367.422 C124.313 368.544 123.890 371.348 123.467 372.470 C123.044 374.153 123.044 385.372 123.044 398.835 C123.044 420.712 123.044 422.395 123.890 425.761 C126.427 436.980 132.770 435.858 135.307 423.517 C136.998 415.663 136.998 405.566 134.884 394.908 C134.038 390.982 128.118 370.227 126.427 366.300 C126.004 364.617 125.581 364.617 124.736 367.422 Z" fill="#d63031"/>
    <path data-idx="33" d="M118.816 370.787 C118.816 371.348 118.393 372.470 117.970 373.592 C117.970 374.714 116.279 380.324 115.011 386.494 C111.205 402.762 110.359 411.737 112.051 421.273 C112.474 426.882 113.319 430.248 115.011 433.053 C116.702 436.980 119.239 436.419 120.930 431.931 C121.776 429.687 121.776 429.126 121.776 403.323 C121.776 378.641 121.776 376.397 120.930 373.031 C120.085 369.666 119.239 369.105 118.816 370.787 Z" fill="#0984e3"/>
    <path data-idx="34" d="M122.199 430.809 C121.776 432.492 121.353 434.175 120.085 435.858 C119.239 437.540 118.816 437.540 117.548 437.540 C116.702 437.540 115.856 437.540 115.856 437.540 C115.856 437.540 116.279 440.345 116.702 443.150 C118.393 453.808 118.816 463.905 119.239 479.612 C119.239 488.587 119.239 495.879 119.662 497.001 C119.662 498.684 120.930 498.684 121.776 497.562 C122.622 496.440 123.467 491.392 124.736 479.612 C126.427 461.100 128.541 446.516 131.078 435.858 C131.078 435.297 130.655 434.736 129.387 434.736 C127.273 434.736 125.581 433.614 123.890 429.687 C123.467 429.126 123.044 428.004 123.044 428.004 C123.044 428.004 122.622 429.126 122.199 430.809 Z" fill="#e17055"/>
    <path data-idx="35" d="M74.841 429.687 C73.573 433.053 71.036 435.858 68.922 434.736 C67.653 434.736 67.653 434.736 67.653 435.858 C69.345 442.028 71.882 460.539 73.573 480.173 C74.419 488.026 75.687 495.318 75.687 496.440 C76.533 499.245 78.224 499.245 78.647 497.562 C78.647 497.001 79.070 488.026 79.493 477.929 C79.915 460.539 80.338 452.125 82.030 442.589 L82.875 437.540 L81.184 437.540 C79.493 437.540 77.378 434.736 76.533 431.370 C75.687 428.004 75.264 427.443 74.841 429.687 Z" fill="#00b894"/>
    <path data-idx="36" d="M131.078 448.198 C128.118 463.905 127.273 472.319 126.850 486.904 C126.850 497.562 126.850 499.806 128.541 496.440 C128.964 494.196 128.964 493.635 128.541 488.587 C128.118 476.807 128.964 463.905 132.347 445.394 C132.770 443.150 133.192 440.345 133.192 439.784 C133.192 439.223 132.347 443.150 131.078 448.198 Z" fill="#e74c3c"/>
    <path data-idx="37" d="M65.539 440.906 C65.539 440.906 65.962 444.833 66.808 448.759 C69.345 465.027 70.613 479.051 69.767 485.221 C69.767 487.465 69.345 489.709 69.345 491.392 C69.345 493.635 70.613 498.123 71.036 498.123 C71.459 498.123 71.459 486.343 71.036 477.368 C70.613 468.393 69.345 459.417 67.230 448.759 C65.962 441.467 65.539 439.223 65.539 440.906 Z" fill="#2ecc71"/>
  </g>
  <g class="labels" font-family="monospace" font-size="8" font-weight="bold" fill="#000" stroke="#fff" stroke-width="0.3" paint-order="stroke" text-anchor="middle">
    <text x="111.4" y="100.7">0</text>
    <text x="88.3" y="100.7">1</text>
    <text x="50.5" y="106.7">2</text>
    <text x="149.7" y="106.7">3</text>
    <text x="132.1" y="118.0">4</text>
    <text x="67.7" y="118.1">5</text>
    <text x="153.0" y="151.4">6</text>
    <text x="46.5" y="151.9">7</text>
    <text x="121.5" y="168.8">8</text>
    <text x="78.2" y="169.3">9</text>
    <text x="129.2" y="206.4">10</text>
    <text x="70.1" y="206.5">11</text>
    <text x="28.3" y="207.4">12</text>
    <text x="171.2" y="207.4">13</text>
    <text x="163.6" y="213.8">14</text>
    <text x="35.9" y="214.0">15</text>
    <text x="99.9" y="215.6">16</text>
    <text x="160.5" y="222.7">17</text>
    <text x="38.9" y="222.9">18</text>
    <text x="70.7" y="231.9">19</text>
    <text x="128.3" y="231.9">20</text>
    <text x="118.7" y="263.6">21</text>
    <text x="80.2" y="263.6">22</text>
    <text x="60.9" y="301.5">23</text>
    <text x="137.9" y="302.0">24</text>
    <text x="106.3" y="303.6">25</text>
    <text x="92.4" y="303.8">26</text>
    <text x="122.6" y="330.2">27</text>
    <text x="75.9" y="330.3">28</text>
    <text x="122.4" y="366.0">29</text>
    <text x="80.6" y="402.5">30</text>
    <text x="69.6" y="403.0">31</text>
    <text x="128.7" y="403.2">32</text>
    <text x="117.2" y="406.1">33</text>
    <text x="122.5" y="458.2">34</text>
    <text x="75.6" y="458.3">35</text>
    <text x="128.6" y="474.2">36</text>
    <text x="69.5" y="475.2">37</text>
  </g>
</svg>