<svg xmlns="http://www.w3.org/2000/svg" viewBox="0 0 490 935">
  <path id="body" d="M238.000 5.000 C226.000 7.000 213.000 17.000 208.000 27.000 C204.000 34.000 203.000 41.000 203.000 51.000 C203.000 58.000 203.000 59.000 201.000 59.000 C199.000 58.000 196.000 62.000 196.000 67.000 C196.000 75.000 202.000 90.000 206.000 91.000 C209.000 93.000 211.000 108.000 210.000 118.000 C209.000 128.000 208.000 130.000 203.000 135.000 C194.000 143.000 160.000 158.000 142.000 161.000 C135.000 163.000 128.000 165.000 125.000 167.000 C118.000 171.000 109.000 180.000 106.000 188.000 C99.000 202.000 99.000 207.000 98.000 230.000 C98.000 250.000 98.000 252.000 96.000 260.000 C94.000 267.000 93.000 273.000 92.000 282.000 C90.000 305.000 90.000 307.000 81.000 325.000 C68.000 349.000 65.000 361.000 60.000 395.000 C57.000 419.000 52.000 435.000 46.000 450.000 C44.000 454.000 42.000 456.000 36.000 460.000 C26.000 467.000 24.000 469.000 20.000 476.000 C19.000 480.000 15.000 485.000 12.000 488.000 C8.000 495.000 7.000 497.000 9.000 499.000 C12.000 502.000 21.000 499.000 25.000 493.000 L27.000 490.000 L26.000 494.000 C26.000 497.000 25.000 504.000 23.000 511.000 C19.000 529.000 17.000 541.000 18.000 544.000 C19.000 547.000 23.000 547.000 25.000 544.000 C27.000 542.000 27.000 542.000 26.000 547.000 C26.000 551.000 26.000 552.000 28.000 554.000 C30.000 557.000 34.000 556.000 36.000 552.000 C38.000 549.000 38.000 549.000 38.000 551.000 C39.000 554.000 42.000 555.000 45.000 554.000 C47.000 553.000 50.000 548.000 51.000 543.000 C51.000 540.000 51.000 540.000 52.000 542.000 C54.000 545.000 58.000 546.000 60.000 543.000 C61.000 542.000 64.000 534.000 66.000 527.000 C68.000 520.000 71.000 509.000 73.000 502.000 C76.000 492.000 76.000 491.000 77.000 475.000 C77.000 460.000 77.000 459.000 80.000 451.000 C85.000 439.000 94.000 422.000 103.000 410.000 C113.000 395.000 119.000 384.000 123.000 372.000 C126.000 363.000 127.000 358.000 129.000 337.000 C131.000 326.000 132.000 323.000 136.000 312.000 C141.000 301.000 146.000 286.000 147.000 281.000 C148.000 279.000 159.000 314.000 161.000 324.000 C165.000 343.000 166.000 357.000 163.000 379.000 C162.000 393.000 161.000 398.000 156.000 427.000 C152.000 449.000 146.000 504.000 144.000 533.000 C142.000 560.000 145.000 586.000 152.000 618.000 C161.000 655.000 161.000 670.000 156.000 698.000 C153.000 715.000 153.000 718.000 153.000 734.000 C153.000 751.000 153.000 753.000 156.000 766.000 C170.000 828.000 171.000 836.000 171.000 865.000 L171.000 887.000 L163.000 895.000 C159.000 899.000 155.000 903.000 154.000 903.000 C148.000 903.000 146.000 912.000 150.000 916.000 C153.000 919.000 161.000 922.000 165.000 922.000 C166.000 922.000 170.000 924.000 174.000 926.000 C180.000 930.000 181.000 930.000 188.000 931.000 C197.000 931.000 202.000 929.000 205.000 923.000 C207.000 918.000 208.000 913.000 205.000 902.000 C204.000 896.000 204.000 891.000 204.000 883.000 C205.000 875.000 205.000 872.000 203.000 867.000 C199.000 853.000 203.000 816.000 211.000 782.000 C219.000 745.000 220.000 738.000 213.000 708.000 C210.000 691.000 210.000 686.000 215.000 671.000 C218.000 659.000 219.000 649.000 222.000 618.000 C224.000 606.000 225.000 597.000 229.000 584.000 C238.000 548.000 241.000 530.000 241.000 513.000 C241.000 501.000 242.000 496.000 244.000 498.000 C245.000 499.000 246.000 505.000 246.000 514.000 C247.000 533.000 250.000 549.000 256.000 575.000 C262.000 600.000 264.000 608.000 266.000 631.000 C267.000 654.000 268.000 659.000 272.000 672.000 C276.000 685.000 276.000 691.000 272.000 710.000 C268.000 730.000 267.000 748.000 271.000 762.000 C279.000 800.000 282.000 816.000 283.000 839.000 C283.000 853.000 283.000 857.000 282.000 864.000 C280.000 870.000 280.000 875.000 281.000 882.000 C281.000 890.000 281.000 895.000 280.000 901.000 C277.000 916.000 278.000 924.000 284.000 928.000 C287.000 930.000 289.000 930.000 296.000 930.000 C304.000 930.000 305.000 930.000 311.000 927.000 C314.000 925.000 320.000 922.000 323.000 921.000 C334.000 919.000 337.000 916.000 337.000 909.000 C337.000 906.000 336.000 905.000 332.000 903.000 C329.000 902.000 324.000 898.000 321.000 894.000 L315.000 888.000 L314.000 880.000 C313.000 861.000 314.000 841.000 315.000 831.000 C317.000 820.000 324.000 791.000 329.000 772.000 C335.000 746.000 336.000 730.000 330.000 697.000 C327.000 680.000 327.000 677.000 327.000 661.000 C328.000 648.000 328.000 642.000 330.000 634.000 C341.000 588.000 342.000 583.000 343.000 553.000 C343.000 527.000 343.000 526.000 338.000 473.000 C334.000 445.000 334.000 439.000 330.000 418.000 C326.000 398.000 323.000 368.000 323.000 357.000 C323.000 348.000 325.000 330.000 327.000 321.000 C328.000 318.000 332.000 308.000 335.000 298.000 C340.000 282.000 341.000 281.000 342.000 283.000 C343.000 285.000 343.000 287.000 343.000 287.000 C343.000 288.000 345.000 294.000 348.000 301.000 C351.000 308.000 355.000 317.000 356.000 321.000 C358.000 326.000 359.000 331.000 360.000 343.000 C363.000 370.000 368.000 383.000 384.000 407.000 C394.000 423.000 403.000 438.000 408.000 450.000 C411.000 458.000 411.000 460.000 411.000 465.000 C410.000 482.000 411.000 489.000 414.000 501.000 C416.000 507.000 419.000 518.000 421.000 524.000 C425.000 540.000 427.000 544.000 430.000 545.000 C433.000 545.000 435.000 544.000 435.000 541.000 C435.000 539.000 436.000 540.000 436.000 542.000 C438.000 548.000 440.000 552.000 442.000 554.000 C444.000 555.000 445.000 555.000 447.000 554.000 C448.000 553.000 449.000 552.000 449.000 549.000 L449.000 545.000 L450.000 549.000 C451.000 553.000 454.000 556.000 456.000 556.000 C460.000 556.000 461.000 554.000 461.000 549.000 C461.000 545.000 461.000 545.000 463.000 546.000 C465.000 547.000 466.000 546.000 468.000 545.000 C470.000 544.000 470.000 543.000 470.000 537.000 C469.000 533.000 467.000 522.000 465.000 512.000 C463.000 502.000 461.000 493.000 461.000 492.000 C461.000 491.000 462.000 492.000 464.000 494.000 C469.000 500.000 476.000 502.000 479.000 498.000 C481.000 496.000 481.000 496.000 480.000 494.000 C471.000 482.000 469.000 478.000 467.000 474.000 C464.000 469.000 462.000 467.000 451.000 460.000 L444.000 455.000 L440.000 444.000 C434.000 430.000 432.000 418.000 429.000 397.000 C423.000 359.000 420.000 349.000 410.000 328.000 C400.000 309.000 399.000 306.000 398.000 287.000 C397.000 270.000 396.000 267.000 393.000 255.000 C391.000 249.000 390.000 247.000 391.000 241.000 C392.000 232.000 392.000 215.000 390.000 205.000 C388.000 193.000 384.000 183.000 377.000 176.000 C370.000 168.000 363.000 164.000 349.000 162.000 C330.000 158.000 298.000 144.000 289.000 136.000 C283.000 131.000 281.000 128.000 280.000 119.000 C279.000 109.000 281.000 93.000 284.000 91.000 C286.000 91.000 288.000 88.000 289.000 85.000 C296.000 70.000 296.000 59.000 289.000 59.000 C287.000 59.000 287.000 59.000 287.000 54.000 C288.000 47.000 286.000 35.000 284.000 29.000 C276.000 12.000 257.000 2.000 238.000 5.000 Z"/>
  <g id="muscles">
    <path class="muscle muscle-traps" d="M250.000 85.000 L248.000 87.000 L247.000 192.000 C247.000 250.000 247.000 299.000 248.000 300.000 C249.000 302.000 249.000 302.000 252.000 297.000 C257.000 289.000 277.000 253.000 284.000 239.000 C291.000 225.000 294.000 218.000 298.000 202.000 C305.000 178.000 309.000 173.000 327.000 168.000 C336.000 165.000 338.000 163.000 335.000 161.000 C335.000 160.000 327.000 157.000 318.000 153.000 C294.000 143.000 284.000 136.000 280.000 128.000 C279.000 125.000 277.000 121.000 275.000 119.000 C274.000 117.000 272.000 110.000 270.000 104.000 C268.000 97.000 266.000 91.000 265.000 90.000 C262.000 83.000 255.000 81.000 250.000 85.000 Z"/>
    <path class="muscle muscle-traps" d="M229.000 85.000 C225.000 87.000 223.000 91.000 219.000 106.000 C214.000 120.000 210.000 130.000 205.000 135.000 C203.000 137.000 201.000 138.000 201.000 138.000 C201.000 137.000 200.000 138.000 199.000 139.000 C197.000 141.000 180.000 150.000 165.000 156.000 C155.000 160.000 152.000 162.000 154.000 164.000 C154.000 164.000 158.000 166.000 162.000 168.000 C175.000 172.000 180.000 175.000 183.000 181.000 C188.000 188.000 188.000 190.000 192.000 204.000 C197.000 225.000 201.000 232.000 223.000 271.000 C238.000 300.000 240.000 302.000 241.000 301.000 C242.000 299.000 242.000 92.000 241.000 88.000 C239.000 83.000 234.000 82.000 229.000 85.000 Z"/>
    <path class="muscle muscle-delts" d="M131.000 166.000 C123.000 167.000 112.000 177.000 107.000 188.000 C106.000 191.000 104.000 194.000 104.000 194.000 C104.000 194.000 103.000 195.000 103.000 195.000 C103.000 196.000 102.000 200.000 102.000 204.000 C100.000 211.000 99.000 228.000 100.000 242.000 C100.000 245.000 101.000 244.000 105.000 239.000 C110.000 232.000 125.000 216.000 137.000 206.000 C143.000 201.000 148.000 196.000 150.000 195.000 C151.000 194.000 152.000 193.000 153.000 193.000 C153.000 193.000 157.000 190.000 162.000 187.000 C174.000 177.000 173.000 175.000 153.000 169.000 C141.000 165.000 139.000 165.000 131.000 166.000 Z"/>
    <path class="muscle muscle-delts" d="M337.000 169.000 C324.000 174.000 320.000 176.000 320.000 178.000 C320.000 180.000 334.000 192.000 336.000 192.000 C336.000 192.000 337.000 193.000 338.000 193.000 C338.000 194.000 345.000 200.000 352.000 206.000 C367.000 218.000 381.000 233.000 386.000 240.000 C387.000 243.000 389.000 244.000 389.000 243.000 C390.000 242.000 391.000 208.000 390.000 205.000 C386.000 193.000 384.000 189.000 382.000 184.000 C375.000 174.000 374.000 173.000 374.000 173.000 C373.000 173.000 371.000 172.000 369.000 170.000 C366.000 168.000 363.000 167.000 359.000 166.000 C356.000 166.000 352.000 166.000 351.000 166.000 C349.000 165.000 343.000 167.000 337.000 169.000 Z"/>
    <path class="muscle muscle-back" d="M309.000 186.000 C308.000 188.000 306.000 193.000 305.000 198.000 C303.000 203.000 300.000 212.000 298.000 218.000 C292.000 235.000 292.000 233.000 299.000 236.000 C311.000 240.000 328.000 240.000 337.000 235.000 C339.000 234.000 342.000 231.000 344.000 229.000 C346.000 226.000 347.000 225.000 347.000 216.000 L347.000 206.000 L342.000 202.000 C334.000 195.000 322.000 186.000 318.000 185.000 C314.000 182.000 311.000 183.000 309.000 186.000 Z"/>
    <path class="muscle muscle-back" d="M166.000 188.000 C155.000 196.000 143.000 205.000 143.000 207.000 C143.000 208.000 143.000 211.000 143.000 214.000 C141.000 223.000 142.000 226.000 147.000 231.000 C152.000 237.000 160.000 239.000 170.000 239.000 C178.000 239.000 191.000 237.000 194.000 234.000 C196.000 232.000 196.000 232.000 193.000 222.000 C191.000 216.000 188.000 206.000 186.000 200.000 C182.000 188.000 179.000 183.000 176.000 183.000 C174.000 183.000 170.000 185.000 166.000 188.000 Z"/>
    <path class="muscle muscle-triceps" d="M354.000 216.000 C353.000 216.000 351.000 221.000 349.000 236.000 C346.000 256.000 346.000 263.000 347.000 274.000 C350.000 290.000 354.000 301.000 363.000 314.000 C370.000 325.000 382.000 336.000 386.000 334.000 C387.000 334.000 388.000 333.000 389.000 332.000 C392.000 327.000 394.000 280.000 392.000 268.000 C389.000 247.000 378.000 230.000 364.000 220.000 C357.000 215.000 357.000 215.000 354.000 216.000 Z"/>
    <path class="muscle muscle-triceps" d="M125.000 220.000 C114.000 229.000 104.000 243.000 99.000 258.000 C97.000 265.000 97.000 269.000 96.000 281.000 C96.000 296.000 97.000 323.000 99.000 329.000 C100.000 331.000 101.000 333.000 102.000 334.000 C103.000 336.000 103.000 336.000 107.000 335.000 C119.000 329.000 133.000 307.000 139.000 287.000 C142.000 272.000 143.000 261.000 140.000 240.000 C138.000 220.000 136.000 215.000 133.000 215.000 C132.000 215.000 129.000 217.000 125.000 220.000 Z"/>
    <path class="muscle muscle-lats" d="M336.000 240.000 C329.000 243.000 319.000 244.000 309.000 243.000 C305.000 242.000 299.000 241.000 297.000 240.000 C291.000 238.000 290.000 239.000 288.000 243.000 C287.000 245.000 280.000 258.000 272.000 272.000 C264.000 286.000 257.000 299.000 256.000 302.000 C253.000 312.000 256.000 327.000 267.000 359.000 C273.000 378.000 280.000 393.000 284.000 396.000 C286.000 397.000 286.000 397.000 288.000 395.000 C290.000 393.000 293.000 386.000 296.000 377.000 C304.000 357.000 309.000 346.000 321.000 321.000 C327.000 309.000 333.000 294.000 335.000 287.000 C337.000 280.000 340.000 274.000 340.000 273.000 C341.000 272.000 341.000 268.000 341.000 265.000 C341.000 261.000 341.000 255.000 342.000 250.000 C343.000 242.000 343.000 237.000 341.000 237.000 C341.000 237.000 339.000 238.000 336.000 240.000 Z"/>
    <path class="muscle muscle-lats" d="M146.000 240.000 C146.000 240.000 146.000 244.000 146.000 247.000 C147.000 250.000 147.000 257.000 148.000 261.000 C148.000 277.000 154.000 294.000 170.000 327.000 C176.000 340.000 184.000 358.000 188.000 366.000 C195.000 385.000 201.000 396.000 203.000 396.000 C203.000 397.000 205.000 397.000 206.000 396.000 C215.000 391.000 234.000 334.000 234.000 311.000 C234.000 302.000 235.000 304.000 219.000 275.000 C214.000 265.000 207.000 253.000 205.000 248.000 C199.000 238.000 201.000 238.000 189.000 242.000 C184.000 243.000 179.000 243.000 171.000 243.000 C161.000 243.000 159.000 243.000 153.000 241.000 C148.000 239.000 147.000 238.000 146.000 240.000 Z"/>
    <path class="muscle muscle-back" d="M318.000 337.000 C311.000 350.000 298.000 383.000 298.000 389.000 C298.000 392.000 298.000 392.000 302.000 392.000 C307.000 392.000 312.000 394.000 318.000 399.000 C321.000 401.000 323.000 403.000 323.000 403.000 C325.000 403.000 325.000 393.000 323.000 381.000 C322.000 372.000 322.000 362.000 322.000 349.000 C323.000 339.000 322.000 331.000 322.000 331.000 C322.000 331.000 320.000 334.000 318.000 337.000 Z"/>
    <path class="muscle muscle-back" d="M166.000 334.000 C166.000 335.000 166.000 344.000 166.000 353.000 C166.000 362.000 165.000 375.000 165.000 382.000 C163.000 393.000 163.000 403.000 165.000 403.000 C165.000 403.000 167.000 401.000 169.000 400.000 C176.000 395.000 181.000 392.000 186.000 392.000 C190.000 392.000 191.000 392.000 191.000 390.000 C191.000 385.000 176.000 348.000 170.000 337.000 C167.000 332.000 166.000 331.000 166.000 334.000 Z"/>
    <path class="muscle muscle-forearm" d="M88.000 315.000 C87.000 317.000 86.000 318.000 86.000 318.000 C86.000 318.000 83.000 324.000 79.000 331.000 C75.000 339.000 72.000 345.000 72.000 345.000 C71.000 345.000 71.000 346.000 71.000 346.000 C72.000 346.000 71.000 349.000 70.000 351.000 C69.000 356.000 64.000 375.000 63.000 380.000 C62.000 395.000 59.000 414.000 57.000 421.000 C56.000 425.000 55.000 430.000 55.000 431.000 C55.000 432.000 54.000 436.000 53.000 440.000 C50.000 448.000 50.000 448.000 52.000 449.000 C53.000 450.000 54.000 450.000 54.000 450.000 C55.000 450.000 63.000 432.000 72.000 410.000 C76.000 400.000 82.000 384.000 86.000 376.000 C95.000 356.000 96.000 351.000 93.000 329.000 C92.000 312.000 91.000 310.000 88.000 315.000 Z"/>
    <path class="muscle muscle-forearm" d="M397.000 320.000 C393.000 351.000 393.000 354.000 405.000 381.000 C410.000 392.000 416.000 406.000 418.000 412.000 C430.000 444.000 433.000 449.000 434.000 450.000 C434.000 450.000 435.000 450.000 436.000 449.000 C437.000 448.000 437.000 447.000 435.000 440.000 C434.000 436.000 433.000 432.000 433.000 431.000 C434.000 431.000 433.000 429.000 432.000 426.000 C430.000 416.000 426.000 394.000 425.000 378.000 C424.000 376.000 423.000 369.000 421.000 363.000 C420.000 357.000 419.000 351.000 419.000 350.000 C419.000 350.000 418.000 349.000 418.000 349.000 C418.000 349.000 417.000 348.000 417.000 346.000 C416.000 342.000 404.000 319.000 402.000 317.000 C401.000 316.000 400.000 314.000 399.000 313.000 C398.000 312.000 398.000 313.000 397.000 320.000 Z"/>
    <path class="muscle muscle-forearm" d="M364.000 327.000 C364.000 332.000 367.000 343.000 370.000 351.000 C374.000 363.000 381.000 377.000 394.000 401.000 C401.000 413.000 410.000 429.000 414.000 435.000 C424.000 453.000 425.000 454.000 427.000 453.000 C428.000 452.000 429.000 452.000 429.000 451.000 C429.000 450.000 413.000 403.000 410.000 396.000 C404.000 380.000 392.000 357.000 389.000 353.000 C383.000 347.000 375.000 337.000 371.000 330.000 C368.000 327.000 366.000 324.000 365.000 324.000 C364.000 324.000 364.000 325.000 364.000 327.000 Z"/>
    <path class="muscle muscle-forearm" d="M119.000 331.000 C116.000 335.000 110.000 342.000 106.000 347.000 C101.000 352.000 97.000 357.000 97.000 358.000 C96.000 359.000 96.000 360.000 95.000 360.000 C94.000 360.000 94.000 360.000 94.000 361.000 C95.000 361.000 95.000 362.000 94.000 362.000 C92.000 363.000 80.000 392.000 71.000 416.000 C58.000 452.000 58.000 452.000 60.000 453.000 C62.000 455.000 63.000 454.000 67.000 448.000 C75.000 436.000 106.000 381.000 111.000 370.000 C119.000 354.000 126.000 334.000 125.000 326.000 C125.000 324.000 124.000 324.000 119.000 331.000 Z"/>
    <path class="muscle muscle-back" d="M246.000 319.000 C245.000 322.000 245.000 325.000 245.000 325.000 C244.000 326.000 244.000 324.000 243.000 320.000 C242.000 317.000 242.000 314.000 241.000 314.000 C241.000 314.000 239.000 320.000 237.000 328.000 C233.000 346.000 227.000 366.000 220.000 382.000 C217.000 389.000 215.000 395.000 215.000 396.000 C215.000 398.000 219.000 407.000 224.000 417.000 C229.000 427.000 234.000 440.000 237.000 445.000 C239.000 451.000 241.000 457.000 242.000 458.000 C244.000 460.000 244.000 460.000 246.000 459.000 C247.000 458.000 249.000 452.000 251.000 446.000 C253.000 441.000 259.000 427.000 265.000 417.000 C273.000 401.000 274.000 397.000 274.000 394.000 C273.000 392.000 270.000 382.000 266.000 371.000 C262.000 360.000 257.000 343.000 254.000 333.000 C251.000 323.000 248.000 314.000 248.000 314.000 C248.000 313.000 247.000 315.000 246.000 319.000 Z"/>
    <path class="muscle muscle-back" d="M363.000 350.000 C365.000 369.000 372.000 386.000 386.000 407.000 C395.000 421.000 400.000 429.000 407.000 442.000 C412.000 452.000 415.000 456.000 417.000 456.000 C420.000 456.000 419.000 453.000 412.000 438.000 C404.000 422.000 399.000 412.000 383.000 383.000 C378.000 375.000 372.000 363.000 369.000 357.000 C366.000 350.000 363.000 345.000 363.000 345.000 C362.000 345.000 362.000 347.000 363.000 350.000 Z"/>
    <path class="muscle muscle-back" d="M120.000 357.000 C117.000 364.000 108.000 381.000 100.000 395.000 C82.000 427.000 68.000 454.000 69.000 455.000 C69.000 456.000 70.000 456.000 71.000 456.000 C73.000 456.000 74.000 455.000 77.000 449.000 C80.000 442.000 87.000 431.000 88.000 430.000 C88.000 430.000 90.000 427.000 91.000 424.000 C93.000 422.000 99.000 413.000 104.000 406.000 C115.000 389.000 120.000 379.000 123.000 365.000 C126.000 355.000 128.000 345.000 127.000 345.000 C126.000 345.000 123.000 351.000 120.000 357.000 Z"/>
    <path class="muscle muscle-glutes" d="M177.000 399.000 C171.000 403.000 164.000 410.000 160.000 417.000 C158.000 423.000 154.000 448.000 155.000 453.000 C155.000 456.000 155.000 456.000 160.000 448.000 C169.000 432.000 186.000 417.000 199.000 413.000 C203.000 412.000 206.000 411.000 206.000 410.000 C207.000 409.000 200.000 403.000 194.000 400.000 C187.000 397.000 183.000 396.000 177.000 399.000 Z"/>
    <path class="muscle muscle-glutes" d="M293.000 400.000 C286.000 404.000 280.000 409.000 281.000 410.000 C281.000 411.000 284.000 411.000 287.000 412.000 C289.000 412.000 292.000 413.000 293.000 414.000 C294.000 414.000 297.000 417.000 301.000 419.000 C304.000 421.000 309.000 425.000 311.000 427.000 C318.000 433.000 327.000 445.000 330.000 451.000 C332.000 456.000 332.000 457.000 333.000 455.000 C334.000 453.000 332.000 437.000 330.000 426.000 C327.000 412.000 314.000 397.000 303.000 397.000 C301.000 397.000 297.000 398.000 293.000 400.000 Z"/>
    <path class="muscle muscle-glutes" d="M278.000 415.000 C273.000 415.000 271.000 417.000 266.000 424.000 C253.000 442.000 243.000 480.000 247.000 495.000 C250.000 503.000 255.000 511.000 263.000 516.000 C266.000 518.000 270.000 520.000 270.000 519.000 C271.000 519.000 271.000 519.000 271.000 520.000 C271.000 520.000 274.000 522.000 279.000 523.000 C285.000 525.000 289.000 525.000 300.000 525.000 C312.000 525.000 313.000 525.000 317.000 523.000 C327.000 517.000 331.000 504.000 331.000 483.000 C331.000 469.000 330.000 462.000 324.000 449.000 C319.000 441.000 309.000 428.000 307.000 428.000 C307.000 428.000 305.000 427.000 303.000 425.000 C297.000 419.000 284.000 414.000 278.000 415.000 Z"/>
    <path class="muscle muscle-glutes" d="M198.000 417.000 C175.000 427.000 159.000 449.000 156.000 476.000 C153.000 501.000 161.000 521.000 175.000 525.000 C182.000 527.000 201.000 526.000 210.000 523.000 C224.000 518.000 234.000 510.000 239.000 500.000 C246.000 483.000 234.000 437.000 217.000 419.000 C214.000 415.000 213.000 415.000 208.000 415.000 C206.000 415.000 201.000 416.000 198.000 417.000 Z"/>
    <path class="muscle muscle-hams" d="M150.000 499.000 C149.000 504.000 147.000 510.000 147.000 512.000 C146.000 516.000 146.000 529.000 146.000 547.000 C145.000 577.000 146.000 584.000 150.000 600.000 C151.000 604.000 152.000 607.000 152.000 608.000 C152.000 608.000 152.000 610.000 153.000 611.000 C154.000 613.000 154.000 613.000 154.000 610.000 C153.000 608.000 153.000 599.000 152.000 589.000 C152.000 570.000 153.000 558.000 158.000 545.000 C161.000 538.000 165.000 532.000 170.000 529.000 C172.000 528.000 172.000 528.000 168.000 526.000 C160.000 522.000 156.000 515.000 153.000 498.000 L151.000 490.000 L150.000 499.000 Z"/>
    <path class="muscle muscle-hams" d="M335.000 496.000 C334.000 504.000 330.000 515.000 327.000 519.000 C326.000 522.000 323.000 524.000 320.000 525.000 C315.000 528.000 315.000 528.000 317.000 529.000 C323.000 531.000 330.000 543.000 333.000 557.000 C335.000 566.000 335.000 588.000 334.000 598.000 C332.000 615.000 332.000 619.000 333.000 616.000 C334.000 613.000 339.000 591.000 340.000 581.000 C343.000 558.000 342.000 515.000 339.000 502.000 C338.000 500.000 337.000 496.000 336.000 494.000 L335.000 490.000 L335.000 496.000 Z"/>
    <path class="muscle muscle-hams" d="M251.000 516.000 C249.000 532.000 250.000 545.000 257.000 574.000 C259.000 582.000 264.000 593.000 265.000 593.000 C265.000 593.000 265.000 589.000 265.000 584.000 C265.000 573.000 266.000 555.000 269.000 539.000 C271.000 529.000 271.000 527.000 270.000 525.000 C270.000 524.000 269.000 524.000 269.000 525.000 C269.000 525.000 269.000 525.000 268.000 524.000 C268.000 524.000 266.000 522.000 263.000 521.000 C261.000 519.000 257.000 516.000 255.000 514.000 L251.000 511.000 L251.000 516.000 Z"/>
    <path class="muscle muscle-hams" d="M230.000 516.000 C225.000 521.000 222.000 523.000 222.000 522.000 C222.000 522.000 222.000 522.000 221.000 523.000 C221.000 523.000 219.000 524.000 218.000 524.000 C217.000 525.000 216.000 525.000 215.000 525.000 C215.000 526.000 216.000 530.000 217.000 536.000 C220.000 551.000 221.000 562.000 221.000 579.000 C221.000 587.000 222.000 594.000 222.000 593.000 C224.000 591.000 228.000 578.000 232.000 564.000 C235.000 552.000 236.000 546.000 237.000 535.000 C237.000 521.000 237.000 512.000 235.000 512.000 C235.000 512.000 233.000 514.000 230.000 516.000 Z"/>
    <path class="muscle muscle-hams" d="M277.000 528.000 C270.000 546.000 268.000 571.000 270.000 593.000 C271.000 601.000 272.000 618.000 272.000 632.000 C273.000 658.000 273.000 659.000 276.000 669.000 C278.000 675.000 280.000 680.000 280.000 680.000 C280.000 680.000 281.000 678.000 282.000 675.000 C283.000 673.000 286.000 663.000 290.000 653.000 C297.000 635.000 300.000 624.000 300.000 616.000 C300.000 608.000 302.000 613.000 302.000 623.000 C303.000 630.000 303.000 635.000 306.000 643.000 C310.000 654.000 318.000 671.000 319.000 671.000 C319.000 671.000 320.000 667.000 320.000 662.000 C320.000 657.000 321.000 650.000 322.000 646.000 C327.000 620.000 329.000 610.000 330.000 601.000 C332.000 579.000 331.000 560.000 326.000 547.000 C323.000 540.000 316.000 533.000 311.000 531.000 C306.000 530.000 293.000 530.000 293.000 531.000 C293.000 531.000 294.000 534.000 295.000 538.000 C298.000 548.000 301.000 565.000 301.000 579.000 L302.000 591.000 L301.000 582.000 C298.000 557.000 294.000 535.000 292.000 532.000 C291.000 531.000 288.000 530.000 286.000 529.000 C283.000 529.000 280.000 528.000 279.000 527.000 C278.000 527.000 277.000 527.000 277.000 528.000 Z"/>
    <path class="muscle muscle-hams" d="M203.000 529.000 C198.000 530.000 197.000 531.000 196.000 534.000 C192.000 541.000 188.000 564.000 187.000 576.000 C186.000 580.000 186.000 579.000 186.000 575.000 C186.000 566.000 190.000 543.000 195.000 532.000 C195.000 530.000 194.000 530.000 187.000 530.000 C174.000 530.000 168.000 533.000 163.000 544.000 C154.000 563.000 153.000 597.000 162.000 636.000 C164.000 643.000 165.000 654.000 166.000 660.000 L167.000 671.000 L173.000 659.000 C182.000 640.000 185.000 630.000 185.000 617.000 L185.000 612.000 L186.000 617.000 C187.000 619.000 187.000 624.000 188.000 628.000 C188.000 632.000 192.000 642.000 196.000 653.000 C200.000 662.000 203.000 673.000 204.000 675.000 C206.000 683.000 207.000 682.000 211.000 663.000 C214.000 654.000 214.000 649.000 215.000 628.000 C216.000 615.000 216.000 598.000 217.000 590.000 C218.000 577.000 218.000 566.000 216.000 553.000 C215.000 544.000 211.000 527.000 210.000 527.000 C210.000 527.000 207.000 528.000 203.000 529.000 Z"/>
    <path class="muscle muscle-calves" d="M183.000 647.000 C181.000 652.000 181.000 653.000 183.000 655.000 C185.000 658.000 188.000 670.000 188.000 674.000 C188.000 676.000 188.000 678.000 189.000 678.000 C189.000 678.000 189.000 696.000 189.000 718.000 C189.000 740.000 189.000 760.000 189.000 763.000 C189.000 773.000 195.000 782.000 201.000 781.000 C206.000 779.000 212.000 766.000 214.000 750.000 C215.000 739.000 214.000 723.000 210.000 709.000 C208.000 698.000 200.000 673.000 197.000 668.000 C196.000 663.000 195.000 664.000 192.000 671.000 C190.000 676.000 190.000 676.000 191.000 673.000 C191.000 670.000 192.000 667.000 193.000 665.000 L195.000 661.000 L191.000 652.000 C189.000 647.000 187.000 642.000 186.000 642.000 C186.000 642.000 184.000 644.000 183.000 647.000 Z"/>
    <path class="muscle muscle-calves" d="M177.000 660.000 C176.000 662.000 173.000 669.000 170.000 676.000 C156.000 710.000 153.000 730.000 157.000 752.000 C160.000 775.000 172.000 783.000 181.000 771.000 C187.000 763.000 187.000 761.000 187.000 717.000 C187.000 675.000 186.000 665.000 183.000 660.000 C181.000 655.000 179.000 655.000 177.000 660.000 Z"/>
    <path class="muscle muscle-calves" d="M303.000 659.000 C302.000 661.000 301.000 666.000 300.000 668.000 C299.000 671.000 299.000 691.000 299.000 715.000 C299.000 754.000 299.000 757.000 301.000 763.000 C307.000 783.000 322.000 781.000 328.000 759.000 C332.000 745.000 332.000 727.000 327.000 708.000 C325.000 701.000 311.000 664.000 307.000 657.000 C306.000 654.000 305.000 654.000 303.000 659.000 Z"/>
    <path class="muscle muscle-calves" d="M289.000 665.000 C289.000 666.000 288.000 668.000 287.000 670.000 C287.000 672.000 283.000 682.000 280.000 693.000 C271.000 722.000 269.000 738.000 273.000 755.000 C274.000 765.000 276.000 771.000 280.000 776.000 C284.000 783.000 290.000 782.000 294.000 774.000 C296.000 770.000 296.000 769.000 296.000 723.000 C296.000 679.000 296.000 675.000 294.000 669.000 C292.000 663.000 290.000 662.000 289.000 665.000 Z"/>
    <path class="muscle muscle-calves" d="M297.000 772.000 C296.000 775.000 295.000 778.000 292.000 781.000 C290.000 784.000 289.000 784.000 286.000 784.000 C284.000 784.000 282.000 784.000 282.000 784.000 C282.000 784.000 283.000 789.000 284.000 794.000 C288.000 813.000 289.000 831.000 290.000 859.000 C290.000 875.000 290.000 888.000 291.000 890.000 C291.000 893.000 294.000 893.000 296.000 891.000 C298.000 889.000 300.000 880.000 303.000 859.000 C307.000 826.000 312.000 800.000 318.000 781.000 C318.000 780.000 317.000 779.000 314.000 779.000 C309.000 779.000 305.000 777.000 301.000 770.000 C300.000 769.000 299.000 767.000 299.000 767.000 C299.000 767.000 298.000 769.000 297.000 772.000 Z"/>
    <path class="muscle muscle-calves" d="M185.000 770.000 C182.000 776.000 176.000 781.000 171.000 779.000 C168.000 779.000 168.000 779.000 168.000 781.000 C172.000 792.000 178.000 825.000 182.000 860.000 C184.000 874.000 187.000 887.000 187.000 889.000 C189.000 894.000 193.000 894.000 194.000 891.000 C194.000 890.000 195.000 874.000 196.000 856.000 C197.000 825.000 198.000 810.000 202.000 793.000 L204.000 784.000 L200.000 784.000 C196.000 784.000 191.000 779.000 189.000 773.000 C187.000 767.000 186.000 766.000 185.000 770.000 Z"/>
    <path class="muscle muscle-calves" d="M318.000 803.000 C311.000 831.000 309.000 846.000 308.000 872.000 C308.000 891.000 308.000 895.000 312.000 889.000 C313.000 885.000 313.000 884.000 312.000 875.000 C311.000 854.000 313.000 831.000 321.000 798.000 C322.000 794.000 323.000 789.000 323.000 788.000 C323.000 787.000 321.000 794.000 318.000 803.000 Z"/>
    <path class="muscle muscle-calves" d="M163.000 790.000 C163.000 790.000 164.000 797.000 166.000 804.000 C172.000 833.000 175.000 858.000 173.000 869.000 C173.000 873.000 172.000 877.000 172.000 880.000 C172.000 884.000 175.000 892.000 176.000 892.000 C177.000 892.000 177.000 871.000 176.000 855.000 C175.000 839.000 172.000 823.000 167.000 804.000 C164.000 791.000 163.000 787.000 163.000 790.000 Z"/>
  </g>
</svg>