<svg xmlns="http://www.w3.org/2000/svg" viewBox="0 0 473 927">
  <path id="body" d="M230.000 1.000 C218.000 3.000 205.000 13.000 200.000 23.000 C196.000 30.000 195.000 37.000 195.000 47.000 C195.000 54.000 195.000 55.000 193.000 55.000 C191.000 54.000 188.000 58.000 188.000 63.000 C188.000 71.000 194.000 86.000 198.000 87.000 C201.000 89.000 203.000 104.000 202.000 114.000 C201.000 124.000 200.000 126.000 195.000 131.000 C186.000 139.000 152.000 154.000 134.000 157.000 C127.000 159.000 120.000 161.000 117.000 163.000 C110.000 167.000 101.000 176.000 98.000 184.000 C91.000 198.000 91.000 203.000 90.000 226.000 C90.000 246.000 90.000 248.000 88.000 256.000 C86.000 263.000 85.000 269.000 84.000 278.000 C82.000 301.000 82.000 303.000 73.000 321.000 C60.000 345.000 57.000 357.000 52.000 391.000 C49.000 415.000 44.000 431.000 38.000 446.000 C36.000 450.000 34.000 452.000 28.000 456.000 C18.000 463.000 16.000 465.000 12.000 472.000 C11.000 476.000 7.000 481.000 4.000 484.000 C0.000 491.000 -1.000 493.000 1.000 495.000 C4.000 498.000 13.000 495.000 17.000 489.000 L19.000 486.000 L18.000 490.000 C18.000 493.000 17.000 500.000 15.000 507.000 C11.000 525.000 9.000 537.000 10.000 540.000 C11.000 543.000 15.000 543.000 17.000 540.000 C19.000 538.000 19.000 538.000 18.000 543.000 C18.000 547.000 18.000 548.000 20.000 550.000 C22.000 553.000 26.000 552.000 28.000 548.000 C30.000 545.000 30.000 545.000 30.000 547.000 C31.000 550.000 34.000 551.000 37.000 550.000 C39.000 549.000 42.000 544.000 43.000 539.000 C43.000 536.000 43.000 536.000 44.000 538.000 C46.000 541.000 50.000 542.000 52.000 539.000 C53.000 538.000 56.000 530.000 58.000 523.000 C60.000 516.000 63.000 505.000 65.000 498.000 C68.000 488.000 68.000 487.000 69.000 471.000 C69.000 456.000 69.000 455.000 72.000 447.000 C77.000 435.000 86.000 418.000 95.000 406.000 C105.000 391.000 111.000 380.000 115.000 368.000 C118.000 359.000 119.000 354.000 121.000 333.000 C123.000 322.000 124.000 319.000 128.000 308.000 C133.000 297.000 138.000 282.000 139.000 277.000 C140.000 275.000 151.000 310.000 153.000 320.000 C157.000 339.000 158.000 353.000 155.000 375.000 C154.000 389.000 153.000 394.000 148.000 423.000 C144.000 445.000 138.000 500.000 136.000 529.000 C134.000 556.000 137.000 582.000 144.000 614.000 C153.000 651.000 153.000 666.000 148.000 694.000 C145.000 711.000 145.000 714.000 145.000 730.000 C145.000 747.000 145.000 749.000 148.000 762.000 C162.000 824.000 163.000 832.000 163.000 861.000 L163.000 883.000 L155.000 891.000 C151.000 895.000 147.000 899.000 146.000 899.000 C140.000 899.000 138.000 908.000 142.000 912.000 C145.000 915.000 153.000 918.000 157.000 918.000 C158.000 918.000 162.000 920.000 166.000 922.000 C172.000 926.000 173.000 926.000 180.000 927.000 C189.000 927.000 194.000 925.000 197.000 919.000 C199.000 914.000 200.000 909.000 197.000 898.000 C196.000 892.000 196.000 887.000 196.000 879.000 C197.000 871.000 197.000 868.000 195.000 863.000 C191.000 849.000 195.000 812.000 203.000 778.000 C211.000 741.000 212.000 734.000 205.000 704.000 C202.000 687.000 202.000 682.000 207.000 667.000 C210.000 655.000 211.000 645.000 214.000 614.000 C216.000 602.000 217.000 593.000 221.000 580.000 C230.000 544.000 233.000 526.000 233.000 509.000 C233.000 497.000 234.000 492.000 236.000 494.000 C237.000 495.000 238.000 501.000 238.000 510.000 C239.000 529.000 242.000 545.000 248.000 571.000 C254.000 596.000 256.000 604.000 258.000 627.000 C259.000 650.000 260.000 655.000 264.000 668.000 C268.000 681.000 268.000 687.000 264.000 706.000 C260.000 726.000 259.000 744.000 263.000 758.000 C271.000 796.000 274.000 812.000 275.000 835.000 C275.000 849.000 275.000 853.000 274.000 860.000 C272.000 866.000 272.000 871.000 273.000 878.000 C273.000 886.000 273.000 891.000 272.000 897.000 C269.000 912.000 270.000 920.000 276.000 924.000 C279.000 926.000 281.000 926.000 288.000 926.000 C296.000 926.000 297.000 926.000 303.000 923.000 C306.000 921.000 312.000 918.000 315.000 917.000 C326.000 915.000 329.000 912.000 329.000 905.000 C329.000 902.000 328.000 901.000 324.000 899.000 C321.000 898.000 316.000 894.000 313.000 890.000 L307.000 884.000 L306.000 876.000 C305.000 857.000 306.000 837.000 307.000 827.000 C309.000 816.000 316.000 787.000 321.000 768.000 C327.000 742.000 328.000 726.000 322.000 693.000 C319.000 676.000 319.000 673.000 319.000 657.000 C320.000 644.000 320.000 638.000 322.000 630.000 C333.000 584.000 334.000 579.000 335.000 549.000 C335.000 523.000 335.000 522.000 330.000 469.000 C326.000 441.000 326.000 435.000 322.000 414.000 C318.000 394.000 315.000 364.000 315.000 353.000 C315.000 344.000 317.000 326.000 319.000 317.000 C320.000 314.000 324.000 304.000 327.000 294.000 C332.000 278.000 333.000 277.000 334.000 279.000 C335.000 281.000 335.000 283.000 335.000 283.000 C335.000 284.000 337.000 290.000 340.000 297.000 C343.000 304.000 347.000 313.000 348.000 317.000 C350.000 322.000 351.000 327.000 352.000 339.000 C355.000 366.000 360.000 379.000 376.000 403.000 C386.000 419.000 395.000 434.000 400.000 446.000 C403.000 454.000 403.000 456.000 403.000 461.000 C402.000 478.000 403.000 485.000 406.000 497.000 C408.000 503.000 411.000 514.000 413.000 520.000 C417.000 536.000 419.000 540.000 422.000 541.000 C425.000 541.000 427.000 540.000 427.000 537.000 C427.000 535.000 428.000 536.000 428.000 538.000 C430.000 544.000 432.000 548.000 434.000 550.000 C436.000 551.000 437.000 551.000 439.000 550.000 C440.000 549.000 441.000 548.000 441.000 545.000 L441.000 541.000 L442.000 545.000 C443.000 549.000 446.000 552.000 448.000 552.000 C452.000 552.000 453.000 550.000 453.000 545.000 C453.000 541.000 453.000 541.000 455.000 542.000 C457.000 543.000 458.000 542.000 460.000 541.000 C462.000 540.000 462.000 539.000 462.000 533.000 C461.000 529.000 459.000 518.000 457.000 508.000 C455.000 498.000 453.000 489.000 453.000 488.000 C453.000 487.000 454.000 488.000 456.000 490.000 C461.000 496.000 468.000 498.000 471.000 494.000 C473.000 492.000 473.000 492.000 472.000 490.000 C463.000 478.000 461.000 474.000 459.000 470.000 C456.000 465.000 454.000 463.000 443.000 456.000 L436.000 451.000 L432.000 440.000 C426.000 426.000 424.000 414.000 421.000 393.000 C415.000 355.000 412.000 345.000 402.000 324.000 C392.000 305.000 391.000 302.000 390.000 283.000 C389.000 266.000 388.000 263.000 385.000 251.000 C383.000 245.000 382.000 243.000 383.000 237.000 C384.000 228.000 384.000 211.000 382.000 201.000 C380.000 189.000 376.000 179.000 369.000 172.000 C362.000 164.000 355.000 160.000 341.000 158.000 C322.000 154.000 290.000 140.000 281.000 132.000 C275.000 127.000 273.000 124.000 272.000 115.000 C271.000 105.000 273.000 89.000 276.000 87.000 C278.000 87.000 280.000 84.000 281.000 81.000 C288.000 66.000 288.000 55.000 281.000 55.000 C279.000 55.000 279.000 55.000 279.000 50.000 C280.000 43.000 278.000 31.000 276.000 25.000 C268.000 8.000 249.000 -2.000 230.000 1.000 Z"/>
  <g id="muscles">
    <path class="muscle muscle-traps" d="M242.000 81.000 L240.000 83.000 L239.000 188.000 C239.000 246.000 239.000 295.000 240.000 296.000 C241.000 298.000 241.000 298.000 244.000 293.000 C249.000 285.000 269.000 249.000 276.000 235.000 C283.000 221.000 286.000 214.000 290.000 198.000 C297.000 174.000 301.000 169.000 319.000 164.000 C328.000 161.000 330.000 159.000 327.000 157.000 C327.000 156.000 319.000 153.000 310.000 149.000 C286.000 139.000 276.000 132.000 272.000 124.000 C271.000 121.000 269.000 117.000 267.000 115.000 C266.000 113.000 264.000 106.000 262.000 100.000 C260.000 93.000 258.000 87.000 257.000 86.000 C254.000 79.000 247.000 77.000 242.000 81.000 Z"/>
    <path class="muscle muscle-traps" d="M221.000 81.000 C217.000 83.000 215.000 87.000 211.000 102.000 C206.000 116.000 202.000 126.000 197.000 131.000 C195.000 133.000 193.000 134.000 193.000 134.000 C193.000 133.000 192.000 134.000 191.000 135.000 C189.000 137.000 172.000 146.000 157.000 152.000 C147.000 156.000 144.000 158.000 146.000 160.000 C146.000 160.000 150.000 162.000 154.000 164.000 C167.000 168.000 172.000 171.000 175.000 177.000 C180.000 184.000 180.000 186.000 184.000 200.000 C189.000 221.000 193.000 228.000 215.000 267.000 C230.000 296.000 232.000 298.000 233.000 297.000 C234.000 295.000 234.000 88.000 233.000 84.000 C231.000 79.000 226.000 78.000 221.000 81.000 Z"/>
    <path class="muscle muscle-delts" d="M123.000 162.000 C115.000 163.000 104.000 173.000 99.000 184.000 C98.000 187.000 96.000 190.000 96.000 190.000 C96.000 190.000 95.000 191.000 95.000 191.000 C95.000 192.000 94.000 196.000 94.000 200.000 C92.000 207.000 91.000 224.000 92.000 238.000 C92.000 241.000 93.000 240.000 97.000 235.000 C102.000 228.000 117.000 212.000 129.000 202.000 C135.000 197.000 140.000 192.000 142.000 191.000 C143.000 190.000 144.000 189.000 145.000 189.000 C145.000 189.000 149.000 186.000 154.000 183.000 C166.000 173.000 165.000 171.000 145.000 165.000 C133.000 161.000 131.000 161.000 123.000 162.000 Z"/>
    <path class="muscle muscle-delts" d="M329.000 165.000 C316.000 170.000 312.000 172.000 312.000 174.000 C312.000 176.000 326.000 188.000 328.000 188.000 C328.000 188.000 329.000 189.000 330.000 189.000 C330.000 190.000 337.000 196.000 344.000 202.000 C359.000 214.000 373.000 229.000 378.000 236.000 C379.000 239.000 381.000 240.000 381.000 239.000 C382.000 238.000 383.000 204.000 382.000 201.000 C378.000 189.000 376.000 185.000 374.000 180.000 C367.000 170.000 366.000 169.000 366.000 169.000 C365.000 169.000 363.000 168.000 361.000 166.000 C358.000 164.000 355.000 163.000 351.000 162.000 C348.000 162.000 344.000 162.000 343.000 162.000 C341.000 161.000 335.000 163.000 329.000 165.000 Z"/>
    <path class="muscle muscle-back" d="M301.000 182.000 C300.000 184.000 298.000 189.000 297.000 194.000 C295.000 199.000 292.000 208.000 290.000 214.000 C284.000 231.000 284.000 229.000 291.000 232.000 C303.000 236.000 320.000 236.000 329.000 231.000 C331.000 230.000 334.000 227.000 336.000 225.000 C338.000 222.000 339.000 221.000 339.000 212.000 L339.000 202.000 L334.000 198.000 C326.000 191.000 314.000 182.000 310.000 181.000 C306.000 178.000 303.000 179.000 301.000 182.000 Z"/>
    <path class="muscle muscle-back" d="M158.000 184.000 C147.000 192.000 135.000 201.000 135.000 203.000 C135.000 204.000 135.000 207.000 135.000 210.000 C133.000 219.000 134.000 222.000 139.000 227.000 C144.000 233.000 152.000 235.000 162.000 235.000 C170.000 235.000 183.000 233.000 186.000 230.000 C188.000 228.000 188.000 228.000 185.000 218.000 C183.000 212.000 180.000 202.000 178.000 196.000 C174.000 184.000 171.000 179.000 168.000 179.000 C166.000 179.000 162.000 181.000 158.000 184.000 Z"/>
    <path class="muscle muscle-triceps" d="M346.000 212.000 C345.000 212.000 343.000 217.000 341.000 232.000 C338.000 252.000 338.000 259.000 339.000 270.000 C342.000 286.000 346.000 297.000 355.000 310.000 C362.000 321.000 374.000 332.000 378.000 330.000 C379.000 330.000 380.000 329.000 381.000 328.000 C384.000 323.000 386.000 276.000 384.000 264.000 C381.000 243.000 370.000 226.000 356.000 216.000 C349.000 211.000 349.000 211.000 346.000 212.000 Z"/>
    <path class="muscle muscle-triceps" d="M117.000 216.000 C106.000 225.000 96.000 239.000 91.000 254.000 C89.000 261.000 89.000 265.000 88.000 277.000 C88.000 292.000 89.000 319.000 91.000 325.000 C92.000 327.000 93.000 329.000 94.000 330.000 C95.000 332.000 95.000 332.000 99.000 331.000 C111.000 325.000 125.000 303.000 131.000 283.000 C134.000 268.000 135.000 257.000 132.000 236.000 C130.000 216.000 128.000 211.000 125.000 211.000 C124.000 211.000 121.000 213.000 117.000 216.000 Z"/>
    <path class="muscle muscle-lats" d="M328.000 236.000 C321.000 239.000 311.000 240.000 301.000 239.000 C297.000 238.000 291.000 237.000 289.000 236.000 C283.000 234.000 282.000 235.000 280.000 239.000 C279.000 241.000 272.000 254.000 264.000 268.000 C256.000 282.000 249.000 295.000 248.000 298.000 C245.000 308.000 248.000 323.000 259.000 355.000 C265.000 374.000 272.000 389.000 276.000 392.000 C278.000 393.000 278.000 393.000 280.000 391.000 C282.000 389.000 285.000 382.000 288.000 373.000 C296.000 353.000 301.000 342.000 313.000 317.000 C319.000 305.000 325.000 290.000 327.000 283.000 C329.000 276.000 332.000 270.000 332.000 269.000 C333.000 268.000 333.000 264.000 333.000 261.000 C333.000 257.000 333.000 251.000 334.000 246.000 C335.000 238.000 335.000 233.000 333.000 233.000 C333.000 233.000 331.000 234.000 328.000 236.000 Z"/>
    <path class="muscle muscle-lats" d="M138.000 236.000 C138.000 236.000 138.000 240.000 138.000 243.000 C139.000 246.000 139.000 253.000 140.000 257.000 C140.000 273.000 146.000 290.000 162.000 323.000 C168.000 336.000 176.000 354.000 180.000 362.000 C187.000 381.000 193.000 392.000 195.000 392.000 C195.000 393.000 197.000 393.000 198.000 392.000 C207.000 387.000 226.000 330.000 226.000 307.000 C226.000 298.000 227.000 300.000 211.000 271.000 C206.000 261.000 199.000 249.000 197.000 244.000 C191.000 234.000 193.000 234.000 181.000 238.000 C176.000 239.000 171.000 239.000 163.000 239.000 C153.000 239.000 151.000 239.000 145.000 237.000 C140.000 235.000 139.000 234.000 138.000 236.000 Z"/>
    <path class="muscle muscle-back" d="M310.000 333.000 C303.000 346.000 290.000 379.000 290.000 385.000 C290.000 388.000 290.000 388.000 294.000 388.000 C299.000 388.000 304.000 390.000 310.000 395.000 C313.000 397.000 315.000 399.000 315.000 399.000 C317.000 399.000 317.000 389.000 315.000 377.000 C314.000 368.000 314.000 358.000 314.000 345.000 C315.000 335.000 314.000 327.000 314.000 327.000 C314.000 327.000 312.000 330.000 310.000 333.000 Z"/>
    <path class="muscle muscle-back" d="M158.000 330.000 C158.000 331.000 158.000 340.000 158.000 349.000 C158.000 358.000 157.000 371.000 157.000 378.000 C155.000 389.000 155.000 399.000 157.000 399.000 C157.000 399.000 159.000 397.000 161.000 396.000 C168.000 391.000 173.000 388.000 178.000 388.000 C182.000 388.000 183.000 388.000 183.000 386.000 C183.000 381.000 168.000 344.000 162.000 333.000 C159.000 328.000 158.000 327.000 158.000 330.000 Z"/>
    <path class="muscle muscle-forearm" d="M80.000 311.000 C79.000 313.000 78.000 314.000 78.000 314.000 C78.000 314.000 75.000 320.000 71.000 327.000 C67.000 335.000 64.000 341.000 64.000 341.000 C63.000 341.000 63.000 342.000 63.000 342.000 C64.000 342.000 63.000 345.000 62.000 347.000 C61.000 352.000 56.000 371.000 55.000 376.000 C54.000 391.000 51.000 410.000 49.000 417.000 C48.000 421.000 47.000 426.000 47.000 427.000 C47.000 428.000 46.000 432.000 45.000 436.000 C42.000 444.000 42.000 444.000 44.000 445.000 C45.000 446.000 46.000 446.000 46.000 446.000 C47.000 446.000 55.000 428.000 64.000 406.000 C68.000 396.000 74.000 380.000 78.000 372.000 C87.000 352.000 88.000 347.000 85.000 325.000 C84.000 308.000 83.000 306.000 80.000 311.000 Z"/>
    <path class="muscle muscle-forearm" d="M389.000 316.000 C385.000 347.000 385.000 350.000 397.000 377.000 C402.000 388.000 408.000 402.000 410.000 408.000 C422.000 440.000 425.000 445.000 426.000 446.000 C426.000 446.000 427.000 446.000 428.000 445.000 C429.000 444.000 429.000 443.000 427.000 436.000 C426.000 432.000 425.000 428.000 425.000 427.000 C426.000 427.000 425.000 425.000 424.000 422.000 C422.000 412.000 418.000 390.000 417.000 374.000 C416.000 372.000 415.000 365.000 413.000 359.000 C412.000 353.000 411.000 347.000 411.000 346.000 C411.000 346.000 410.000 345.000 410.000 345.000 C410.000 345.000 409.000 344.000 409.000 342.000 C408.000 338.000 396.000 315.000 394.000 313.000 C393.000 312.000 392.000 310.000 391.000 309.000 C390.000 308.000 390.000 309.000 389.000 316.000 Z"/>
    <path class="muscle muscle-forearm" d="M356.000 323.000 C356.000 328.000 359.000 339.000 362.000 347.000 C366.000 359.000 373.000 373.000 386.000 397.000 C393.000 409.000 402.000 425.000 406.000 431.000 C416.000 449.000 417.000 450.000 419.000 449.000 C420.000 448.000 421.000 448.000 421.000 447.000 C421.000 446.000 405.000 399.000 402.000 392.000 C396.000 376.000 384.000 353.000 381.000 349.000 C375.000 343.000 367.000 333.000 363.000 326.000 C360.000 323.000 358.000 320.000 357.000 320.000 C356.000 320.000 356.000 321.000 356.000 323.000 Z"/>
    <path class="muscle muscle-forearm" d="M111.000 327.000 C108.000 331.000 102.000 338.000 98.000 343.000 C93.000 348.000 89.000 353.000 89.000 354.000 C88.000 355.000 88.000 356.000 87.000 356.000 C86.000 356.000 86.000 356.000 86.000 357.000 C87.000 357.000 87.000 358.000 86.000 358.000 C84.000 359.000 72.000 388.000 63.000 412.000 C50.000 448.000 50.000 448.000 52.000 449.000 C54.000 451.000 55.000 450.000 59.000 444.000 C67.000 432.000 98.000 377.000 103.000 366.000 C111.000 350.000 118.000 330.000 117.000 322.000 C117.000 320.000 116.000 320.000 111.000 327.000 Z"/>
    <path class="muscle muscle-back" d="M238.000 315.000 C237.000 318.000 237.000 321.000 237.000 321.000 C236.000 322.000 236.000 320.000 235.000 316.000 C234.000 313.000 234.000 310.000 233.000 310.000 C233.000 310.000 231.000 316.000 229.000 324.000 C225.000 342.000 219.000 362.000 212.000 378.000 C209.000 385.000 207.000 391.000 207.000 392.000 C207.000 394.000 211.000 403.000 216.000 413.000 C221.000 423.000 226.000 436.000 229.000 441.000 C231.000 447.000 233.000 453.000 234.000 454.000 C236.000 456.000 236.000 456.000 238.000 455.000 C239.000 454.000 241.000 448.000 243.000 442.000 C245.000 437.000 251.000 423.000 257.000 413.000 C265.000 397.000 266.000 393.000 266.000 390.000 C265.000 388.000 262.000 378.000 258.000 367.000 C254.000 356.000 249.000 339.000 246.000 329.000 C243.000 319.000 240.000 310.000 240.000 310.000 C240.000 309.000 239.000 311.000 238.000 315.000 Z"/>
    <path class="muscle muscle-back" d="M355.000 346.000 C357.000 365.000 364.000 382.000 378.000 403.000 C387.000 417.000 392.000 425.000 399.000 438.000 C404.000 448.000 407.000 452.000 409.000 452.000 C412.000 452.000 411.000 449.000 404.000 434.000 C396.000 418.000 391.000 408.000 375.000 379.000 C370.000 371.000 364.000 359.000 361.000 353.000 C358.000 346.000 355.000 341.000 355.000 341.000 C354.000 341.000 354.000 343.000 355.000 346.000 Z"/>
    <path class="muscle muscle-back" d="M112.000 353.000 C109.000 360.000 100.000 377.000 92.000 391.000 C74.000 423.000 60.000 450.000 61.000 451.000 C61.000 452.000 62.000 452.000 63.000 452.000 C65.000 452.000 66.000 451.000 69.000 445.000 C72.000 438.000 79.000 427.000 80.000 426.000 C80.000 426.000 82.000 423.000 83.000 420.000 C85.000 418.000 91.000 409.000 96.000 402.000 C107.000 385.000 112.000 375.000 115.000 361.000 C118.000 351.000 120.000 341.000 119.000 341.000 C118.000 341.000 115.000 347.000 112.000 353.000 Z"/>
    <path class="muscle muscle-glutes" d="M169.000 395.000 C163.000 399.000 156.000 406.000 152.000 413.000 C150.000 419.000 146.000 444.000 147.000 449.000 C147.000 452.000 147.000 452.000 152.000 444.000 C161.000 428.000 178.000 413.000 191.000 409.000 C195.000 408.000 198.000 407.000 198.000 406.000 C199.000 405.000 192.000 399.000 186.000 396.000 C179.000 393.000 175.000 392.000 169.000 395.000 Z"/>
    <path class="muscle muscle-glutes" d="M285.000 396.000 C278.000 400.000 272.000 405.000 273.000 406.000 C273.000 407.000 276.000 407.000 279.000 408.000 C281.000 408.000 284.000 409.000 285.000 410.000 C286.000 410.000 289.000 413.000 293.000 415.000 C296.000 417.000 301.000 421.000 303.000 423.000 C310.000 429.000 319.000 441.000 322.000 447.000 C324.000 452.000 324.000 453.000 325.000 451.000 C326.000 449.000 324.000 433.000 322.000 422.000 C319.000 408.000 306.000 393.000 295.000 393.000 C293.000 393.000 289.000 394.000 285.000 396.000 Z"/>
    <path class="muscle muscle-glutes" d="M270.000 411.000 C265.000 411.000 263.000 413.000 258.000 420.000 C245.000 438.000 235.000 476.000 239.000 491.000 C242.000 499.000 247.000 507.000 255.000 512.000 C258.000 514.000 262.000 516.000 262.000 515.000 C263.000 515.000 263.000 515.000 263.000 516.000 C263.000 516.000 266.000 518.000 271.000 519.000 C277.000 521.000 281.000 521.000 292.000 521.000 C304.000 521.000 305.000 521.000 309.000 519.000 C319.000 513.000 323.000 500.000 323.000 479.000 C323.000 465.000 322.000 458.000 316.000 445.000 C311.000 437.000 301.000 424.000 299.000 424.000 C299.000 424.000 297.000 423.000 295.000 421.000 C289.000 415.000 276.000 410.000 270.000 411.000 Z"/>
    <path class="muscle muscle-glutes" d="M190.000 413.000 C167.000 423.000 151.000 445.000 148.000 472.000 C145.000 497.000 153.000 517.000 167.000 521.000 C174.000 523.000 193.000 522.000 202.000 519.000 C216.000 514.000 226.000 506.000 231.000 496.000 C238.000 479.000 226.000 433.000 209.000 415.000 C206.000 411.000 205.000 411.000 200.000 411.000 C198.000 411.000 193.000 412.000 190.000 413.000 Z"/>
    <path class="muscle muscle-hams" d="M142.000 495.000 C141.000 500.000 139.000 506.000 139.000 508.000 C138.000 512.000 138.000 525.000 138.000 543.000 C137.000 573.000 138.000 580.000 142.000 596.000 C143.000 600.000 144.000 603.000 144.000 604.000 C144.000 604.000 144.000 606.000 145.000 607.000 C146.000 609.000 146.000 609.000 146.000 606.000 C145.000 604.000 145.000 595.000 144.000 585.000 C144.000 566.000 145.000 554.000 150.000 541.000 C153.000 534.000 157.000 528.000 162.000 525.000 C164.000 524.000 164.000 524.000 160.000 522.000 C152.000 518.000 148.000 511.000 145.000 494.000 L143.000 486.000 L142.000 495.000 Z"/>
    <path class="muscle muscle-hams" d="M327.000 492.000 C326.000 500.000 322.000 511.000 319.000 515.000 C318.000 518.000 315.000 520.000 312.000 521.000 C307.000 524.000 307.000 524.000 309.000 525.000 C315.000 527.000 322.000 539.000 325.000 553.000 C327.000 562.000 327.000 584.000 326.000 594.000 C324.000 611.000 324.000 615.000 325.000 612.000 C326.000 609.000 331.000 587.000 332.000 577.000 C335.000 554.000 334.000 511.000 331.000 498.000 C330.000 496.000 329.000 492.000 328.000 490.000 L327.000 486.000 L327.000 492.000 Z"/>
    <path class="muscle muscle-hams" d="M243.000 512.000 C241.000 528.000 242.000 541.000 249.000 570.000 C251.000 578.000 256.000 589.000 257.000 589.000 C257.000 589.000 257.000 585.000 257.000 580.000 C257.000 569.000 258.000 551.000 261.000 535.000 C263.000 525.000 263.000 523.000 262.000 521.000 C262.000 520.000 261.000 520.000 261.000 521.000 C261.000 521.000 261.000 521.000 260.000 520.000 C260.000 520.000 258.000 518.000 255.000 517.000 C253.000 515.000 249.000 512.000 247.000 510.000 L243.000 507.000 L243.000 512.000 Z"/>
    <path class="muscle muscle-hams" d="M222.000 512.000 C217.000 517.000 214.000 519.000 214.000 518.000 C214.000 518.000 214.000 518.000 213.000 519.000 C213.000 519.000 211.000 520.000 210.000 520.000 C209.000 521.000 208.000 521.000 207.000 521.000 C207.000 522.000 208.000 526.000 209.000 532.000 C212.000 547.000 213.000 558.000 213.000 575.000 C213.000 583.000 214.000 590.000 214.000 589.000 C216.000 587.000 220.000 574.000 224.000 560.000 C227.000 548.000 228.000 542.000 229.000 531.000 C229.000 517.000 229.000 508.000 227.000 508.000 C227.000 508.000 225.000 510.000 222.000 512.000 Z"/>
    <path class="muscle muscle-hams" d="M269.000 524.000 C262.000 542.000 260.000 567.000 262.000 589.000 C263.000 597.000 264.000 614.000 264.000 628.000 C265.000 654.000 265.000 655.000 268.000 665.000 C270.000 671.000 272.000 676.000 272.000 676.000 C272.000 676.000 273.000 674.000 274.000 671.000 C275.000 669.000 278.000 659.000 282.000 649.000 C289.000 631.000 292.000 620.000 292.000 612.000 C292.000 604.000 294.000 609.000 294.000 619.000 C295.000 626.000 295.000 631.000 298.000 639.000 C302.000 650.000 310.000 667.000 311.000 667.000 C311.000 667.000 312.000 663.000 312.000 658.000 C312.000 653.000 313.000 646.000 314.000 642.000 C319.000 616.000 321.000 606.000 322.000 597.000 C324.000 575.000 323.000 556.000 318.000 543.000 C315.000 536.000 308.000 529.000 303.000 527.000 C298.000 526.000 285.000 526.000 285.000 527.000 C285.000 527.000 286.000 530.000 287.000 534.000 C290.000 544.000 293.000 561.000 293.000 575.000 L294.000 587.000 L293.000 578.000 C290.000 553.000 286.000 531.000 284.000 528.000 C283.000 527.000 280.000 526.000 278.000 525.000 C275.000 525.000 272.000 524.000 271.000 523.000 C270.000 523.000 269.000 523.000 269.000 524.000 Z"/>
    <path class="muscle muscle-hams" d="M195.000 525.000 C190.000 526.000 189.000 527.000 188.000 530.000 C184.000 537.000 180.000 560.000 179.000 572.000 C178.000 576.000 178.000 575.000 178.000 571.000 C178.000 562.000 182.000 539.000 187.000 528.000 C187.000 526.000 186.000 526.000 179.000 526.000 C166.000 526.000 160.000 529.000 155.000 540.000 C146.000 559.000 145.000 593.000 154.000 632.000 C156.000 639.000 157.000 650.000 158.000 656.000 L159.000 667.000 L165.000 655.000 C174.000 636.000 177.000 626.000 177.000 613.000 L177.000 608.000 L178.000 613.000 C179.000 615.000 179.000 620.000 180.000 624.000 C180.000 628.000 184.000 638.000 188.000 649.000 C192.000 658.000 195.000 669.000 196.000 671.000 C198.000 679.000 199.000 678.000 203.000 659.000 C206.000 650.000 206.000 645.000 207.000 624.000 C208.000 611.000 208.000 594.000 209.000 586.000 C210.000 573.000 210.000 562.000 208.000 549.000 C207.000 540.000 203.000 523.000 202.000 523.000 C202.000 523.000 199.000 524.000 195.000 525.000 Z"/>
    <path class="muscle muscle-calves" d="M175.000 643.000 C173.000 648.000 173.000 649.000 175.000 651.000 C177.000 654.000 180.000 666.000 180.000 670.000 C180.000 672.000 180.000 674.000 181.000 674.000 C181.000 674.000 181.000 692.000 181.000 714.000 C181.000 736.000 181.000 756.000 181.000 759.000 C181.000 769.000 187.000 778.000 193.000 777.000 C198.000 775.000 204.000 762.000 206.000 746.000 C207.000 735.000 206.000 719.000 202.000 705.000 C200.000 694.000 192.000 669.000 189.000 664.000 C188.000 659.000 187.000 660.000 184.000 667.000 C182.000 672.000 182.000 672.000 183.000 669.000 C183.000 666.000 184.000 663.000 185.000 661.000 L187.000 657.000 L183.000 648.000 C181.000 643.000 179.000 638.000 178.000 638.000 C178.000 638.000 176.000 640.000 175.000 643.000 Z"/>
    <path class="muscle muscle-calves" d="M169.000 656.000 C168.000 658.000 165.000 665.000 162.000 672.000 C148.000 706.000 145.000 726.000 149.000 748.000 C152.000 771.000 164.000 779.000 173.000 767.000 C179.000 759.000 179.000 757.000 179.000 713.000 C179.000 671.000 178.000 661.000 175.000 656.000 C173.000 651.000 171.000 651.000 169.000 656.000 Z"/>
    <path class="muscle muscle-calves" d="M295.000 655.000 C294.000 657.000 293.000 662.000 292.000 664.000 C291.000 667.000 291.000 687.000 291.000 711.000 C291.000 750.000 291.000 753.000 293.000 759.000 C299.000 779.000 314.000 777.000 320.000 755.000 C324.000 741.000 324.000 723.000 319.000 704.000 C317.000 697.000 303.000 660.000 299.000 653.000 C298.000 650.000 297.000 650.000 295.000 655.000 Z"/>
    <path class="muscle muscle-calves" d="M281.000 661.000 C281.000 662.000 280.000 664.000 279.000 666.000 C279.000 668.000 275.000 678.000 272.000 689.000 C263.000 718.000 261.000 734.000 265.000 751.000 C266.000 761.000 268.000 767.000 272.000 772.000 C276.000 779.000 282.000 778.000 286.000 770.000 C288.000 766.000 288.000 765.000 288.000 719.000 C288.000 675.000 288.000 671.000 286.000 665.000 C284.000 659.000 282.000 658.000 281.000 661.000 Z"/>
    <path class="muscle muscle-calves" d="M289.000 768.000 C288.000 771.000 287.000 774.000 284.000 777.000 C282.000 780.000 281.000 780.000 278.000 780.000 C276.000 780.000 274.000 780.000 274.000 780.000 C274.000 780.000 275.000 785.000 276.000 790.000 C280.000 809.000 281.000 827.000 282.000 855.000 C282.000 871.000 282.000 884.000 283.000 886.000 C283.000 889.000 286.000 889.000 288.000 887.000 C290.000 885.000 292.000 876.000 295.000 855.000 C299.000 822.000 304.000 796.000 310.000 777.000 C310.000 776.000 309.000 775.000 306.000 775.000 C301.000 775.000 297.000 773.000 293.000 766.000 C292.000 765.000 291.000 763.000 291.000 763.000 C291.000 763.000 290.000 765.000 289.000 768.000 Z"/>
    <path class="muscle muscle-calves" d="M177.000 766.000 C174.000 772.000 168.000 777.000 163.000 775.000 C160.000 775.000 160.000 775.000 160.000 777.000 C164.000 788.000 170.000 821.000 174.000 856.000 C176.000 870.000 179.000 883.000 179.000 885.000 C181.000 890.000 185.000 890.000 186.000 887.000 C186.000 886.000 187.000 870.000 188.000 852.000 C189.000 821.000 190.000 806.000 194.000 789.000 L196.000 780.000 L192.000 780.000 C188.000 780.000 183.000 775.000 181.000 769.000 C179.000 763.000 178.000 762.000 177.000 766.000 Z"/>
    <path class="muscle muscle-calves" d="M310.000 799.000 C303.000 827.000 301.000 842.000 300.000 868.000 C300.000 887.000 300.000 891.000 304.000 885.000 C305.000 881.000 305.000 880.000 304.000 871.000 C303.000 850.000 305.000 827.000 313.000 794.000 C314.000 790.000 315.000 785.000 315.000 784.000 C315.000 783.000 313.000 790.000 310.000 799.000 Z"/>
    <path class="muscle muscle-calves" d="M155.000 786.000 C155.000 786.000 156.000 793.000 158.000 800.000 C164.000 829.000 167.000 854.000 165.000 865.000 C165.000 869.000 164.000 873.000 164.000 876.000 C164.000 880.000 167.000 888.000 168.000 888.000 C169.000 888.000 169.000 867.000 168.000 851.000 C167.000 835.000 164.000 819.000 159.000 800.000 C156.000 787.000 155.000 783.000 155.000 786.000 Z"/>
  </g>
</svg>